%
M48
M72
T01C0.0240
T02C0.0295
T03C0.0320
T04C0.0394
T05C0.0400
T06C0.0413
T07C0.0472
T08C0.0591
T09C0.0630
T10C0.0827
%
T01
X10237Y1981
X18187Y3181
X20437Y4575
X21187Y5181
X21187Y3181
X20687Y2181
X18187Y6981
X16959Y8981
X16437Y9781
X15459Y9781
X14687Y8981
X15487Y8581
X17459Y11781
X18959Y12681
X19459Y11781
X19987Y9981
X19987Y9381
X20787Y8981
X23587Y8981
X26187Y8381
X27661Y8375
X28187Y7981
X23187Y11981
X22187Y11581
X24387Y12581
X24987Y13381
X24187Y13781
X24787Y14181
X24187Y15981
X24787Y16181
X23187Y15981
X22187Y15981
X19959Y16081
X19459Y15781
X18459Y16581
X18387Y17581
X16459Y17581
X17187Y19181
X13587Y18131
X14959Y15781
X13187Y15181
X13587Y13981
X15187Y12681
X15959Y13681
X17459Y15781
X24687Y18181
X28437Y12231
X9587Y8581
X8587Y9381
X7987Y8981
X7587Y9781
T02
X26690Y11210
T03
X9687Y16831
X8687Y16831
X8687Y19631
X9687Y19631
T04
X22187Y7181
X23187Y7181
X24187Y7181
X25187Y7181
X26187Y7181
X27187Y7181
X28187Y7181
X28187Y6181
X27187Y6181
X26187Y6181
X26187Y5181
X27187Y5181
X28187Y5181
X28187Y4181
X27187Y4181
X26187Y4181
X26187Y3181
X27187Y3181
X28187Y3181
X25187Y3181
X24187Y3181
X23187Y3181
X22187Y3181
X22187Y4181
X23187Y4181
X24187Y4181
X25187Y4181
X25187Y5181
X24187Y5181
X23187Y5181
X22187Y5181
X22187Y6181
X23187Y6181
X24187Y6181
X25187Y6181
T05
X25187Y1181
X24187Y1181
X23187Y1181
X22187Y1181
X20187Y1181
X19187Y1181
X18187Y1181
X17187Y1181
X16187Y1181
X15187Y1181
X12687Y3681
X12687Y4681
X12687Y5681
X26187Y1181
X27187Y1181
X27187Y20181
X26187Y20181
X25187Y20181
X24187Y20181
X23187Y20181
X22187Y20181
X21187Y20181
X20187Y20181
X18587Y20181
X17587Y20181
X16587Y20181
X15587Y20181
X14587Y20181
X13587Y20181
X12587Y20181
X11587Y20181
T06
X25632Y10152
T07
X5358Y11611
T08
X6711Y16605
X6238Y20148
T09
X5358Y1847
T10
X5845Y17431
X3089Y17510
M30
