G75*
G70*
%OFA0B0*%
%FSLAX24Y24*%
%IPPOS*%
%LPD*%
%AMOC8*
5,1,8,0,0,1.08239X$1,22.5*
%
%ADD10OC8,0.0630*%
%ADD11C,0.0630*%
%ADD12C,0.1227*%
%ADD13C,0.0886*%
%ADD14OC8,0.0600*%
%ADD15C,0.0600*%
%ADD16C,0.0400*%
%ADD17C,0.0100*%
%ADD18C,0.0160*%
%ADD19C,0.0591*%
D10*
X008687Y016831D03*
X008687Y019631D03*
D11*
X009687Y019631D03*
X009687Y016831D03*
D12*
X005845Y017431D03*
X003089Y017510D03*
D13*
X006711Y016605D03*
X006238Y020148D03*
D14*
X012687Y005681D03*
X012687Y004681D03*
X012687Y003681D03*
D15*
X015187Y001481D02*
X015187Y000881D01*
X016187Y000881D02*
X016187Y001481D01*
X017187Y001481D02*
X017187Y000881D01*
X018187Y000881D02*
X018187Y001481D01*
X019187Y001481D02*
X019187Y000881D01*
X020187Y000881D02*
X020187Y001481D01*
X022187Y001481D02*
X022187Y000881D01*
X023187Y000881D02*
X023187Y001481D01*
X024187Y001481D02*
X024187Y000881D01*
X025187Y000881D02*
X025187Y001481D01*
X026187Y001481D02*
X026187Y000881D01*
X027187Y000881D02*
X027187Y001481D01*
X027187Y019881D02*
X027187Y020481D01*
X026187Y020481D02*
X026187Y019881D01*
X025187Y019881D02*
X025187Y020481D01*
X024187Y020481D02*
X024187Y019881D01*
X023187Y019881D02*
X023187Y020481D01*
X022187Y020481D02*
X022187Y019881D01*
X021187Y019881D02*
X021187Y020481D01*
X020187Y020481D02*
X020187Y019881D01*
X018587Y019881D02*
X018587Y020481D01*
X017587Y020481D02*
X017587Y019881D01*
X016587Y019881D02*
X016587Y020481D01*
X015587Y020481D02*
X015587Y019881D01*
X014587Y019881D02*
X014587Y020481D01*
X013587Y020481D02*
X013587Y019881D01*
X012587Y019881D02*
X012587Y020481D01*
X011587Y020481D02*
X011587Y019881D01*
D16*
X013587Y018131D03*
X016459Y017581D03*
X018387Y017581D03*
X018459Y016581D03*
X019459Y015781D03*
X019959Y016081D03*
X022187Y015981D03*
X023187Y015981D03*
X024187Y015981D03*
X024787Y016181D03*
X024787Y014181D03*
X024187Y013781D03*
X024987Y013381D03*
X024387Y012581D03*
X023187Y011981D03*
X022187Y011581D03*
X019987Y009981D03*
X019987Y009381D03*
X020787Y008981D03*
X023587Y008981D03*
X026187Y008381D03*
X027661Y008375D03*
X028187Y007981D03*
X028437Y012231D03*
X024687Y018181D03*
X017459Y015781D03*
X014959Y015781D03*
X013187Y015181D03*
X013587Y013981D03*
X015187Y012681D03*
X015959Y013681D03*
X017459Y011781D03*
X018959Y012681D03*
X019459Y011781D03*
X016437Y009781D03*
X016959Y008981D03*
X015487Y008581D03*
X014687Y008981D03*
X015459Y009781D03*
X018187Y006981D03*
X021187Y005181D03*
X020437Y004575D03*
X021187Y003181D03*
X020687Y002181D03*
X018187Y003181D03*
X010237Y001981D03*
X009587Y008581D03*
X008587Y009381D03*
X007987Y008981D03*
X007587Y009781D03*
X017187Y019181D03*
D17*
X016902Y018897D01*
X016624Y018781D02*
X013981Y018781D01*
X013981Y018782D02*
X013942Y018780D01*
X013904Y018774D01*
X013867Y018765D01*
X013830Y018752D01*
X013795Y018735D01*
X013762Y018716D01*
X013731Y018693D01*
X013702Y018667D01*
X013676Y018638D01*
X013653Y018607D01*
X013634Y018574D01*
X013617Y018539D01*
X013604Y018502D01*
X013595Y018465D01*
X013589Y018427D01*
X013587Y018388D01*
X013587Y018131D01*
X013187Y018788D02*
X013189Y018827D01*
X013195Y018865D01*
X013204Y018902D01*
X013217Y018939D01*
X013234Y018974D01*
X013253Y019007D01*
X013276Y019038D01*
X013302Y019067D01*
X013331Y019093D01*
X013362Y019116D01*
X013395Y019135D01*
X013430Y019152D01*
X013467Y019165D01*
X013504Y019174D01*
X013542Y019180D01*
X013581Y019182D01*
X013581Y019181D02*
X016193Y019181D01*
X016624Y018781D02*
X016663Y018783D01*
X016701Y018789D01*
X016738Y018798D01*
X016775Y018811D01*
X016810Y018828D01*
X016843Y018847D01*
X016874Y018870D01*
X016903Y018896D01*
X016587Y019575D02*
X016585Y019536D01*
X016579Y019498D01*
X016570Y019461D01*
X016557Y019424D01*
X016540Y019389D01*
X016521Y019356D01*
X016498Y019325D01*
X016472Y019296D01*
X016443Y019270D01*
X016412Y019247D01*
X016379Y019228D01*
X016344Y019211D01*
X016307Y019198D01*
X016270Y019189D01*
X016232Y019183D01*
X016193Y019181D01*
X016459Y017581D02*
X018387Y017581D01*
X018459Y016581D02*
X019937Y016581D01*
X019937Y016081D01*
X019959Y016081D01*
X019459Y015781D02*
X019459Y013075D01*
X019457Y013036D01*
X019451Y012998D01*
X019442Y012961D01*
X019429Y012924D01*
X019412Y012889D01*
X019393Y012856D01*
X019370Y012825D01*
X019344Y012796D01*
X019315Y012770D01*
X019284Y012747D01*
X019251Y012728D01*
X019216Y012711D01*
X019179Y012698D01*
X019142Y012689D01*
X019104Y012683D01*
X019065Y012681D01*
X018959Y012681D01*
X018581Y012181D02*
X018542Y012183D01*
X018504Y012189D01*
X018467Y012198D01*
X018430Y012211D01*
X018395Y012228D01*
X018362Y012247D01*
X018331Y012270D01*
X018302Y012296D01*
X018276Y012325D01*
X018253Y012356D01*
X018234Y012389D01*
X018217Y012424D01*
X018204Y012461D01*
X018195Y012498D01*
X018189Y012536D01*
X018187Y012575D01*
X018187Y013288D01*
X018185Y013327D01*
X018179Y013365D01*
X018170Y013402D01*
X018157Y013439D01*
X018140Y013474D01*
X018121Y013507D01*
X018098Y013538D01*
X018072Y013567D01*
X018043Y013593D01*
X018012Y013616D01*
X017979Y013635D01*
X017944Y013652D01*
X017907Y013665D01*
X017870Y013674D01*
X017832Y013680D01*
X017793Y013682D01*
X017793Y013681D02*
X015959Y013681D01*
X013981Y011781D02*
X013942Y011783D01*
X013904Y011789D01*
X013867Y011798D01*
X013830Y011811D01*
X013795Y011828D01*
X013762Y011847D01*
X013731Y011870D01*
X013702Y011896D01*
X013676Y011925D01*
X013653Y011956D01*
X013634Y011989D01*
X013617Y012024D01*
X013604Y012061D01*
X013595Y012098D01*
X013589Y012136D01*
X013587Y012175D01*
X013587Y013981D01*
X013187Y015181D02*
X013187Y017181D01*
X013187Y018788D01*
X013187Y017431D02*
X013187Y017181D01*
X014959Y015781D02*
X017459Y015781D01*
X019459Y015781D01*
X020587Y017618D02*
X020585Y017657D01*
X020579Y017695D01*
X020570Y017732D01*
X020557Y017769D01*
X020540Y017804D01*
X020521Y017837D01*
X020498Y017868D01*
X020472Y017897D01*
X020302Y018066D01*
X020187Y018344D02*
X020187Y020181D01*
X021187Y020181D02*
X021187Y011544D01*
X020702Y011265D02*
X020676Y011294D01*
X020653Y011325D01*
X020634Y011358D01*
X020617Y011393D01*
X020604Y011430D01*
X020595Y011467D01*
X020589Y011505D01*
X020587Y011544D01*
X020587Y017618D01*
X020302Y018065D02*
X020276Y018094D01*
X020253Y018125D01*
X020234Y018158D01*
X020217Y018193D01*
X020204Y018230D01*
X020195Y018267D01*
X020189Y018305D01*
X020187Y018344D01*
X022187Y016944D02*
X022187Y020181D01*
X023187Y020181D02*
X023187Y019344D01*
X023302Y019066D02*
X023472Y018897D01*
X023587Y018618D02*
X023587Y013544D01*
X023702Y013266D02*
X024387Y012581D01*
X024987Y013381D02*
X025072Y013466D01*
X025187Y013744D02*
X025187Y017818D01*
X025072Y018097D02*
X024687Y018181D01*
X025072Y018097D02*
X025098Y018068D01*
X025121Y018037D01*
X025140Y018004D01*
X025157Y017969D01*
X025170Y017932D01*
X025179Y017895D01*
X025185Y017857D01*
X025187Y017818D01*
X023587Y018618D02*
X023585Y018657D01*
X023579Y018695D01*
X023570Y018732D01*
X023557Y018769D01*
X023540Y018804D01*
X023521Y018837D01*
X023498Y018868D01*
X023472Y018897D01*
X023302Y019065D02*
X023276Y019094D01*
X023253Y019125D01*
X023234Y019158D01*
X023217Y019193D01*
X023204Y019230D01*
X023195Y019267D01*
X023189Y019305D01*
X023187Y019344D01*
X022187Y016944D02*
X022189Y016905D01*
X022195Y016867D01*
X022204Y016830D01*
X022217Y016793D01*
X022234Y016758D01*
X022253Y016725D01*
X022276Y016694D01*
X022302Y016665D01*
X022302Y016666D02*
X022472Y016497D01*
X022587Y016218D02*
X022587Y010944D01*
X022702Y010666D02*
X024872Y008497D01*
X025150Y008381D02*
X026187Y008381D01*
X025150Y008381D02*
X025111Y008383D01*
X025073Y008389D01*
X025036Y008398D01*
X024999Y008411D01*
X024964Y008428D01*
X024931Y008447D01*
X024900Y008470D01*
X024871Y008496D01*
X024150Y007981D02*
X024111Y007983D01*
X024073Y007989D01*
X024036Y007998D01*
X023999Y008011D01*
X023964Y008028D01*
X023931Y008047D01*
X023900Y008070D01*
X023871Y008096D01*
X023872Y008097D02*
X020702Y011266D01*
X020187Y010844D02*
X020189Y010805D01*
X020195Y010767D01*
X020204Y010730D01*
X020217Y010693D01*
X020234Y010658D01*
X020253Y010625D01*
X020276Y010594D01*
X020302Y010565D01*
X020302Y010566D02*
X021422Y009447D01*
X021537Y009168D02*
X021537Y005844D01*
X021535Y005805D01*
X021529Y005767D01*
X021520Y005730D01*
X021507Y005693D01*
X021490Y005658D01*
X021471Y005625D01*
X021448Y005594D01*
X021422Y005565D01*
X021422Y005566D02*
X021187Y005331D01*
X021187Y005181D01*
X020437Y004575D02*
X020437Y002431D01*
X020439Y002401D01*
X020444Y002371D01*
X020453Y002342D01*
X020466Y002315D01*
X020481Y002289D01*
X020500Y002265D01*
X020521Y002244D01*
X020545Y002225D01*
X020571Y002210D01*
X020598Y002197D01*
X020627Y002188D01*
X020657Y002183D01*
X020687Y002181D01*
X021187Y002575D02*
X021187Y003181D01*
X021187Y002575D02*
X021189Y002536D01*
X021195Y002498D01*
X021204Y002461D01*
X021217Y002424D01*
X021234Y002389D01*
X021253Y002356D01*
X021276Y002325D01*
X021302Y002296D01*
X021331Y002270D01*
X021362Y002247D01*
X021395Y002228D01*
X021430Y002211D01*
X021467Y002198D01*
X021504Y002189D01*
X021542Y002183D01*
X021581Y002181D01*
X021793Y002181D01*
X021793Y002182D02*
X021832Y002180D01*
X021870Y002174D01*
X021907Y002165D01*
X021944Y002152D01*
X021979Y002135D01*
X022012Y002116D01*
X022043Y002093D01*
X022072Y002067D01*
X022098Y002038D01*
X022121Y002007D01*
X022140Y001974D01*
X022157Y001939D01*
X022170Y001902D01*
X022179Y001865D01*
X022185Y001827D01*
X022187Y001788D01*
X022187Y001181D01*
X018187Y003181D02*
X018187Y006981D01*
X017950Y008981D02*
X020787Y008981D01*
X021537Y009168D02*
X021535Y009207D01*
X021529Y009245D01*
X021520Y009282D01*
X021507Y009319D01*
X021490Y009354D01*
X021471Y009387D01*
X021448Y009418D01*
X021422Y009447D01*
X019987Y009381D02*
X018156Y009381D01*
X017950Y008981D02*
X017911Y008983D01*
X017873Y008989D01*
X017836Y008998D01*
X017799Y009011D01*
X017764Y009028D01*
X017731Y009047D01*
X017700Y009070D01*
X017671Y009096D01*
X017672Y009097D02*
X017502Y009266D01*
X017709Y009667D02*
X017680Y009693D01*
X017649Y009716D01*
X017616Y009735D01*
X017581Y009752D01*
X017544Y009765D01*
X017507Y009774D01*
X017469Y009780D01*
X017430Y009782D01*
X017430Y009781D02*
X016437Y009781D01*
X016022Y010182D02*
X015983Y010180D01*
X015945Y010174D01*
X015908Y010165D01*
X015871Y010152D01*
X015836Y010135D01*
X015803Y010116D01*
X015772Y010093D01*
X015743Y010067D01*
X015743Y010066D02*
X015459Y009781D01*
X007587Y009781D01*
X007987Y008981D02*
X014687Y008981D01*
X016959Y008981D01*
X017224Y009382D02*
X017263Y009380D01*
X017301Y009374D01*
X017338Y009365D01*
X017375Y009352D01*
X017410Y009335D01*
X017443Y009316D01*
X017474Y009293D01*
X017503Y009267D01*
X017224Y009381D02*
X008587Y009381D01*
X009587Y008581D02*
X015487Y008581D01*
X016022Y010181D02*
X017824Y010181D01*
X017824Y010182D02*
X017863Y010180D01*
X017901Y010174D01*
X017938Y010165D01*
X017975Y010152D01*
X018010Y010135D01*
X018043Y010116D01*
X018074Y010093D01*
X018103Y010067D01*
X018307Y009981D02*
X019987Y009981D01*
X020187Y010844D02*
X020187Y011788D01*
X020185Y011827D01*
X020179Y011865D01*
X020170Y011902D01*
X020157Y011939D01*
X020140Y011974D01*
X020121Y012007D01*
X020098Y012038D01*
X020072Y012067D01*
X020043Y012093D01*
X020012Y012116D01*
X019979Y012135D01*
X019944Y012152D01*
X019907Y012165D01*
X019870Y012174D01*
X019832Y012180D01*
X019793Y012182D01*
X019793Y012181D02*
X018581Y012181D01*
X019459Y011781D02*
X017459Y011781D01*
X013981Y011781D01*
X017709Y009666D02*
X017878Y009497D01*
X017877Y009496D02*
X017906Y009470D01*
X017937Y009447D01*
X017970Y009428D01*
X018005Y009411D01*
X018042Y009398D01*
X018079Y009389D01*
X018117Y009383D01*
X018156Y009381D01*
X018307Y009982D02*
X018275Y009984D01*
X018243Y009989D01*
X018212Y009998D01*
X018182Y010011D01*
X018153Y010026D01*
X018127Y010045D01*
X018103Y010067D01*
X021302Y011266D02*
X023587Y008981D01*
X024150Y007981D02*
X028187Y007981D01*
X028187Y008375D02*
X027661Y008375D01*
X028187Y008375D02*
X028217Y008377D01*
X028247Y008382D01*
X028276Y008391D01*
X028303Y008404D01*
X028329Y008419D01*
X028353Y008438D01*
X028374Y008459D01*
X028393Y008483D01*
X028408Y008509D01*
X028421Y008536D01*
X028430Y008565D01*
X028435Y008595D01*
X028437Y008625D01*
X028437Y012231D01*
X025072Y013465D02*
X025098Y013494D01*
X025121Y013525D01*
X025140Y013558D01*
X025157Y013593D01*
X025170Y013630D01*
X025179Y013667D01*
X025185Y013705D01*
X025187Y013744D01*
X024787Y014181D02*
X024787Y016181D01*
X024187Y015981D02*
X024187Y013781D01*
X023587Y013544D02*
X023589Y013505D01*
X023595Y013467D01*
X023604Y013430D01*
X023617Y013393D01*
X023634Y013358D01*
X023653Y013325D01*
X023676Y013294D01*
X023702Y013265D01*
X023187Y011981D02*
X023187Y015981D01*
X022187Y015981D02*
X022187Y011581D01*
X021302Y011265D02*
X021276Y011294D01*
X021253Y011325D01*
X021234Y011358D01*
X021217Y011393D01*
X021204Y011430D01*
X021195Y011467D01*
X021189Y011505D01*
X021187Y011544D01*
X022587Y010944D02*
X022589Y010905D01*
X022595Y010867D01*
X022604Y010830D01*
X022617Y010793D01*
X022634Y010758D01*
X022653Y010725D01*
X022676Y010694D01*
X022702Y010665D01*
X022587Y016218D02*
X022585Y016257D01*
X022579Y016295D01*
X022570Y016332D01*
X022557Y016369D01*
X022540Y016404D01*
X022521Y016437D01*
X022498Y016468D01*
X022472Y016497D01*
X008687Y016831D02*
X008576Y016720D01*
X008297Y016605D02*
X006711Y016605D01*
X008297Y016604D02*
X008336Y016606D01*
X008374Y016612D01*
X008411Y016621D01*
X008448Y016634D01*
X008483Y016651D01*
X008516Y016670D01*
X008547Y016693D01*
X008576Y016719D01*
X008687Y019631D02*
X008687Y019754D01*
X008685Y019793D01*
X008679Y019831D01*
X008670Y019868D01*
X008657Y019905D01*
X008640Y019940D01*
X008621Y019973D01*
X008598Y020004D01*
X008572Y020033D01*
X008543Y020059D01*
X008512Y020082D01*
X008479Y020101D01*
X008444Y020118D01*
X008407Y020131D01*
X008370Y020140D01*
X008332Y020146D01*
X008293Y020148D01*
X006238Y020148D01*
X010237Y001981D02*
X017843Y001981D01*
D18*
X002567Y000561D02*
X002567Y016910D01*
X002647Y016849D01*
X002737Y016797D01*
X002833Y016757D01*
X002934Y016730D01*
X003009Y016720D01*
X003009Y017430D01*
X003169Y017430D01*
X003169Y017590D01*
X003878Y017590D01*
X003868Y017665D01*
X003842Y017766D01*
X003802Y017862D01*
X003750Y017952D01*
X003686Y018034D01*
X003613Y018108D01*
X003530Y018171D01*
X003440Y018223D01*
X003344Y018263D01*
X003244Y018290D01*
X003169Y018300D01*
X003169Y017590D01*
X003009Y017590D01*
X003009Y018300D01*
X002934Y018290D01*
X002833Y018263D01*
X002737Y018223D01*
X002647Y018171D01*
X002567Y018110D01*
X002567Y020801D01*
X011257Y020801D01*
X011197Y020742D01*
X011127Y020573D01*
X011127Y019790D01*
X011197Y019621D01*
X011326Y019491D01*
X011496Y019421D01*
X011679Y019421D01*
X011848Y019491D01*
X011977Y019621D01*
X012047Y019790D01*
X012047Y020573D01*
X011977Y020742D01*
X011918Y020801D01*
X012257Y020801D01*
X012197Y020742D01*
X012127Y020573D01*
X012127Y019790D01*
X012197Y019621D01*
X012326Y019491D01*
X012496Y019421D01*
X012679Y019421D01*
X012848Y019491D01*
X012977Y019621D01*
X013047Y019790D01*
X013047Y020573D01*
X012977Y020742D01*
X012918Y020801D01*
X013257Y020801D01*
X013197Y020742D01*
X013127Y020573D01*
X013127Y019790D01*
X013197Y019621D01*
X013326Y019491D01*
X013496Y019421D01*
X013679Y019421D01*
X013848Y019491D01*
X013977Y019621D01*
X014047Y019790D01*
X014047Y020573D01*
X013977Y020742D01*
X013918Y020801D01*
X014257Y020801D01*
X014197Y020742D01*
X014127Y020573D01*
X014127Y019790D01*
X014197Y019621D01*
X014326Y019491D01*
X014496Y019421D01*
X014679Y019421D01*
X014848Y019491D01*
X014977Y019621D01*
X015047Y019790D01*
X015047Y020573D01*
X014977Y020742D01*
X014918Y020801D01*
X015257Y020801D01*
X015197Y020742D01*
X015127Y020573D01*
X015127Y019790D01*
X015197Y019621D01*
X015326Y019491D01*
X015496Y019421D01*
X015679Y019421D01*
X015848Y019491D01*
X015977Y019621D01*
X016047Y019790D01*
X016047Y020573D01*
X015977Y020742D01*
X015918Y020801D01*
X016257Y020801D01*
X016197Y020742D01*
X016127Y020573D01*
X016127Y019790D01*
X016197Y019621D01*
X016326Y019491D01*
X016350Y019482D01*
X016346Y019473D01*
X016295Y019422D01*
X016229Y019395D01*
X016193Y019391D01*
X016121Y019391D01*
X016106Y019391D01*
X013494Y019391D01*
X013461Y019391D01*
X013239Y019299D01*
X013239Y019299D01*
X013069Y019130D01*
X013069Y019130D01*
X012977Y018908D01*
X012977Y018908D01*
X012977Y018875D01*
X012977Y018788D01*
X012977Y018701D01*
X012977Y017094D01*
X012977Y015481D01*
X012882Y015385D01*
X012827Y015253D01*
X012827Y015110D01*
X012882Y014977D01*
X012983Y014876D01*
X013115Y014821D01*
X013259Y014821D01*
X013391Y014876D01*
X013492Y014977D01*
X013547Y015110D01*
X013547Y015253D01*
X013492Y015385D01*
X013397Y015481D01*
X013397Y017094D01*
X013397Y017821D01*
X013515Y017771D01*
X013659Y017771D01*
X013791Y017826D01*
X013892Y017927D01*
X013947Y018060D01*
X013947Y018203D01*
X013892Y018335D01*
X013802Y018426D01*
X013828Y018490D01*
X013879Y018540D01*
X013945Y018568D01*
X013981Y018571D01*
X016537Y018571D01*
X016553Y018571D01*
X016711Y018571D01*
X016744Y018571D01*
X016966Y018663D01*
X016989Y018687D01*
X016989Y018687D01*
X017124Y018821D01*
X017259Y018821D01*
X017391Y018876D01*
X017492Y018977D01*
X017547Y019110D01*
X017547Y019253D01*
X017492Y019385D01*
X017428Y019449D01*
X017496Y019421D01*
X017679Y019421D01*
X017848Y019491D01*
X017977Y019621D01*
X018047Y019790D01*
X018047Y020573D01*
X017977Y020742D01*
X017918Y020801D01*
X018257Y020801D01*
X018197Y020742D01*
X018127Y020573D01*
X018127Y019790D01*
X018197Y019621D01*
X018326Y019491D01*
X018496Y019421D01*
X018679Y019421D01*
X018848Y019491D01*
X018977Y019621D01*
X019047Y019790D01*
X019047Y020573D01*
X018977Y020742D01*
X018918Y020801D01*
X019857Y020801D01*
X019797Y020742D01*
X019727Y020573D01*
X019727Y019790D01*
X019797Y019621D01*
X019926Y019491D01*
X019977Y019471D01*
X019977Y018431D01*
X019977Y018344D01*
X019977Y018224D01*
X020069Y018003D01*
X020069Y018003D01*
X020092Y017979D01*
X020165Y017907D01*
X020215Y017856D01*
X020323Y017748D01*
X020346Y017720D01*
X020374Y017654D01*
X020377Y017618D01*
X020377Y017552D01*
X020377Y017531D01*
X020377Y011956D01*
X020305Y012130D01*
X020135Y012299D01*
X019913Y012391D01*
X019880Y012391D01*
X019178Y012391D01*
X019264Y012477D01*
X019277Y012510D01*
X019407Y012563D01*
X019577Y012733D01*
X019669Y012955D01*
X019669Y012988D01*
X019669Y015482D01*
X019764Y015577D01*
X019819Y015710D01*
X019819Y015853D01*
X019764Y015985D01*
X019663Y016087D01*
X019530Y016141D01*
X019387Y016141D01*
X019255Y016087D01*
X019160Y015991D01*
X017758Y015991D01*
X017663Y016087D01*
X017530Y016141D01*
X017387Y016141D01*
X017255Y016087D01*
X017160Y015991D01*
X015258Y015991D01*
X015163Y016087D01*
X015030Y016141D01*
X014887Y016141D01*
X014755Y016087D01*
X014654Y015985D01*
X014599Y015853D01*
X014599Y015710D01*
X014654Y015577D01*
X014755Y015476D01*
X014887Y015421D01*
X015030Y015421D01*
X015163Y015476D01*
X015258Y015571D01*
X017160Y015571D01*
X017255Y015476D01*
X017387Y015421D01*
X017530Y015421D01*
X017663Y015476D01*
X017758Y015571D01*
X019160Y015571D01*
X019249Y015482D01*
X019249Y013075D01*
X019245Y013039D01*
X019218Y012973D01*
X019197Y012952D01*
X019163Y012987D01*
X019030Y013041D01*
X018887Y013041D01*
X018755Y012987D01*
X018654Y012885D01*
X018599Y012753D01*
X018599Y012610D01*
X018654Y012477D01*
X018740Y012391D01*
X018581Y012391D01*
X018545Y012395D01*
X018479Y012422D01*
X018428Y012473D01*
X018401Y012539D01*
X018397Y012575D01*
X018397Y013375D01*
X018397Y013408D01*
X018305Y013630D01*
X018135Y013799D01*
X017913Y013891D01*
X017880Y013891D01*
X016258Y013891D01*
X016163Y013987D01*
X016030Y014041D01*
X015887Y014041D01*
X015755Y013987D01*
X015654Y013885D01*
X015599Y013753D01*
X015599Y013610D01*
X015654Y013477D01*
X015755Y013376D01*
X015887Y013321D01*
X016030Y013321D01*
X016163Y013376D01*
X016258Y013471D01*
X017793Y013471D01*
X017829Y013468D01*
X017895Y013440D01*
X017946Y013390D01*
X017974Y013324D01*
X017977Y013288D01*
X017977Y012488D01*
X017977Y012455D01*
X018069Y012233D01*
X018239Y012063D01*
X018461Y011971D01*
X018494Y011971D01*
X019793Y011971D01*
X019829Y011968D01*
X019895Y011940D01*
X019946Y011890D01*
X019974Y011824D01*
X019977Y011788D01*
X019977Y010757D01*
X019977Y010724D01*
X020069Y010503D01*
X020069Y010503D01*
X020092Y010479D01*
X020130Y010442D01*
X020154Y010418D01*
X020215Y010356D01*
X020215Y010356D01*
X021273Y009298D01*
X021296Y009270D01*
X021324Y009204D01*
X021327Y009168D01*
X021327Y009081D01*
X021327Y005844D01*
X021324Y005809D01*
X021296Y005742D01*
X021273Y005715D01*
X021258Y005699D01*
X021212Y005653D01*
X021100Y005541D01*
X021089Y005531D01*
X020983Y005487D01*
X020882Y005385D01*
X020827Y005253D01*
X020827Y005110D01*
X020882Y004977D01*
X020983Y004876D01*
X021115Y004821D01*
X021259Y004821D01*
X021391Y004876D01*
X021492Y004977D01*
X021547Y005110D01*
X021547Y005253D01*
X021506Y005353D01*
X021509Y005356D01*
X021556Y005403D01*
X021570Y005418D01*
X021632Y005479D01*
X021655Y005503D01*
X021747Y005724D01*
X021747Y005724D01*
X021747Y005757D01*
X021747Y006054D01*
X021801Y005924D01*
X021929Y005795D01*
X022096Y005726D01*
X022278Y005726D01*
X022445Y005795D01*
X022573Y005924D01*
X022642Y006091D01*
X022642Y006272D01*
X022573Y006439D01*
X022445Y006567D01*
X022278Y006637D01*
X022096Y006637D01*
X021929Y006567D01*
X021801Y006439D01*
X021747Y006309D01*
X021747Y007054D01*
X021801Y006924D01*
X021929Y006795D01*
X022096Y006726D01*
X022278Y006726D01*
X022445Y006795D01*
X022573Y006924D01*
X022642Y007091D01*
X022642Y007272D01*
X022573Y007439D01*
X022445Y007567D01*
X022278Y007637D01*
X022096Y007637D01*
X021929Y007567D01*
X021801Y007439D01*
X021747Y007309D01*
X021747Y009081D01*
X021747Y009168D01*
X021747Y009255D01*
X021747Y009288D01*
X021655Y009510D01*
X021632Y009534D01*
X020512Y010653D01*
X020451Y010715D01*
X020428Y010742D01*
X020401Y010809D01*
X020397Y010844D01*
X020397Y011376D01*
X020469Y011203D01*
X020469Y011203D01*
X020492Y011179D01*
X020540Y011132D01*
X020554Y011118D01*
X020554Y011118D01*
X020615Y011056D01*
X020615Y011056D01*
X023662Y008010D01*
X023662Y008010D01*
X023723Y007948D01*
X023751Y007921D01*
X023785Y007887D01*
X023808Y007863D01*
X024030Y007771D01*
X024150Y007771D01*
X027888Y007771D01*
X027983Y007676D01*
X028088Y007633D01*
X027287Y007633D01*
X027278Y007637D02*
X027096Y007637D01*
X026929Y007567D01*
X026801Y007439D01*
X026732Y007272D01*
X026732Y007091D01*
X026801Y006924D01*
X026929Y006795D01*
X027096Y006726D01*
X027278Y006726D01*
X027445Y006795D01*
X027573Y006924D01*
X027642Y007091D01*
X027642Y007272D01*
X027573Y007439D01*
X027445Y007567D01*
X027278Y007637D01*
X027088Y007633D02*
X026287Y007633D01*
X026278Y007637D02*
X026096Y007637D01*
X025929Y007567D01*
X025801Y007439D01*
X025732Y007272D01*
X025732Y007091D01*
X025801Y006924D01*
X025929Y006795D01*
X026096Y006726D01*
X026278Y006726D01*
X026445Y006795D01*
X026573Y006924D01*
X026642Y007091D01*
X026642Y007272D01*
X026573Y007439D01*
X026445Y007567D01*
X026278Y007637D01*
X026088Y007633D02*
X025287Y007633D01*
X025278Y007637D02*
X025096Y007637D01*
X024929Y007567D01*
X024801Y007439D01*
X024732Y007272D01*
X024732Y007091D01*
X024801Y006924D01*
X024929Y006795D01*
X025096Y006726D01*
X025278Y006726D01*
X025445Y006795D01*
X025573Y006924D01*
X025642Y007091D01*
X025642Y007272D01*
X025573Y007439D01*
X025445Y007567D01*
X025278Y007637D01*
X025088Y007633D02*
X024287Y007633D01*
X024278Y007637D02*
X024096Y007637D01*
X023929Y007567D01*
X023801Y007439D01*
X023732Y007272D01*
X023732Y007091D01*
X023801Y006924D01*
X023929Y006795D01*
X024096Y006726D01*
X024278Y006726D01*
X024445Y006795D01*
X024573Y006924D01*
X024642Y007091D01*
X024642Y007272D01*
X024573Y007439D01*
X024445Y007567D01*
X024278Y007637D01*
X024088Y007633D02*
X023287Y007633D01*
X023278Y007637D02*
X023096Y007637D01*
X022929Y007567D01*
X022801Y007439D01*
X022732Y007272D01*
X022732Y007091D01*
X022801Y006924D01*
X022929Y006795D01*
X023096Y006726D01*
X023278Y006726D01*
X023445Y006795D01*
X023573Y006924D01*
X023642Y007091D01*
X023642Y007272D01*
X023573Y007439D01*
X023445Y007567D01*
X023278Y007637D01*
X023088Y007633D02*
X022287Y007633D01*
X022088Y007633D02*
X021747Y007633D01*
X021747Y007791D02*
X023982Y007791D01*
X024030Y007771D02*
X024030Y007771D01*
X023808Y007863D02*
X023808Y007863D01*
X023785Y007887D02*
X023785Y007887D01*
X023721Y007950D02*
X021747Y007950D01*
X021747Y008109D02*
X023563Y008109D01*
X023404Y008267D02*
X021747Y008267D01*
X021747Y008426D02*
X023246Y008426D01*
X023087Y008584D02*
X021747Y008584D01*
X021747Y008743D02*
X022929Y008743D01*
X022770Y008901D02*
X021747Y008901D01*
X021747Y009060D02*
X022612Y009060D01*
X022453Y009218D02*
X021747Y009218D01*
X021710Y009377D02*
X022295Y009377D01*
X022136Y009535D02*
X021630Y009535D01*
X021632Y009534D02*
X021632Y009534D01*
X021471Y009694D02*
X021978Y009694D01*
X021819Y009853D02*
X021313Y009853D01*
X021154Y010011D02*
X021660Y010011D01*
X021502Y010170D02*
X020996Y010170D01*
X020837Y010328D02*
X021343Y010328D01*
X021185Y010487D02*
X020679Y010487D01*
X020520Y010645D02*
X021026Y010645D01*
X020868Y010804D02*
X020403Y010804D01*
X020397Y010962D02*
X020709Y010962D01*
X020551Y011121D02*
X020397Y011121D01*
X020492Y011179D02*
X020492Y011179D01*
X020437Y011279D02*
X020397Y011279D01*
X019977Y011279D02*
X005888Y011279D01*
X005881Y011261D02*
X005975Y011488D01*
X005975Y011733D01*
X005881Y011960D01*
X005707Y012133D01*
X005481Y012227D01*
X005236Y012227D01*
X005009Y012133D01*
X004836Y011960D01*
X004742Y011733D01*
X004742Y011488D01*
X004836Y011261D01*
X005009Y011088D01*
X005236Y010994D01*
X005481Y010994D01*
X005707Y011088D01*
X005881Y011261D01*
X005954Y011438D02*
X019977Y011438D01*
X019977Y011597D02*
X005975Y011597D01*
X005965Y011755D02*
X019977Y011755D01*
X019922Y011914D02*
X005900Y011914D01*
X005768Y012072D02*
X018230Y012072D01*
X018239Y012063D02*
X018239Y012063D01*
X018071Y012231D02*
X002567Y012231D01*
X002567Y012389D02*
X014970Y012389D01*
X014983Y012376D02*
X015115Y012321D01*
X015259Y012321D01*
X015391Y012376D01*
X015492Y012477D01*
X015547Y012610D01*
X015547Y012753D01*
X015492Y012885D01*
X015391Y012987D01*
X015259Y013041D01*
X015115Y013041D01*
X014983Y012987D01*
X014882Y012885D01*
X014827Y012753D01*
X014827Y012610D01*
X014882Y012477D01*
X014983Y012376D01*
X014853Y012548D02*
X002567Y012548D01*
X002567Y012706D02*
X014827Y012706D01*
X014873Y012865D02*
X002567Y012865D01*
X002567Y013023D02*
X015072Y013023D01*
X015302Y013023D02*
X017977Y013023D01*
X017977Y012865D02*
X015501Y012865D01*
X015547Y012706D02*
X017977Y012706D01*
X017977Y012548D02*
X015521Y012548D01*
X015404Y012389D02*
X018004Y012389D01*
X017977Y012455D02*
X017977Y012455D01*
X018069Y012233D02*
X018069Y012233D01*
X018461Y011971D02*
X018461Y011971D01*
X018400Y012548D02*
X018624Y012548D01*
X018599Y012706D02*
X018397Y012706D01*
X018397Y012865D02*
X018645Y012865D01*
X018844Y013023D02*
X018397Y013023D01*
X018397Y013182D02*
X019249Y013182D01*
X019249Y013341D02*
X018397Y013341D01*
X018397Y013408D02*
X018397Y013408D01*
X018359Y013499D02*
X019249Y013499D01*
X019249Y013658D02*
X018277Y013658D01*
X018305Y013630D02*
X018305Y013630D01*
X018135Y013799D02*
X018135Y013799D01*
X018095Y013816D02*
X019249Y013816D01*
X019249Y013975D02*
X016175Y013975D01*
X015743Y013975D02*
X002567Y013975D01*
X002567Y014133D02*
X019249Y014133D01*
X019249Y014292D02*
X002567Y014292D01*
X002567Y014450D02*
X019249Y014450D01*
X019249Y014609D02*
X002567Y014609D01*
X002567Y014767D02*
X019249Y014767D01*
X019249Y014926D02*
X013441Y014926D01*
X013537Y015084D02*
X019249Y015084D01*
X019249Y015243D02*
X013547Y015243D01*
X013476Y015402D02*
X019249Y015402D01*
X019171Y015560D02*
X017747Y015560D01*
X017713Y016036D02*
X019204Y016036D01*
X019713Y016036D02*
X020377Y016036D01*
X020377Y016194D02*
X013397Y016194D01*
X013397Y016036D02*
X014704Y016036D01*
X014609Y015877D02*
X013397Y015877D01*
X013397Y015719D02*
X014599Y015719D01*
X014671Y015560D02*
X013397Y015560D01*
X012977Y015560D02*
X002567Y015560D01*
X002567Y015402D02*
X012898Y015402D01*
X012827Y015243D02*
X002567Y015243D01*
X002567Y015084D02*
X012838Y015084D01*
X012933Y014926D02*
X002567Y014926D01*
X002567Y015719D02*
X012977Y015719D01*
X012977Y015877D02*
X002567Y015877D01*
X002567Y016036D02*
X006509Y016036D01*
X006591Y016002D02*
X006831Y016002D01*
X007052Y016094D01*
X007222Y016263D01*
X007276Y016395D01*
X008210Y016395D01*
X008231Y016395D01*
X008384Y016395D01*
X008417Y016395D01*
X008417Y016395D01*
X008442Y016405D01*
X008490Y016356D01*
X008884Y016356D01*
X009162Y016635D01*
X009162Y017028D01*
X008884Y017306D01*
X008490Y017306D01*
X008212Y017028D01*
X008212Y016815D01*
X008210Y016815D01*
X007276Y016815D01*
X007222Y016946D01*
X007052Y017116D01*
X006831Y017208D01*
X006591Y017208D01*
X006589Y017207D01*
X006618Y017278D01*
X006618Y017585D01*
X006500Y017869D01*
X006283Y018087D01*
X005998Y018205D01*
X005691Y018205D01*
X005406Y018087D01*
X005189Y017869D01*
X005071Y017585D01*
X005071Y017278D01*
X005189Y016993D01*
X005406Y016776D01*
X005691Y016658D01*
X005998Y016658D01*
X006108Y016703D01*
X006108Y016485D01*
X006200Y016263D01*
X006369Y016094D01*
X006591Y016002D01*
X006913Y016036D02*
X012977Y016036D01*
X012977Y016194D02*
X007153Y016194D01*
X007259Y016353D02*
X012977Y016353D01*
X012977Y016511D02*
X010039Y016511D01*
X010090Y016562D02*
X010162Y016737D01*
X010162Y016926D01*
X010090Y017100D01*
X009956Y017234D01*
X009782Y017306D01*
X009593Y017306D01*
X009418Y017234D01*
X009284Y017100D01*
X009212Y016926D01*
X009212Y016737D01*
X009284Y016562D01*
X009418Y016429D01*
X009593Y016356D01*
X009782Y016356D01*
X009956Y016429D01*
X010090Y016562D01*
X010134Y016670D02*
X012977Y016670D01*
X012977Y016828D02*
X010162Y016828D01*
X010137Y016987D02*
X012977Y016987D01*
X012977Y017146D02*
X010045Y017146D01*
X009787Y017304D02*
X012977Y017304D01*
X012977Y017463D02*
X006618Y017463D01*
X006603Y017621D02*
X012977Y017621D01*
X012977Y017780D02*
X006537Y017780D01*
X006431Y017938D02*
X012977Y017938D01*
X012977Y018097D02*
X006259Y018097D01*
X005430Y018097D02*
X003624Y018097D01*
X003758Y017938D02*
X005258Y017938D01*
X005152Y017780D02*
X003836Y017780D01*
X003874Y017621D02*
X005086Y017621D01*
X005071Y017463D02*
X003169Y017463D01*
X003169Y017430D02*
X003878Y017430D01*
X003868Y017355D01*
X003842Y017255D01*
X003802Y017158D01*
X003750Y017068D01*
X003686Y016986D01*
X003613Y016912D01*
X003530Y016849D01*
X003440Y016797D01*
X003344Y016757D01*
X003244Y016730D01*
X003169Y016720D01*
X003169Y017430D01*
X003169Y017304D02*
X003009Y017304D01*
X003009Y017146D02*
X003169Y017146D01*
X003169Y016987D02*
X003009Y016987D01*
X003009Y016828D02*
X003169Y016828D01*
X003495Y016828D02*
X005354Y016828D01*
X005195Y016987D02*
X003687Y016987D01*
X003794Y017146D02*
X005126Y017146D01*
X005071Y017304D02*
X003855Y017304D01*
X003169Y017621D02*
X003009Y017621D01*
X003009Y017780D02*
X003169Y017780D01*
X003169Y017938D02*
X003009Y017938D01*
X003009Y018097D02*
X003169Y018097D01*
X003169Y018255D02*
X003009Y018255D01*
X002815Y018255D02*
X002567Y018255D01*
X002567Y018414D02*
X012977Y018414D01*
X012977Y018572D02*
X002567Y018572D01*
X002567Y018731D02*
X012977Y018731D01*
X012977Y018890D02*
X002567Y018890D01*
X002567Y019048D02*
X013035Y019048D01*
X013146Y019207D02*
X009903Y019207D01*
X009956Y019229D02*
X010090Y019362D01*
X010162Y019537D01*
X010162Y019726D01*
X010090Y019900D01*
X009956Y020034D01*
X009782Y020106D01*
X009593Y020106D01*
X009418Y020034D01*
X009284Y019900D01*
X009212Y019726D01*
X009212Y019537D01*
X009284Y019362D01*
X009418Y019229D01*
X009593Y019156D01*
X009782Y019156D01*
X009956Y019229D01*
X010091Y019365D02*
X013397Y019365D01*
X013461Y019391D02*
X013461Y019391D01*
X013294Y019524D02*
X012880Y019524D01*
X013002Y019682D02*
X013172Y019682D01*
X013127Y019841D02*
X013047Y019841D01*
X013047Y019999D02*
X013127Y019999D01*
X013127Y020158D02*
X013047Y020158D01*
X013047Y020316D02*
X013127Y020316D01*
X013127Y020475D02*
X013047Y020475D01*
X013022Y020634D02*
X013152Y020634D01*
X013247Y020792D02*
X012927Y020792D01*
X012247Y020792D02*
X011927Y020792D01*
X012022Y020634D02*
X012152Y020634D01*
X012127Y020475D02*
X012047Y020475D01*
X012047Y020316D02*
X012127Y020316D01*
X012127Y020158D02*
X012047Y020158D01*
X012047Y019999D02*
X012127Y019999D01*
X012127Y019841D02*
X012047Y019841D01*
X012002Y019682D02*
X012172Y019682D01*
X012294Y019524D02*
X011880Y019524D01*
X011294Y019524D02*
X010157Y019524D01*
X010162Y019682D02*
X011172Y019682D01*
X011127Y019841D02*
X010114Y019841D01*
X009991Y019999D02*
X011127Y019999D01*
X011127Y020158D02*
X008743Y020158D01*
X008795Y020106D02*
X008635Y020266D01*
X008413Y020358D01*
X008293Y020358D01*
X008206Y020358D01*
X006804Y020358D01*
X006749Y020489D01*
X006580Y020659D01*
X006358Y020751D01*
X006118Y020751D01*
X005897Y020659D01*
X005727Y020489D01*
X005635Y020268D01*
X005635Y020028D01*
X005727Y019806D01*
X005897Y019637D01*
X006118Y019545D01*
X006358Y019545D01*
X006580Y019637D01*
X006749Y019806D01*
X006804Y019938D01*
X008206Y019938D01*
X008293Y019938D01*
X008319Y019935D01*
X008212Y019828D01*
X008212Y019435D01*
X008490Y019156D01*
X008884Y019156D01*
X009162Y019435D01*
X009162Y019828D01*
X008884Y020106D01*
X008795Y020106D01*
X008991Y019999D02*
X009383Y019999D01*
X009260Y019841D02*
X009149Y019841D01*
X009162Y019682D02*
X009212Y019682D01*
X009218Y019524D02*
X009162Y019524D01*
X009093Y019365D02*
X009283Y019365D01*
X009471Y019207D02*
X008934Y019207D01*
X008440Y019207D02*
X002567Y019207D01*
X002567Y019365D02*
X008282Y019365D01*
X008212Y019524D02*
X002567Y019524D01*
X002567Y019682D02*
X005851Y019682D01*
X005713Y019841D02*
X002567Y019841D01*
X002567Y019999D02*
X005647Y019999D01*
X005635Y020158D02*
X002567Y020158D01*
X002567Y020316D02*
X005655Y020316D01*
X005721Y020475D02*
X002567Y020475D01*
X002567Y020634D02*
X005871Y020634D01*
X006605Y020634D02*
X011152Y020634D01*
X011127Y020475D02*
X006755Y020475D01*
X006764Y019841D02*
X008225Y019841D01*
X008212Y019682D02*
X006625Y019682D01*
X008413Y020358D02*
X008413Y020358D01*
X008514Y020316D02*
X011127Y020316D01*
X011247Y020792D02*
X002567Y020792D01*
X003363Y018255D02*
X012977Y018255D01*
X013397Y017780D02*
X013495Y017780D01*
X013679Y017780D02*
X020292Y017780D01*
X020377Y017621D02*
X013397Y017621D01*
X013397Y017463D02*
X020377Y017463D01*
X020377Y017304D02*
X013397Y017304D01*
X013397Y017146D02*
X020377Y017146D01*
X020377Y016987D02*
X013397Y016987D01*
X013397Y016828D02*
X020377Y016828D01*
X020377Y016670D02*
X013397Y016670D01*
X013397Y016511D02*
X020377Y016511D01*
X020377Y016353D02*
X013397Y016353D01*
X015213Y016036D02*
X017204Y016036D01*
X017171Y015560D02*
X015247Y015560D01*
X015625Y013816D02*
X002567Y013816D01*
X002567Y013658D02*
X015599Y013658D01*
X015645Y013499D02*
X002567Y013499D01*
X002567Y013341D02*
X015841Y013341D01*
X016076Y013341D02*
X017966Y013341D01*
X017977Y013182D02*
X002567Y013182D01*
X002567Y012072D02*
X004949Y012072D01*
X004817Y011914D02*
X002567Y011914D01*
X002567Y011755D02*
X004751Y011755D01*
X004742Y011597D02*
X002567Y011597D01*
X002567Y011438D02*
X004763Y011438D01*
X004828Y011279D02*
X002567Y011279D01*
X002567Y011121D02*
X004976Y011121D01*
X005740Y011121D02*
X019977Y011121D01*
X019977Y010962D02*
X002567Y010962D01*
X002567Y010804D02*
X019977Y010804D01*
X019977Y010724D02*
X019977Y010724D01*
X020010Y010645D02*
X002567Y010645D01*
X002567Y010487D02*
X020085Y010487D01*
X020092Y010479D02*
X020092Y010479D01*
X020059Y010341D02*
X019915Y010341D01*
X019783Y010287D01*
X019688Y010191D01*
X018307Y010191D01*
X018291Y010193D01*
X018263Y010205D01*
X018251Y010215D01*
X018189Y010276D01*
X018166Y010299D01*
X017944Y010391D01*
X017824Y010391D01*
X017737Y010391D01*
X016109Y010391D01*
X016022Y010391D01*
X015902Y010391D01*
X015680Y010299D01*
X015656Y010276D01*
X015578Y010198D01*
X015533Y010153D01*
X015522Y010141D01*
X015387Y010141D01*
X015255Y010087D01*
X015160Y009991D01*
X007886Y009991D01*
X007791Y010087D01*
X007659Y010141D01*
X007515Y010141D01*
X007383Y010087D01*
X007282Y009985D01*
X007227Y009853D01*
X007227Y009710D01*
X007282Y009577D01*
X007383Y009476D01*
X007515Y009421D01*
X007659Y009421D01*
X007791Y009476D01*
X007886Y009571D01*
X008276Y009571D01*
X008227Y009453D01*
X008227Y009310D01*
X008269Y009208D01*
X008191Y009287D01*
X008059Y009341D01*
X007915Y009341D01*
X007783Y009287D01*
X007682Y009185D01*
X007627Y009053D01*
X007627Y008910D01*
X007682Y008777D01*
X007783Y008676D01*
X007915Y008621D01*
X008059Y008621D01*
X008191Y008676D01*
X008286Y008771D01*
X009276Y008771D01*
X009227Y008653D01*
X009227Y008510D01*
X009282Y008377D01*
X009383Y008276D01*
X009515Y008221D01*
X009659Y008221D01*
X009791Y008276D01*
X009886Y008371D01*
X015188Y008371D01*
X015283Y008276D01*
X015415Y008221D01*
X015559Y008221D01*
X015691Y008276D01*
X015792Y008377D01*
X015847Y008510D01*
X015847Y008653D01*
X015798Y008771D01*
X016660Y008771D01*
X016755Y008676D01*
X016887Y008621D01*
X017030Y008621D01*
X017163Y008676D01*
X017264Y008777D01*
X017319Y008910D01*
X017319Y009053D01*
X017273Y009162D01*
X017326Y009140D01*
X017354Y009118D01*
X017403Y009069D01*
X017415Y009056D01*
X017585Y008887D01*
X017608Y008863D01*
X017830Y008771D01*
X017863Y008771D01*
X017950Y008771D01*
X018037Y008771D01*
X020488Y008771D01*
X020583Y008676D01*
X020715Y008621D01*
X020859Y008621D01*
X020991Y008676D01*
X021092Y008777D01*
X021147Y008910D01*
X021147Y009053D01*
X021092Y009185D01*
X020991Y009287D01*
X020859Y009341D01*
X020715Y009341D01*
X020583Y009287D01*
X020488Y009191D01*
X020298Y009191D01*
X020347Y009310D01*
X020347Y009453D01*
X020292Y009585D01*
X020196Y009681D01*
X020292Y009777D01*
X020347Y009910D01*
X020347Y010053D01*
X020292Y010185D01*
X020191Y010287D01*
X020059Y010341D01*
X020091Y010328D02*
X020243Y010328D01*
X020299Y010170D02*
X020402Y010170D01*
X020347Y010011D02*
X020560Y010011D01*
X020719Y009853D02*
X020323Y009853D01*
X020209Y009694D02*
X020878Y009694D01*
X021036Y009535D02*
X020313Y009535D01*
X020347Y009377D02*
X021195Y009377D01*
X021318Y009218D02*
X021059Y009218D01*
X021144Y009060D02*
X021327Y009060D01*
X021327Y009168D02*
X021327Y009168D01*
X021327Y008901D02*
X021144Y008901D01*
X021058Y008743D02*
X021327Y008743D01*
X021327Y008584D02*
X015847Y008584D01*
X015812Y008426D02*
X021327Y008426D01*
X021327Y008267D02*
X015669Y008267D01*
X015305Y008267D02*
X009769Y008267D01*
X009405Y008267D02*
X002567Y008267D01*
X002567Y008109D02*
X021327Y008109D01*
X021327Y007950D02*
X002567Y007950D01*
X002567Y007791D02*
X021327Y007791D01*
X021327Y007633D02*
X002567Y007633D01*
X002567Y007474D02*
X021327Y007474D01*
X021327Y007316D02*
X002567Y007316D01*
X002567Y007157D02*
X021327Y007157D01*
X021327Y006999D02*
X002567Y006999D01*
X002567Y006840D02*
X021327Y006840D01*
X021327Y006682D02*
X002567Y006682D01*
X002567Y006523D02*
X021327Y006523D01*
X021327Y006365D02*
X002567Y006365D01*
X002567Y006206D02*
X021327Y006206D01*
X021327Y006048D02*
X012971Y006048D01*
X012878Y006141D02*
X012497Y006141D01*
X012227Y005872D01*
X012227Y005491D01*
X012497Y005221D01*
X012878Y005221D01*
X013147Y005491D01*
X013147Y005872D01*
X012878Y006141D01*
X013130Y005889D02*
X021327Y005889D01*
X021286Y005730D02*
X013147Y005730D01*
X013147Y005572D02*
X021131Y005572D01*
X021100Y005541D02*
X021100Y005541D01*
X020910Y005413D02*
X013070Y005413D01*
X012911Y005255D02*
X020828Y005255D01*
X020833Y005096D02*
X012923Y005096D01*
X012878Y005141D02*
X012497Y005141D01*
X012227Y004872D01*
X012227Y004491D01*
X012497Y004221D01*
X012878Y004221D01*
X013147Y004491D01*
X013147Y004872D01*
X012878Y005141D01*
X013081Y004938D02*
X020922Y004938D01*
X020742Y004779D02*
X020641Y004880D01*
X020509Y004935D01*
X020365Y004935D01*
X020233Y004880D01*
X020132Y004779D01*
X020077Y004647D01*
X020077Y004503D01*
X020132Y004371D01*
X020227Y004276D01*
X020227Y002344D01*
X020227Y002308D01*
X020327Y002135D01*
X020327Y002110D01*
X020382Y001977D01*
X020483Y001876D01*
X020615Y001821D01*
X020759Y001821D01*
X020891Y001876D01*
X020992Y001977D01*
X021047Y002110D01*
X021047Y002253D01*
X020992Y002385D01*
X020891Y002487D01*
X020759Y002541D01*
X020647Y002541D01*
X020647Y004276D01*
X020742Y004371D01*
X020797Y004503D01*
X020797Y004647D01*
X020742Y004779D01*
X021968Y004779D01*
X021929Y004795D02*
X022096Y004726D01*
X022278Y004726D01*
X022445Y004795D01*
X022573Y004924D01*
X022642Y005091D01*
X022642Y005272D01*
X022573Y005439D01*
X022445Y005567D01*
X022278Y005637D01*
X022096Y005637D01*
X021929Y005567D01*
X021801Y005439D01*
X021732Y005272D01*
X021732Y005091D01*
X021801Y004924D01*
X021929Y004795D01*
X021795Y004938D02*
X021452Y004938D01*
X021541Y005096D02*
X021732Y005096D01*
X021732Y005255D02*
X021546Y005255D01*
X021566Y005413D02*
X021790Y005413D01*
X021655Y005503D02*
X021655Y005503D01*
X021632Y005479D02*
X021632Y005479D01*
X021570Y005418D02*
X021570Y005418D01*
X021570Y005418D01*
X021684Y005572D02*
X021940Y005572D01*
X022086Y005730D02*
X021747Y005730D01*
X021747Y005889D02*
X021836Y005889D01*
X021750Y006048D02*
X021747Y006048D01*
X021747Y006365D02*
X021770Y006365D01*
X021747Y006523D02*
X021885Y006523D01*
X021747Y006682D02*
X028807Y006682D01*
X028807Y006840D02*
X028490Y006840D01*
X028445Y006795D02*
X028573Y006924D01*
X028642Y007091D01*
X028642Y007272D01*
X028573Y007439D01*
X028445Y007567D01*
X028286Y007633D01*
X028807Y007633D01*
X028807Y007791D02*
X028498Y007791D01*
X028492Y007777D02*
X028547Y007910D01*
X028547Y008053D01*
X028492Y008185D01*
X028391Y008287D01*
X028259Y008341D01*
X028115Y008341D01*
X027983Y008287D01*
X027888Y008191D01*
X026498Y008191D01*
X026547Y008310D01*
X026547Y008453D01*
X026492Y008585D01*
X026391Y008687D01*
X026259Y008741D01*
X026115Y008741D01*
X025983Y008687D01*
X025888Y008591D01*
X025150Y008591D01*
X025114Y008595D01*
X025048Y008622D01*
X025020Y008645D01*
X024968Y008698D01*
X024959Y008707D01*
X022851Y010815D01*
X022828Y010842D01*
X022801Y010909D01*
X022797Y010944D01*
X022797Y011016D01*
X022797Y011031D01*
X022797Y016305D01*
X022797Y016338D01*
X022797Y016338D01*
X022705Y016560D01*
X022705Y016560D01*
X022682Y016584D01*
X022451Y016815D01*
X022428Y016842D01*
X022401Y016909D01*
X022397Y016944D01*
X022397Y017031D01*
X022397Y019471D01*
X022448Y019491D01*
X022577Y019621D01*
X022647Y019790D01*
X022647Y020573D01*
X022577Y020742D01*
X022518Y020801D01*
X022857Y020801D01*
X022797Y020742D01*
X022727Y020573D01*
X022727Y019790D01*
X022797Y019621D01*
X022926Y019491D01*
X022977Y019471D01*
X022977Y019257D01*
X022977Y019224D01*
X023069Y019003D01*
X023069Y019003D01*
X023092Y018979D01*
X023153Y018919D01*
X023154Y018918D01*
X023154Y018918D01*
X023215Y018856D01*
X023215Y018856D01*
X023323Y018748D01*
X023346Y018720D01*
X023374Y018654D01*
X023377Y018618D01*
X023377Y018531D01*
X023377Y016292D01*
X023259Y016341D01*
X023115Y016341D01*
X022983Y016287D01*
X022882Y016185D01*
X022827Y016053D01*
X022827Y015910D01*
X022882Y015777D01*
X022977Y015682D01*
X022977Y012281D01*
X022882Y012185D01*
X022827Y012053D01*
X022827Y011910D01*
X022882Y011777D01*
X022983Y011676D01*
X023115Y011621D01*
X023259Y011621D01*
X023391Y011676D01*
X023492Y011777D01*
X023547Y011910D01*
X023547Y012053D01*
X023492Y012185D01*
X023397Y012281D01*
X023397Y013376D01*
X023469Y013203D01*
X023492Y013179D01*
X024027Y012644D01*
X024027Y012510D01*
X024082Y012377D01*
X024183Y012276D01*
X024315Y012221D01*
X024459Y012221D01*
X024591Y012276D01*
X024692Y012377D01*
X024747Y012510D01*
X024747Y012653D01*
X024692Y012785D01*
X024591Y012887D01*
X024459Y012941D01*
X024324Y012941D01*
X023851Y013415D01*
X023828Y013442D01*
X023801Y013509D01*
X023797Y013544D01*
X023797Y013631D01*
X023797Y018531D01*
X023797Y018618D01*
X023797Y018738D01*
X023797Y018738D01*
X023705Y018960D01*
X023705Y018960D01*
X023682Y018984D01*
X023512Y019153D01*
X023451Y019215D01*
X023428Y019242D01*
X023401Y019309D01*
X023397Y019344D01*
X023397Y019471D01*
X023448Y019491D01*
X023577Y019621D01*
X023647Y019790D01*
X023647Y020573D01*
X023577Y020742D01*
X023518Y020801D01*
X023857Y020801D01*
X023797Y020742D01*
X023727Y020573D01*
X023727Y019790D01*
X023797Y019621D01*
X023926Y019491D01*
X024096Y019421D01*
X024279Y019421D01*
X024448Y019491D01*
X024577Y019621D01*
X024647Y019790D01*
X024647Y020573D01*
X024577Y020742D01*
X024518Y020801D01*
X024857Y020801D01*
X024797Y020742D01*
X024727Y020573D01*
X024727Y019790D01*
X024797Y019621D01*
X024926Y019491D01*
X025096Y019421D01*
X025279Y019421D01*
X025448Y019491D01*
X025577Y019621D01*
X025647Y019790D01*
X025647Y020573D01*
X025577Y020742D01*
X025518Y020801D01*
X025857Y020801D01*
X025797Y020742D01*
X025727Y020573D01*
X025727Y019790D01*
X025797Y019621D01*
X025926Y019491D01*
X026096Y019421D01*
X026279Y019421D01*
X026448Y019491D01*
X026577Y019621D01*
X026647Y019790D01*
X026647Y020573D01*
X026577Y020742D01*
X026518Y020801D01*
X026857Y020801D01*
X026797Y020742D01*
X026727Y020573D01*
X026727Y019790D01*
X026797Y019621D01*
X026926Y019491D01*
X027096Y019421D01*
X027279Y019421D01*
X027448Y019491D01*
X027577Y019621D01*
X027647Y019790D01*
X027647Y020573D01*
X027639Y020592D01*
X027807Y020424D01*
X027807Y016006D01*
X027865Y015866D01*
X027972Y015759D01*
X028807Y014924D01*
X028807Y002339D01*
X027972Y001504D01*
X027865Y001397D01*
X027807Y001257D01*
X027807Y000561D01*
X027518Y000561D01*
X027577Y000621D01*
X027647Y000790D01*
X027647Y001573D01*
X027577Y001742D01*
X027448Y001871D01*
X027279Y001941D01*
X027096Y001941D01*
X026926Y001871D01*
X026797Y001742D01*
X026727Y001573D01*
X026727Y000790D01*
X026797Y000621D01*
X026857Y000561D01*
X026518Y000561D01*
X026577Y000621D01*
X026647Y000790D01*
X026647Y001573D01*
X026577Y001742D01*
X026448Y001871D01*
X026279Y001941D01*
X026096Y001941D01*
X025926Y001871D01*
X025797Y001742D01*
X025727Y001573D01*
X025727Y000790D01*
X025797Y000621D01*
X025857Y000561D01*
X025518Y000561D01*
X025577Y000621D01*
X025647Y000790D01*
X025647Y001573D01*
X025577Y001742D01*
X025448Y001871D01*
X025279Y001941D01*
X025096Y001941D01*
X024926Y001871D01*
X024797Y001742D01*
X024727Y001573D01*
X024727Y000790D01*
X024797Y000621D01*
X024857Y000561D01*
X024518Y000561D01*
X024577Y000621D01*
X024647Y000790D01*
X024647Y001573D01*
X024577Y001742D01*
X024448Y001871D01*
X024279Y001941D01*
X024096Y001941D01*
X023926Y001871D01*
X023797Y001742D01*
X023727Y001573D01*
X023727Y000790D01*
X023797Y000621D01*
X023857Y000561D01*
X023518Y000561D01*
X023577Y000621D01*
X023647Y000790D01*
X023647Y001573D01*
X023577Y001742D01*
X023448Y001871D01*
X023279Y001941D01*
X023096Y001941D01*
X022926Y001871D01*
X022797Y001742D01*
X022727Y001573D01*
X022727Y000790D01*
X022797Y000621D01*
X022857Y000561D01*
X022518Y000561D01*
X022577Y000621D01*
X022647Y000790D01*
X022647Y001573D01*
X022577Y001742D01*
X022448Y001871D01*
X022397Y001892D01*
X022397Y001908D01*
X022305Y002130D01*
X022135Y002299D01*
X021913Y002391D01*
X021880Y002391D01*
X021668Y002391D01*
X021581Y002391D01*
X021545Y002395D01*
X021479Y002422D01*
X021428Y002473D01*
X021401Y002539D01*
X021397Y002575D01*
X021397Y002882D01*
X021492Y002977D01*
X021547Y003110D01*
X021547Y003253D01*
X021492Y003385D01*
X021391Y003487D01*
X021259Y003541D01*
X021115Y003541D01*
X020983Y003487D01*
X020882Y003385D01*
X020827Y003253D01*
X020827Y003110D01*
X020882Y002977D01*
X020977Y002882D01*
X020977Y002488D01*
X020977Y002455D01*
X021069Y002233D01*
X021239Y002063D01*
X021461Y001971D01*
X021581Y001971D01*
X021668Y001971D01*
X021793Y001971D01*
X021829Y001968D01*
X021895Y001940D01*
X021946Y001890D01*
X021950Y001881D01*
X021926Y001871D01*
X021797Y001742D01*
X021727Y001573D01*
X021727Y000790D01*
X021797Y000621D01*
X021857Y000561D01*
X020518Y000561D01*
X020577Y000621D01*
X020647Y000790D01*
X020647Y001573D01*
X020577Y001742D01*
X020448Y001871D01*
X020279Y001941D01*
X020096Y001941D01*
X019926Y001871D01*
X019797Y001742D01*
X019727Y001573D01*
X019727Y000790D01*
X019797Y000621D01*
X019857Y000561D01*
X019546Y000561D01*
X019553Y000569D01*
X019598Y000630D01*
X019632Y000697D01*
X019655Y000769D01*
X019667Y000844D01*
X019667Y001161D01*
X019207Y001161D01*
X019207Y001201D01*
X019667Y001201D01*
X019667Y001519D01*
X019655Y001594D01*
X019632Y001666D01*
X019598Y001733D01*
X019553Y001794D01*
X019500Y001848D01*
X019439Y001892D01*
X019371Y001926D01*
X019299Y001950D01*
X019225Y001961D01*
X019207Y001961D01*
X019207Y001202D01*
X019167Y001202D01*
X019167Y001961D01*
X019149Y001961D01*
X019075Y001950D01*
X019003Y001926D01*
X018936Y001892D01*
X018874Y001848D01*
X018821Y001794D01*
X018777Y001733D01*
X018742Y001666D01*
X018719Y001594D01*
X018707Y001519D01*
X018707Y001201D01*
X019167Y001201D01*
X019167Y001161D01*
X018707Y001161D01*
X018707Y000844D01*
X018719Y000769D01*
X018742Y000697D01*
X018777Y000630D01*
X018821Y000569D01*
X018828Y000561D01*
X018546Y000561D01*
X018553Y000569D01*
X018598Y000630D01*
X018632Y000697D01*
X018655Y000769D01*
X018667Y000844D01*
X018667Y001161D01*
X018207Y001161D01*
X018207Y001201D01*
X018667Y001201D01*
X018667Y001519D01*
X018655Y001594D01*
X018632Y001666D01*
X018598Y001733D01*
X018553Y001794D01*
X018500Y001848D01*
X018439Y001892D01*
X018371Y001926D01*
X018299Y001950D01*
X018225Y001961D01*
X018207Y001961D01*
X018207Y001202D01*
X018167Y001202D01*
X018167Y001961D01*
X018149Y001961D01*
X018075Y001950D01*
X018003Y001926D01*
X017936Y001892D01*
X017874Y001848D01*
X017821Y001794D01*
X017777Y001733D01*
X017742Y001666D01*
X017719Y001594D01*
X017707Y001519D01*
X017707Y001201D01*
X018167Y001201D01*
X018167Y001161D01*
X017707Y001161D01*
X017707Y000844D01*
X017719Y000769D01*
X017742Y000697D01*
X017777Y000630D01*
X017821Y000569D01*
X017828Y000561D01*
X017518Y000561D01*
X017577Y000621D01*
X017647Y000790D01*
X017647Y001573D01*
X017577Y001742D01*
X017448Y001871D01*
X017279Y001941D01*
X017096Y001941D01*
X016926Y001871D01*
X016797Y001742D01*
X016727Y001573D01*
X016727Y000790D01*
X016797Y000621D01*
X016857Y000561D01*
X016518Y000561D01*
X016577Y000621D01*
X016647Y000790D01*
X016647Y001573D01*
X016577Y001742D01*
X016448Y001871D01*
X016279Y001941D01*
X016096Y001941D01*
X015926Y001871D01*
X015797Y001742D01*
X015727Y001573D01*
X015727Y000790D01*
X015797Y000621D01*
X015857Y000561D01*
X015518Y000561D01*
X015577Y000621D01*
X015647Y000790D01*
X015647Y001573D01*
X015577Y001742D01*
X015448Y001871D01*
X015279Y001941D01*
X015096Y001941D01*
X014926Y001871D01*
X014797Y001742D01*
X014727Y001573D01*
X014727Y000790D01*
X014797Y000621D01*
X014857Y000561D01*
X002567Y000561D01*
X002567Y000657D02*
X014782Y000657D01*
X014727Y000816D02*
X002567Y000816D01*
X002567Y000974D02*
X014727Y000974D01*
X014727Y001133D02*
X002567Y001133D01*
X002567Y001291D02*
X004931Y001291D01*
X004965Y001258D02*
X005220Y001152D01*
X005497Y001152D01*
X005752Y001258D01*
X005947Y001453D01*
X006053Y001709D01*
X006053Y001985D01*
X005947Y002240D01*
X005752Y002436D01*
X005497Y002542D01*
X005220Y002542D01*
X004965Y002436D01*
X004769Y002240D01*
X004663Y001985D01*
X004663Y001709D01*
X004769Y001453D01*
X004965Y001258D01*
X004773Y001450D02*
X002567Y001450D01*
X002567Y001608D02*
X004705Y001608D01*
X004663Y001767D02*
X002567Y001767D01*
X002567Y001925D02*
X004663Y001925D01*
X004704Y002084D02*
X002567Y002084D01*
X002567Y002242D02*
X004771Y002242D01*
X004930Y002401D02*
X002567Y002401D01*
X002567Y002560D02*
X020227Y002560D01*
X020227Y002718D02*
X002567Y002718D01*
X002567Y002877D02*
X020227Y002877D01*
X020227Y003035D02*
X002567Y003035D01*
X002567Y003194D02*
X020227Y003194D01*
X020227Y003352D02*
X013008Y003352D01*
X012878Y003221D02*
X013147Y003491D01*
X013147Y003872D01*
X012878Y004141D01*
X012497Y004141D01*
X012227Y003872D01*
X012227Y003491D01*
X012497Y003221D01*
X012878Y003221D01*
X013147Y003511D02*
X020227Y003511D01*
X020227Y003669D02*
X013147Y003669D01*
X013147Y003828D02*
X020227Y003828D01*
X020227Y003986D02*
X013033Y003986D01*
X012960Y004304D02*
X020200Y004304D01*
X020227Y004145D02*
X002567Y004145D01*
X002567Y003986D02*
X012342Y003986D01*
X012227Y003828D02*
X002567Y003828D01*
X002567Y003669D02*
X012227Y003669D01*
X012227Y003511D02*
X002567Y003511D01*
X002567Y003352D02*
X012366Y003352D01*
X012414Y004304D02*
X002567Y004304D01*
X002567Y004462D02*
X012256Y004462D01*
X012227Y004621D02*
X002567Y004621D01*
X002567Y004779D02*
X012227Y004779D01*
X012293Y004938D02*
X002567Y004938D01*
X002567Y005096D02*
X012451Y005096D01*
X012463Y005255D02*
X002567Y005255D01*
X002567Y005413D02*
X012305Y005413D01*
X012227Y005572D02*
X002567Y005572D01*
X002567Y005730D02*
X012227Y005730D01*
X012244Y005889D02*
X002567Y005889D01*
X002567Y006048D02*
X012403Y006048D01*
X013147Y004779D02*
X020132Y004779D01*
X020077Y004621D02*
X013147Y004621D01*
X013118Y004462D02*
X020094Y004462D01*
X020647Y004145D02*
X021732Y004145D01*
X021732Y004091D02*
X021801Y003924D01*
X021929Y003795D01*
X022096Y003726D01*
X022278Y003726D01*
X022445Y003795D01*
X022573Y003924D01*
X022642Y004091D01*
X022642Y004272D01*
X022573Y004439D01*
X022445Y004567D01*
X022278Y004637D01*
X022096Y004637D01*
X021929Y004567D01*
X021801Y004439D01*
X021732Y004272D01*
X021732Y004091D01*
X021775Y003986D02*
X020647Y003986D01*
X020647Y003828D02*
X021897Y003828D01*
X021929Y003567D02*
X022096Y003637D01*
X022278Y003637D01*
X022445Y003567D01*
X022573Y003439D01*
X022642Y003272D01*
X022642Y003091D01*
X022573Y002924D01*
X022445Y002795D01*
X022278Y002726D01*
X022096Y002726D01*
X021929Y002795D01*
X021801Y002924D01*
X021732Y003091D01*
X021732Y003272D01*
X021801Y003439D01*
X021929Y003567D01*
X021873Y003511D02*
X021332Y003511D01*
X021506Y003352D02*
X021765Y003352D01*
X021732Y003194D02*
X021547Y003194D01*
X021516Y003035D02*
X021755Y003035D01*
X021848Y002877D02*
X021397Y002877D01*
X021397Y002718D02*
X028807Y002718D01*
X028807Y002560D02*
X021399Y002560D01*
X021530Y002401D02*
X028807Y002401D01*
X028711Y002242D02*
X022192Y002242D01*
X022135Y002299D02*
X022135Y002299D01*
X021913Y002391D02*
X021913Y002391D01*
X022305Y002130D02*
X022305Y002130D01*
X022324Y002084D02*
X028552Y002084D01*
X028394Y001925D02*
X027317Y001925D01*
X027057Y001925D02*
X026317Y001925D01*
X026057Y001925D02*
X025317Y001925D01*
X025057Y001925D02*
X024317Y001925D01*
X024057Y001925D02*
X023317Y001925D01*
X023057Y001925D02*
X022390Y001925D01*
X022397Y001908D02*
X022397Y001908D01*
X022552Y001767D02*
X022822Y001767D01*
X022742Y001608D02*
X022632Y001608D01*
X022647Y001450D02*
X022727Y001450D01*
X022727Y001291D02*
X022647Y001291D01*
X022647Y001133D02*
X022727Y001133D01*
X022727Y000974D02*
X022647Y000974D01*
X022647Y000816D02*
X022727Y000816D01*
X022782Y000657D02*
X022592Y000657D01*
X021782Y000657D02*
X020592Y000657D01*
X020647Y000816D02*
X021727Y000816D01*
X021727Y000974D02*
X020647Y000974D01*
X020647Y001133D02*
X021727Y001133D01*
X021727Y001291D02*
X020647Y001291D01*
X020647Y001450D02*
X021727Y001450D01*
X021742Y001608D02*
X020632Y001608D01*
X020552Y001767D02*
X021822Y001767D01*
X021910Y001925D02*
X020940Y001925D01*
X021036Y002084D02*
X021218Y002084D01*
X021239Y002063D02*
X021239Y002063D01*
X021461Y001971D02*
X021461Y001971D01*
X021069Y002233D02*
X021069Y002233D01*
X021065Y002242D02*
X021047Y002242D01*
X020999Y002401D02*
X020977Y002401D01*
X020977Y002455D02*
X020977Y002455D01*
X020977Y002560D02*
X020647Y002560D01*
X020647Y002718D02*
X020977Y002718D01*
X020977Y002877D02*
X020647Y002877D01*
X020647Y003035D02*
X020858Y003035D01*
X020827Y003194D02*
X020647Y003194D01*
X020647Y003352D02*
X020868Y003352D01*
X021042Y003511D02*
X020647Y003511D01*
X020647Y003669D02*
X028807Y003669D01*
X028807Y003511D02*
X028501Y003511D01*
X028445Y003567D02*
X028278Y003637D01*
X028096Y003637D01*
X027929Y003567D01*
X027801Y003439D01*
X027732Y003272D01*
X027732Y003091D01*
X027801Y002924D01*
X027929Y002795D01*
X028096Y002726D01*
X028278Y002726D01*
X028445Y002795D01*
X028573Y002924D01*
X028642Y003091D01*
X028642Y003272D01*
X028573Y003439D01*
X028445Y003567D01*
X028445Y003795D02*
X028573Y003924D01*
X028642Y004091D01*
X028642Y004272D01*
X028573Y004439D01*
X028445Y004567D01*
X028278Y004637D01*
X028096Y004637D01*
X027929Y004567D01*
X027801Y004439D01*
X027732Y004272D01*
X027732Y004091D01*
X027801Y003924D01*
X027929Y003795D01*
X028096Y003726D01*
X028278Y003726D01*
X028445Y003795D01*
X028477Y003828D02*
X028807Y003828D01*
X028807Y003986D02*
X028599Y003986D01*
X028642Y004145D02*
X028807Y004145D01*
X028807Y004304D02*
X028629Y004304D01*
X028550Y004462D02*
X028807Y004462D01*
X028807Y004621D02*
X028316Y004621D01*
X028278Y004726D02*
X028096Y004726D01*
X027929Y004795D01*
X027801Y004924D01*
X027732Y005091D01*
X027732Y005272D01*
X027801Y005439D01*
X027929Y005567D01*
X028096Y005637D01*
X028278Y005637D01*
X028445Y005567D01*
X028573Y005439D01*
X028642Y005272D01*
X028642Y005091D01*
X028573Y004924D01*
X028445Y004795D01*
X028278Y004726D01*
X028406Y004779D02*
X028807Y004779D01*
X028807Y004938D02*
X028579Y004938D01*
X028642Y005096D02*
X028807Y005096D01*
X028807Y005255D02*
X028642Y005255D01*
X028584Y005413D02*
X028807Y005413D01*
X028807Y005572D02*
X028434Y005572D01*
X028288Y005730D02*
X028807Y005730D01*
X028807Y005889D02*
X028539Y005889D01*
X028573Y005924D02*
X028445Y005795D01*
X028278Y005726D01*
X028096Y005726D01*
X027929Y005795D01*
X027801Y005924D01*
X027732Y006091D01*
X027732Y006272D01*
X027801Y006439D01*
X027929Y006567D01*
X028096Y006637D01*
X028278Y006637D01*
X028445Y006567D01*
X028573Y006439D01*
X028642Y006272D01*
X028642Y006091D01*
X028573Y005924D01*
X028624Y006048D02*
X028807Y006048D01*
X028807Y006206D02*
X028642Y006206D01*
X028604Y006365D02*
X028807Y006365D01*
X028807Y006523D02*
X028489Y006523D01*
X028445Y006795D02*
X028278Y006726D01*
X028096Y006726D01*
X027929Y006795D01*
X027801Y006924D01*
X027732Y007091D01*
X027732Y007272D01*
X027801Y007439D01*
X027929Y007567D01*
X028088Y007633D01*
X028286Y007633D02*
X028391Y007676D01*
X028492Y007777D01*
X028547Y007950D02*
X028807Y007950D01*
X028807Y008109D02*
X028524Y008109D01*
X028410Y008267D02*
X028807Y008267D01*
X028807Y008426D02*
X026547Y008426D01*
X026529Y008267D02*
X027964Y008267D01*
X028807Y008584D02*
X026493Y008584D01*
X025964Y009655D02*
X025749Y009566D01*
X025515Y009566D01*
X025300Y009655D01*
X025135Y009820D01*
X025045Y010036D01*
X025045Y010269D01*
X025135Y010485D01*
X025300Y010650D01*
X025515Y010739D01*
X025749Y010739D01*
X025964Y010650D01*
X026129Y010485D01*
X026219Y010269D01*
X026219Y010036D01*
X026129Y009820D01*
X025964Y009655D01*
X026003Y009694D02*
X028807Y009694D01*
X028807Y009535D02*
X024130Y009535D01*
X024289Y009377D02*
X028807Y009377D01*
X028807Y009218D02*
X024447Y009218D01*
X024606Y009060D02*
X028807Y009060D01*
X028807Y008901D02*
X024764Y008901D01*
X024923Y008743D02*
X028807Y008743D01*
X028807Y009853D02*
X026143Y009853D01*
X026208Y010011D02*
X028807Y010011D01*
X028807Y010170D02*
X026219Y010170D01*
X026194Y010328D02*
X028807Y010328D01*
X028807Y010487D02*
X026127Y010487D01*
X025969Y010645D02*
X028807Y010645D01*
X028807Y010804D02*
X027029Y010804D01*
X026989Y010763D02*
X027137Y010911D01*
X027217Y011105D01*
X027217Y011315D01*
X027137Y011509D01*
X026989Y011658D01*
X026795Y011738D01*
X026585Y011738D01*
X026391Y011658D01*
X026242Y011509D01*
X026162Y011315D01*
X026162Y011105D01*
X026242Y010911D01*
X026391Y010763D01*
X026585Y010683D01*
X026795Y010683D01*
X026989Y010763D01*
X027158Y010962D02*
X028807Y010962D01*
X028807Y011121D02*
X027217Y011121D01*
X027217Y011279D02*
X028807Y011279D01*
X028807Y011438D02*
X027167Y011438D01*
X027050Y011597D02*
X028807Y011597D01*
X028807Y011755D02*
X023470Y011755D01*
X023547Y011914D02*
X028807Y011914D01*
X028807Y012072D02*
X023539Y012072D01*
X023447Y012231D02*
X024293Y012231D01*
X024481Y012231D02*
X028807Y012231D01*
X028807Y012389D02*
X024697Y012389D01*
X024747Y012548D02*
X028807Y012548D01*
X028807Y012706D02*
X024725Y012706D01*
X024613Y012865D02*
X028807Y012865D01*
X028807Y013023D02*
X025064Y013023D01*
X025059Y013021D02*
X025191Y013076D01*
X025292Y013177D01*
X025347Y013310D01*
X025347Y013453D01*
X025337Y013478D01*
X025397Y013624D01*
X025397Y013624D01*
X025397Y013657D01*
X025397Y017731D01*
X025397Y017767D01*
X025397Y017905D01*
X025397Y017938D01*
X027807Y017938D01*
X027807Y017780D02*
X025397Y017780D01*
X025397Y017938D02*
X025397Y017938D01*
X025305Y018160D01*
X025305Y018160D01*
X025236Y018229D01*
X025202Y018283D01*
X025177Y018289D01*
X025159Y018307D01*
X025095Y018307D01*
X025018Y018324D01*
X024992Y018385D01*
X024891Y018487D01*
X024759Y018541D01*
X024615Y018541D01*
X024483Y018487D01*
X024382Y018385D01*
X024327Y018253D01*
X024327Y018110D01*
X024382Y017977D01*
X024483Y017876D01*
X024615Y017821D01*
X024759Y017821D01*
X024891Y017876D01*
X024928Y017913D01*
X024951Y017908D01*
X024974Y017854D01*
X024977Y017818D01*
X024977Y017766D01*
X024977Y017731D01*
X024977Y016492D01*
X024859Y016541D01*
X024715Y016541D01*
X024583Y016487D01*
X024482Y016385D01*
X024427Y016253D01*
X024427Y016250D01*
X024391Y016287D01*
X024259Y016341D01*
X024115Y016341D01*
X023983Y016287D01*
X023882Y016185D01*
X023827Y016053D01*
X023827Y015910D01*
X023882Y015777D01*
X023977Y015682D01*
X023977Y014081D01*
X023882Y013985D01*
X023827Y013853D01*
X023827Y013710D01*
X023882Y013577D01*
X023983Y013476D01*
X024115Y013421D01*
X024259Y013421D01*
X024391Y013476D01*
X024492Y013577D01*
X024547Y013710D01*
X024547Y013853D01*
X024505Y013954D01*
X024583Y013876D01*
X024715Y013821D01*
X024859Y013821D01*
X024977Y013871D01*
X024977Y013744D01*
X024977Y013741D01*
X024915Y013741D01*
X024783Y013687D01*
X024682Y013585D01*
X024627Y013453D01*
X024627Y013310D01*
X024682Y013177D01*
X024783Y013076D01*
X024915Y013021D01*
X025059Y013021D01*
X024911Y013023D02*
X024242Y013023D01*
X024083Y013182D02*
X024680Y013182D01*
X024627Y013341D02*
X023925Y013341D01*
X023960Y013499D02*
X023805Y013499D01*
X023797Y013658D02*
X023849Y013658D01*
X023827Y013816D02*
X023797Y013816D01*
X023797Y013975D02*
X023878Y013975D01*
X023797Y014133D02*
X023977Y014133D01*
X023977Y014292D02*
X023797Y014292D01*
X023797Y014450D02*
X023977Y014450D01*
X023977Y014609D02*
X023797Y014609D01*
X023797Y014767D02*
X023977Y014767D01*
X023977Y014926D02*
X023797Y014926D01*
X023797Y015084D02*
X023977Y015084D01*
X023977Y015243D02*
X023797Y015243D01*
X023797Y015402D02*
X023977Y015402D01*
X023977Y015560D02*
X023797Y015560D01*
X023797Y015719D02*
X023941Y015719D01*
X023841Y015877D02*
X023797Y015877D01*
X023797Y016036D02*
X023827Y016036D01*
X023797Y016194D02*
X023891Y016194D01*
X023797Y016353D02*
X024468Y016353D01*
X024643Y016511D02*
X023797Y016511D01*
X023797Y016670D02*
X024977Y016670D01*
X024977Y016828D02*
X023797Y016828D01*
X023797Y016987D02*
X024977Y016987D01*
X024977Y017146D02*
X023797Y017146D01*
X023797Y017304D02*
X024977Y017304D01*
X024977Y017463D02*
X023797Y017463D01*
X023797Y017621D02*
X024977Y017621D01*
X024977Y017780D02*
X023797Y017780D01*
X023797Y017938D02*
X024421Y017938D01*
X024332Y018097D02*
X023797Y018097D01*
X023797Y018255D02*
X024328Y018255D01*
X024410Y018414D02*
X023797Y018414D01*
X023797Y018572D02*
X027807Y018572D01*
X027807Y018414D02*
X024964Y018414D01*
X025220Y018255D02*
X027807Y018255D01*
X027807Y018097D02*
X025331Y018097D01*
X025397Y017621D02*
X027807Y017621D01*
X027807Y017463D02*
X025397Y017463D01*
X025397Y017304D02*
X027807Y017304D01*
X027807Y017146D02*
X025397Y017146D01*
X025397Y016987D02*
X027807Y016987D01*
X027807Y016828D02*
X025397Y016828D01*
X025397Y016670D02*
X027807Y016670D01*
X027807Y016511D02*
X025397Y016511D01*
X025397Y016353D02*
X027807Y016353D01*
X027807Y016194D02*
X025397Y016194D01*
X025397Y016036D02*
X027807Y016036D01*
X027860Y015877D02*
X025397Y015877D01*
X025397Y015719D02*
X028012Y015719D01*
X027972Y015759D02*
X027972Y015759D01*
X028171Y015560D02*
X025397Y015560D01*
X025397Y015402D02*
X028330Y015402D01*
X028488Y015243D02*
X025397Y015243D01*
X025397Y015084D02*
X028647Y015084D01*
X028805Y014926D02*
X025397Y014926D01*
X025397Y014767D02*
X028807Y014767D01*
X028807Y014609D02*
X025397Y014609D01*
X025397Y014450D02*
X028807Y014450D01*
X028807Y014292D02*
X025397Y014292D01*
X025397Y014133D02*
X028807Y014133D01*
X028807Y013975D02*
X025397Y013975D01*
X025397Y013816D02*
X028807Y013816D01*
X028807Y013658D02*
X025397Y013658D01*
X025345Y013499D02*
X028807Y013499D01*
X028807Y013341D02*
X025347Y013341D01*
X025294Y013182D02*
X028807Y013182D01*
X026330Y011597D02*
X022797Y011597D01*
X022797Y011755D02*
X022904Y011755D01*
X022827Y011914D02*
X022797Y011914D01*
X022797Y012072D02*
X022835Y012072D01*
X022797Y012231D02*
X022927Y012231D01*
X022977Y012389D02*
X022797Y012389D01*
X022797Y012548D02*
X022977Y012548D01*
X022977Y012706D02*
X022797Y012706D01*
X022797Y012865D02*
X022977Y012865D01*
X022977Y013023D02*
X022797Y013023D01*
X022797Y013182D02*
X022977Y013182D01*
X022977Y013341D02*
X022797Y013341D01*
X022797Y013499D02*
X022977Y013499D01*
X022977Y013658D02*
X022797Y013658D01*
X022797Y013816D02*
X022977Y013816D01*
X022977Y013975D02*
X022797Y013975D01*
X022797Y014133D02*
X022977Y014133D01*
X022977Y014292D02*
X022797Y014292D01*
X022797Y014450D02*
X022977Y014450D01*
X022977Y014609D02*
X022797Y014609D01*
X022797Y014767D02*
X022977Y014767D01*
X022977Y014926D02*
X022797Y014926D01*
X022797Y015084D02*
X022977Y015084D01*
X022977Y015243D02*
X022797Y015243D01*
X022797Y015402D02*
X022977Y015402D01*
X022977Y015560D02*
X022797Y015560D01*
X022797Y015719D02*
X022941Y015719D01*
X022841Y015877D02*
X022797Y015877D01*
X022797Y016036D02*
X022827Y016036D01*
X022797Y016194D02*
X022891Y016194D01*
X022791Y016353D02*
X023377Y016353D01*
X023377Y016511D02*
X022725Y016511D01*
X022682Y016584D02*
X022682Y016584D01*
X022596Y016670D02*
X023377Y016670D01*
X023377Y016828D02*
X022439Y016828D01*
X022397Y016987D02*
X023377Y016987D01*
X023377Y017146D02*
X022397Y017146D01*
X022397Y017304D02*
X023377Y017304D01*
X023377Y017463D02*
X022397Y017463D01*
X022397Y017621D02*
X023377Y017621D01*
X023377Y017780D02*
X022397Y017780D01*
X022397Y017938D02*
X023377Y017938D01*
X023377Y018097D02*
X022397Y018097D01*
X022397Y018255D02*
X023377Y018255D01*
X023377Y018414D02*
X022397Y018414D01*
X022397Y018572D02*
X023377Y018572D01*
X023337Y018731D02*
X022397Y018731D01*
X022397Y018890D02*
X023182Y018890D01*
X023092Y018979D02*
X023092Y018979D01*
X023050Y019048D02*
X022397Y019048D01*
X022397Y019207D02*
X022984Y019207D01*
X022977Y019224D02*
X022977Y019224D01*
X022977Y019365D02*
X022397Y019365D01*
X022480Y019524D02*
X022894Y019524D01*
X022772Y019682D02*
X022602Y019682D01*
X022647Y019841D02*
X022727Y019841D01*
X022727Y019999D02*
X022647Y019999D01*
X022647Y020158D02*
X022727Y020158D01*
X022727Y020316D02*
X022647Y020316D01*
X022647Y020475D02*
X022727Y020475D01*
X022752Y020634D02*
X022622Y020634D01*
X022527Y020792D02*
X022847Y020792D01*
X023527Y020792D02*
X023847Y020792D01*
X023752Y020634D02*
X023622Y020634D01*
X023647Y020475D02*
X023727Y020475D01*
X023727Y020316D02*
X023647Y020316D01*
X023647Y020158D02*
X023727Y020158D01*
X023727Y019999D02*
X023647Y019999D01*
X023647Y019841D02*
X023727Y019841D01*
X023772Y019682D02*
X023602Y019682D01*
X023480Y019524D02*
X023894Y019524D01*
X023397Y019365D02*
X027807Y019365D01*
X027807Y019207D02*
X023459Y019207D01*
X023512Y019153D02*
X023512Y019153D01*
X023617Y019048D02*
X027807Y019048D01*
X027807Y018890D02*
X023734Y018890D01*
X023682Y018984D02*
X023682Y018984D01*
X023797Y018731D02*
X027807Y018731D01*
X027807Y019524D02*
X027480Y019524D01*
X027602Y019682D02*
X027807Y019682D01*
X027807Y019841D02*
X027647Y019841D01*
X027647Y019999D02*
X027807Y019999D01*
X027807Y020158D02*
X027647Y020158D01*
X027647Y020316D02*
X027807Y020316D01*
X027756Y020475D02*
X027647Y020475D01*
X026847Y020792D02*
X026527Y020792D01*
X026622Y020634D02*
X026752Y020634D01*
X026727Y020475D02*
X026647Y020475D01*
X026647Y020316D02*
X026727Y020316D01*
X026727Y020158D02*
X026647Y020158D01*
X026647Y019999D02*
X026727Y019999D01*
X026727Y019841D02*
X026647Y019841D01*
X026602Y019682D02*
X026772Y019682D01*
X026894Y019524D02*
X026480Y019524D01*
X025894Y019524D02*
X025480Y019524D01*
X025602Y019682D02*
X025772Y019682D01*
X025727Y019841D02*
X025647Y019841D01*
X025647Y019999D02*
X025727Y019999D01*
X025727Y020158D02*
X025647Y020158D01*
X025647Y020316D02*
X025727Y020316D01*
X025727Y020475D02*
X025647Y020475D01*
X025622Y020634D02*
X025752Y020634D01*
X025847Y020792D02*
X025527Y020792D01*
X024847Y020792D02*
X024527Y020792D01*
X024622Y020634D02*
X024752Y020634D01*
X024727Y020475D02*
X024647Y020475D01*
X024647Y020316D02*
X024727Y020316D01*
X024727Y020158D02*
X024647Y020158D01*
X024647Y019999D02*
X024727Y019999D01*
X024727Y019841D02*
X024647Y019841D01*
X024602Y019682D02*
X024772Y019682D01*
X024894Y019524D02*
X024480Y019524D01*
X024931Y016511D02*
X024977Y016511D01*
X024977Y013816D02*
X024547Y013816D01*
X024525Y013658D02*
X024754Y013658D01*
X024646Y013499D02*
X024414Y013499D01*
X023807Y012865D02*
X023397Y012865D01*
X023397Y013023D02*
X023648Y013023D01*
X023492Y013179D02*
X023492Y013179D01*
X023490Y013182D02*
X023397Y013182D01*
X023397Y013341D02*
X023412Y013341D01*
X023397Y012706D02*
X023965Y012706D01*
X024027Y012548D02*
X023397Y012548D01*
X023397Y012389D02*
X024077Y012389D01*
X022797Y011438D02*
X026213Y011438D01*
X026162Y011279D02*
X022797Y011279D01*
X022797Y011121D02*
X026162Y011121D01*
X026221Y010962D02*
X022797Y010962D01*
X022862Y010804D02*
X026350Y010804D01*
X025295Y010645D02*
X023020Y010645D01*
X023179Y010487D02*
X025136Y010487D01*
X025070Y010328D02*
X023337Y010328D01*
X023496Y010170D02*
X025045Y010170D01*
X025055Y010011D02*
X023654Y010011D01*
X023813Y009853D02*
X025121Y009853D01*
X025261Y009694D02*
X023971Y009694D01*
X023836Y007474D02*
X023538Y007474D01*
X023624Y007316D02*
X023750Y007316D01*
X023732Y007157D02*
X023642Y007157D01*
X023604Y006999D02*
X023770Y006999D01*
X023884Y006840D02*
X023490Y006840D01*
X023445Y006567D02*
X023278Y006637D01*
X023096Y006637D01*
X022929Y006567D01*
X022801Y006439D01*
X022732Y006272D01*
X022732Y006091D01*
X022801Y005924D01*
X022929Y005795D01*
X023096Y005726D01*
X023278Y005726D01*
X023445Y005795D01*
X023573Y005924D01*
X023642Y006091D01*
X023642Y006272D01*
X023573Y006439D01*
X023445Y006567D01*
X023489Y006523D02*
X023885Y006523D01*
X023929Y006567D02*
X023801Y006439D01*
X023732Y006272D01*
X023732Y006091D01*
X023801Y005924D01*
X023929Y005795D01*
X024096Y005726D01*
X024278Y005726D01*
X024445Y005795D01*
X024573Y005924D01*
X024642Y006091D01*
X024642Y006272D01*
X024573Y006439D01*
X024445Y006567D01*
X024278Y006637D01*
X024096Y006637D01*
X023929Y006567D01*
X023770Y006365D02*
X023604Y006365D01*
X023642Y006206D02*
X023732Y006206D01*
X023750Y006048D02*
X023624Y006048D01*
X023539Y005889D02*
X023836Y005889D01*
X024086Y005730D02*
X023288Y005730D01*
X023278Y005637D02*
X023096Y005637D01*
X022929Y005567D01*
X022801Y005439D01*
X022732Y005272D01*
X022732Y005091D01*
X022801Y004924D01*
X022929Y004795D01*
X023096Y004726D01*
X023278Y004726D01*
X023445Y004795D01*
X023573Y004924D01*
X023642Y005091D01*
X023642Y005272D01*
X023573Y005439D01*
X023445Y005567D01*
X023278Y005637D01*
X023434Y005572D02*
X023940Y005572D01*
X023929Y005567D02*
X023801Y005439D01*
X023732Y005272D01*
X023732Y005091D01*
X023801Y004924D01*
X023929Y004795D01*
X024096Y004726D01*
X024278Y004726D01*
X024445Y004795D01*
X024573Y004924D01*
X024642Y005091D01*
X024642Y005272D01*
X024573Y005439D01*
X024445Y005567D01*
X024278Y005637D01*
X024096Y005637D01*
X023929Y005567D01*
X023790Y005413D02*
X023584Y005413D01*
X023642Y005255D02*
X023732Y005255D01*
X023732Y005096D02*
X023642Y005096D01*
X023579Y004938D02*
X023795Y004938D01*
X023968Y004779D02*
X023406Y004779D01*
X023316Y004621D02*
X024058Y004621D01*
X024096Y004637D02*
X023929Y004567D01*
X023801Y004439D01*
X023732Y004272D01*
X023732Y004091D01*
X023801Y003924D01*
X023929Y003795D01*
X024096Y003726D01*
X024278Y003726D01*
X024445Y003795D01*
X024573Y003924D01*
X024642Y004091D01*
X024642Y004272D01*
X024573Y004439D01*
X024445Y004567D01*
X024278Y004637D01*
X024096Y004637D01*
X024316Y004621D02*
X025058Y004621D01*
X025096Y004637D02*
X024929Y004567D01*
X024801Y004439D01*
X024732Y004272D01*
X024732Y004091D01*
X024801Y003924D01*
X024929Y003795D01*
X025096Y003726D01*
X025278Y003726D01*
X025445Y003795D01*
X025573Y003924D01*
X025642Y004091D01*
X025642Y004272D01*
X025573Y004439D01*
X025445Y004567D01*
X025278Y004637D01*
X025096Y004637D01*
X025096Y004726D02*
X025278Y004726D01*
X025445Y004795D01*
X025573Y004924D01*
X025642Y005091D01*
X025642Y005272D01*
X025573Y005439D01*
X025445Y005567D01*
X025278Y005637D01*
X025096Y005637D01*
X024929Y005567D01*
X024801Y005439D01*
X024732Y005272D01*
X024732Y005091D01*
X024801Y004924D01*
X024929Y004795D01*
X025096Y004726D01*
X024968Y004779D02*
X024406Y004779D01*
X024579Y004938D02*
X024795Y004938D01*
X024732Y005096D02*
X024642Y005096D01*
X024642Y005255D02*
X024732Y005255D01*
X024790Y005413D02*
X024584Y005413D01*
X024434Y005572D02*
X024940Y005572D01*
X025086Y005730D02*
X024288Y005730D01*
X024539Y005889D02*
X024836Y005889D01*
X024801Y005924D02*
X024929Y005795D01*
X025096Y005726D01*
X025278Y005726D01*
X025445Y005795D01*
X025573Y005924D01*
X025642Y006091D01*
X025642Y006272D01*
X025573Y006439D01*
X025445Y006567D01*
X025278Y006637D01*
X025096Y006637D01*
X024929Y006567D01*
X024801Y006439D01*
X024732Y006272D01*
X024732Y006091D01*
X024801Y005924D01*
X024750Y006048D02*
X024624Y006048D01*
X024642Y006206D02*
X024732Y006206D01*
X024770Y006365D02*
X024604Y006365D01*
X024489Y006523D02*
X024885Y006523D01*
X024884Y006840D02*
X024490Y006840D01*
X024604Y006999D02*
X024770Y006999D01*
X024732Y007157D02*
X024642Y007157D01*
X024624Y007316D02*
X024750Y007316D01*
X024836Y007474D02*
X024538Y007474D01*
X025490Y006840D02*
X025884Y006840D01*
X025770Y006999D02*
X025604Y006999D01*
X025642Y007157D02*
X025732Y007157D01*
X025750Y007316D02*
X025624Y007316D01*
X025538Y007474D02*
X025836Y007474D01*
X026538Y007474D02*
X026836Y007474D01*
X026750Y007316D02*
X026624Y007316D01*
X026642Y007157D02*
X026732Y007157D01*
X026770Y006999D02*
X026604Y006999D01*
X026490Y006840D02*
X026884Y006840D01*
X026929Y006567D02*
X026801Y006439D01*
X026732Y006272D01*
X026732Y006091D01*
X026801Y005924D01*
X026929Y005795D01*
X027096Y005726D01*
X027278Y005726D01*
X027445Y005795D01*
X027573Y005924D01*
X027642Y006091D01*
X027642Y006272D01*
X027573Y006439D01*
X027445Y006567D01*
X027278Y006637D01*
X027096Y006637D01*
X026929Y006567D01*
X026885Y006523D02*
X026489Y006523D01*
X026445Y006567D02*
X026278Y006637D01*
X026096Y006637D01*
X025929Y006567D01*
X025801Y006439D01*
X025732Y006272D01*
X025732Y006091D01*
X025801Y005924D01*
X025929Y005795D01*
X026096Y005726D01*
X026278Y005726D01*
X026445Y005795D01*
X026573Y005924D01*
X026642Y006091D01*
X026642Y006272D01*
X026573Y006439D01*
X026445Y006567D01*
X026604Y006365D02*
X026770Y006365D01*
X026732Y006206D02*
X026642Y006206D01*
X026624Y006048D02*
X026750Y006048D01*
X026836Y005889D02*
X026539Y005889D01*
X026288Y005730D02*
X027086Y005730D01*
X027096Y005637D02*
X026929Y005567D01*
X026801Y005439D01*
X026732Y005272D01*
X026732Y005091D01*
X026801Y004924D01*
X026929Y004795D01*
X027096Y004726D01*
X027278Y004726D01*
X027445Y004795D01*
X027573Y004924D01*
X027642Y005091D01*
X027642Y005272D01*
X027573Y005439D01*
X027445Y005567D01*
X027278Y005637D01*
X027096Y005637D01*
X026940Y005572D02*
X026434Y005572D01*
X026445Y005567D02*
X026278Y005637D01*
X026096Y005637D01*
X025929Y005567D01*
X025801Y005439D01*
X025732Y005272D01*
X025732Y005091D01*
X025801Y004924D01*
X025929Y004795D01*
X026096Y004726D01*
X026278Y004726D01*
X026445Y004795D01*
X026573Y004924D01*
X026642Y005091D01*
X026642Y005272D01*
X026573Y005439D01*
X026445Y005567D01*
X026584Y005413D02*
X026790Y005413D01*
X026732Y005255D02*
X026642Y005255D01*
X026642Y005096D02*
X026732Y005096D01*
X026795Y004938D02*
X026579Y004938D01*
X026406Y004779D02*
X026968Y004779D01*
X027058Y004621D02*
X026316Y004621D01*
X026278Y004637D02*
X026096Y004637D01*
X025929Y004567D01*
X025801Y004439D01*
X025732Y004272D01*
X025732Y004091D01*
X025801Y003924D01*
X025929Y003795D01*
X026096Y003726D01*
X026278Y003726D01*
X026445Y003795D01*
X026573Y003924D01*
X026642Y004091D01*
X026642Y004272D01*
X026573Y004439D01*
X026445Y004567D01*
X026278Y004637D01*
X026058Y004621D02*
X025316Y004621D01*
X025406Y004779D02*
X025968Y004779D01*
X025795Y004938D02*
X025579Y004938D01*
X025642Y005096D02*
X025732Y005096D01*
X025732Y005255D02*
X025642Y005255D01*
X025584Y005413D02*
X025790Y005413D01*
X025940Y005572D02*
X025434Y005572D01*
X025288Y005730D02*
X026086Y005730D01*
X025836Y005889D02*
X025539Y005889D01*
X025624Y006048D02*
X025750Y006048D01*
X025732Y006206D02*
X025642Y006206D01*
X025604Y006365D02*
X025770Y006365D01*
X025885Y006523D02*
X025489Y006523D01*
X027288Y005730D02*
X028086Y005730D01*
X027940Y005572D02*
X027434Y005572D01*
X027584Y005413D02*
X027790Y005413D01*
X027732Y005255D02*
X027642Y005255D01*
X027642Y005096D02*
X027732Y005096D01*
X027795Y004938D02*
X027579Y004938D01*
X027406Y004779D02*
X027968Y004779D01*
X028058Y004621D02*
X027316Y004621D01*
X027278Y004637D02*
X027096Y004637D01*
X026929Y004567D01*
X026801Y004439D01*
X026732Y004272D01*
X026732Y004091D01*
X026801Y003924D01*
X026929Y003795D01*
X027096Y003726D01*
X027278Y003726D01*
X027445Y003795D01*
X027573Y003924D01*
X027642Y004091D01*
X027642Y004272D01*
X027573Y004439D01*
X027445Y004567D01*
X027278Y004637D01*
X027550Y004462D02*
X027824Y004462D01*
X027745Y004304D02*
X027629Y004304D01*
X027642Y004145D02*
X027732Y004145D01*
X027775Y003986D02*
X027599Y003986D01*
X027477Y003828D02*
X027897Y003828D01*
X027873Y003511D02*
X027501Y003511D01*
X027445Y003567D02*
X027278Y003637D01*
X027096Y003637D01*
X026929Y003567D01*
X026801Y003439D01*
X026732Y003272D01*
X026732Y003091D01*
X026801Y002924D01*
X026929Y002795D01*
X027096Y002726D01*
X027278Y002726D01*
X027445Y002795D01*
X027573Y002924D01*
X027642Y003091D01*
X027642Y003272D01*
X027573Y003439D01*
X027445Y003567D01*
X027609Y003352D02*
X027765Y003352D01*
X027732Y003194D02*
X027642Y003194D01*
X027619Y003035D02*
X027755Y003035D01*
X027848Y002877D02*
X027526Y002877D01*
X026848Y002877D02*
X026526Y002877D01*
X026573Y002924D02*
X026445Y002795D01*
X026278Y002726D01*
X026096Y002726D01*
X025929Y002795D01*
X025801Y002924D01*
X025732Y003091D01*
X025732Y003272D01*
X025801Y003439D01*
X025929Y003567D01*
X026096Y003637D01*
X026278Y003637D01*
X026445Y003567D01*
X026573Y003439D01*
X026642Y003272D01*
X026642Y003091D01*
X026573Y002924D01*
X026619Y003035D02*
X026755Y003035D01*
X026732Y003194D02*
X026642Y003194D01*
X026609Y003352D02*
X026765Y003352D01*
X026873Y003511D02*
X026501Y003511D01*
X026477Y003828D02*
X026897Y003828D01*
X026775Y003986D02*
X026599Y003986D01*
X026642Y004145D02*
X026732Y004145D01*
X026745Y004304D02*
X026629Y004304D01*
X026550Y004462D02*
X026824Y004462D01*
X025824Y004462D02*
X025550Y004462D01*
X025629Y004304D02*
X025745Y004304D01*
X025732Y004145D02*
X025642Y004145D01*
X025599Y003986D02*
X025775Y003986D01*
X025897Y003828D02*
X025477Y003828D01*
X025445Y003567D02*
X025278Y003637D01*
X025096Y003637D01*
X024929Y003567D01*
X024801Y003439D01*
X024732Y003272D01*
X024732Y003091D01*
X024801Y002924D01*
X024929Y002795D01*
X025096Y002726D01*
X025278Y002726D01*
X025445Y002795D01*
X025573Y002924D01*
X025642Y003091D01*
X025642Y003272D01*
X025573Y003439D01*
X025445Y003567D01*
X025501Y003511D02*
X025873Y003511D01*
X025765Y003352D02*
X025609Y003352D01*
X025642Y003194D02*
X025732Y003194D01*
X025755Y003035D02*
X025619Y003035D01*
X025526Y002877D02*
X025848Y002877D01*
X024848Y002877D02*
X024526Y002877D01*
X024573Y002924D02*
X024445Y002795D01*
X024278Y002726D01*
X024096Y002726D01*
X023929Y002795D01*
X023801Y002924D01*
X023732Y003091D01*
X023732Y003272D01*
X023801Y003439D01*
X023929Y003567D01*
X024096Y003637D01*
X024278Y003637D01*
X024445Y003567D01*
X024573Y003439D01*
X024642Y003272D01*
X024642Y003091D01*
X024573Y002924D01*
X024619Y003035D02*
X024755Y003035D01*
X024732Y003194D02*
X024642Y003194D01*
X024609Y003352D02*
X024765Y003352D01*
X024873Y003511D02*
X024501Y003511D01*
X024477Y003828D02*
X024897Y003828D01*
X024775Y003986D02*
X024599Y003986D01*
X024642Y004145D02*
X024732Y004145D01*
X024745Y004304D02*
X024629Y004304D01*
X024550Y004462D02*
X024824Y004462D01*
X023824Y004462D02*
X023550Y004462D01*
X023573Y004439D02*
X023445Y004567D01*
X023278Y004637D01*
X023096Y004637D01*
X022929Y004567D01*
X022801Y004439D01*
X022732Y004272D01*
X022732Y004091D01*
X022801Y003924D01*
X022929Y003795D01*
X023096Y003726D01*
X023278Y003726D01*
X023445Y003795D01*
X023573Y003924D01*
X023642Y004091D01*
X023642Y004272D01*
X023573Y004439D01*
X023629Y004304D02*
X023745Y004304D01*
X023732Y004145D02*
X023642Y004145D01*
X023599Y003986D02*
X023775Y003986D01*
X023897Y003828D02*
X023477Y003828D01*
X023445Y003567D02*
X023278Y003637D01*
X023096Y003637D01*
X022929Y003567D01*
X022801Y003439D01*
X022732Y003272D01*
X022732Y003091D01*
X022801Y002924D01*
X022929Y002795D01*
X023096Y002726D01*
X023278Y002726D01*
X023445Y002795D01*
X023573Y002924D01*
X023642Y003091D01*
X023642Y003272D01*
X023573Y003439D01*
X023445Y003567D01*
X023501Y003511D02*
X023873Y003511D01*
X023765Y003352D02*
X023609Y003352D01*
X023642Y003194D02*
X023732Y003194D01*
X023755Y003035D02*
X023619Y003035D01*
X023526Y002877D02*
X023848Y002877D01*
X022848Y002877D02*
X022526Y002877D01*
X022619Y003035D02*
X022755Y003035D01*
X022732Y003194D02*
X022642Y003194D01*
X022609Y003352D02*
X022765Y003352D01*
X022873Y003511D02*
X022501Y003511D01*
X022477Y003828D02*
X022897Y003828D01*
X022775Y003986D02*
X022599Y003986D01*
X022642Y004145D02*
X022732Y004145D01*
X022745Y004304D02*
X022629Y004304D01*
X022550Y004462D02*
X022824Y004462D01*
X023058Y004621D02*
X022316Y004621D01*
X022406Y004779D02*
X022968Y004779D01*
X022795Y004938D02*
X022579Y004938D01*
X022642Y005096D02*
X022732Y005096D01*
X022732Y005255D02*
X022642Y005255D01*
X022584Y005413D02*
X022790Y005413D01*
X022940Y005572D02*
X022434Y005572D01*
X022288Y005730D02*
X023086Y005730D01*
X022836Y005889D02*
X022539Y005889D01*
X022624Y006048D02*
X022750Y006048D01*
X022732Y006206D02*
X022642Y006206D01*
X022604Y006365D02*
X022770Y006365D01*
X022885Y006523D02*
X022489Y006523D01*
X022490Y006840D02*
X022884Y006840D01*
X022770Y006999D02*
X022604Y006999D01*
X022642Y007157D02*
X022732Y007157D01*
X022750Y007316D02*
X022624Y007316D01*
X022538Y007474D02*
X022836Y007474D01*
X021884Y006840D02*
X021747Y006840D01*
X021747Y006999D02*
X021770Y006999D01*
X021747Y007316D02*
X021750Y007316D01*
X021747Y007474D02*
X021836Y007474D01*
X020517Y008743D02*
X017229Y008743D01*
X017315Y008901D02*
X017570Y008901D01*
X017585Y008887D02*
X017585Y008887D01*
X017608Y008863D02*
X017608Y008863D01*
X017830Y008771D02*
X017830Y008771D01*
X017412Y009060D02*
X017316Y009060D01*
X016688Y008743D02*
X015810Y008743D01*
X015179Y010011D02*
X007866Y010011D01*
X007308Y010011D02*
X002567Y010011D01*
X002567Y009853D02*
X007227Y009853D01*
X007234Y009694D02*
X002567Y009694D01*
X002567Y009535D02*
X007324Y009535D01*
X007715Y009218D02*
X002567Y009218D01*
X002567Y009060D02*
X007630Y009060D01*
X007631Y008901D02*
X002567Y008901D01*
X002567Y008743D02*
X007717Y008743D01*
X008258Y008743D02*
X009264Y008743D01*
X009227Y008584D02*
X002567Y008584D01*
X002567Y008426D02*
X009262Y008426D01*
X008265Y009218D02*
X008259Y009218D01*
X008227Y009377D02*
X002567Y009377D01*
X002567Y010170D02*
X015550Y010170D01*
X015656Y010276D02*
X015656Y010276D01*
X015680Y010299D02*
X015680Y010299D01*
X015749Y010328D02*
X002567Y010328D01*
X007850Y009535D02*
X008261Y009535D01*
X015902Y010391D02*
X015902Y010391D01*
X017944Y010391D02*
X017944Y010391D01*
X018097Y010328D02*
X019884Y010328D01*
X020512Y010653D02*
X020512Y010653D01*
X020377Y012072D02*
X020329Y012072D01*
X020305Y012130D02*
X020305Y012130D01*
X020377Y012231D02*
X020204Y012231D01*
X020135Y012299D02*
X020135Y012299D01*
X019919Y012389D02*
X020377Y012389D01*
X020377Y012548D02*
X019369Y012548D01*
X019407Y012563D02*
X019407Y012563D01*
X019550Y012706D02*
X020377Y012706D01*
X020377Y012865D02*
X019631Y012865D01*
X019669Y012955D02*
X019669Y012955D01*
X019669Y013023D02*
X020377Y013023D01*
X020377Y013182D02*
X019669Y013182D01*
X019669Y013341D02*
X020377Y013341D01*
X020377Y013499D02*
X019669Y013499D01*
X019669Y013658D02*
X020377Y013658D01*
X020377Y013816D02*
X019669Y013816D01*
X019669Y013975D02*
X020377Y013975D01*
X020377Y014133D02*
X019669Y014133D01*
X019669Y014292D02*
X020377Y014292D01*
X020377Y014450D02*
X019669Y014450D01*
X019669Y014609D02*
X020377Y014609D01*
X020377Y014767D02*
X019669Y014767D01*
X019669Y014926D02*
X020377Y014926D01*
X020377Y015084D02*
X019669Y015084D01*
X019669Y015243D02*
X020377Y015243D01*
X020377Y015402D02*
X019669Y015402D01*
X019747Y015560D02*
X020377Y015560D01*
X020377Y015719D02*
X019819Y015719D01*
X019809Y015877D02*
X020377Y015877D01*
X017913Y013891D02*
X017913Y013891D01*
X019074Y013023D02*
X019239Y013023D01*
X019577Y012733D02*
X019577Y012733D01*
X019913Y012391D02*
X019913Y012391D01*
X018166Y010299D02*
X018166Y010299D01*
X018189Y010276D02*
X018189Y010276D01*
X020309Y009218D02*
X020515Y009218D01*
X020797Y004621D02*
X022058Y004621D01*
X021824Y004462D02*
X020780Y004462D01*
X020675Y004304D02*
X021745Y004304D01*
X020227Y002401D02*
X005787Y002401D01*
X005945Y002242D02*
X020265Y002242D01*
X020227Y002308D02*
X020227Y002308D01*
X020338Y002084D02*
X006012Y002084D01*
X006053Y001925D02*
X015057Y001925D01*
X015317Y001925D02*
X016057Y001925D01*
X016317Y001925D02*
X017057Y001925D01*
X017317Y001925D02*
X018001Y001925D01*
X018167Y001925D02*
X018207Y001925D01*
X018207Y001767D02*
X018167Y001767D01*
X018167Y001608D02*
X018207Y001608D01*
X018207Y001450D02*
X018167Y001450D01*
X018167Y001291D02*
X018207Y001291D01*
X017707Y001291D02*
X017647Y001291D01*
X017647Y001133D02*
X017707Y001133D01*
X017707Y000974D02*
X017647Y000974D01*
X017647Y000816D02*
X017711Y000816D01*
X017763Y000657D02*
X017592Y000657D01*
X016782Y000657D02*
X016592Y000657D01*
X016647Y000816D02*
X016727Y000816D01*
X016727Y000974D02*
X016647Y000974D01*
X016647Y001133D02*
X016727Y001133D01*
X016727Y001291D02*
X016647Y001291D01*
X016647Y001450D02*
X016727Y001450D01*
X016742Y001608D02*
X016632Y001608D01*
X016552Y001767D02*
X016822Y001767D01*
X017552Y001767D02*
X017801Y001767D01*
X017724Y001608D02*
X017632Y001608D01*
X017647Y001450D02*
X017707Y001450D01*
X018373Y001925D02*
X019001Y001925D01*
X019167Y001925D02*
X019207Y001925D01*
X019207Y001767D02*
X019167Y001767D01*
X019167Y001608D02*
X019207Y001608D01*
X019207Y001450D02*
X019167Y001450D01*
X019167Y001291D02*
X019207Y001291D01*
X019667Y001291D02*
X019727Y001291D01*
X019727Y001133D02*
X019667Y001133D01*
X019667Y000974D02*
X019727Y000974D01*
X019727Y000816D02*
X019663Y000816D01*
X019611Y000657D02*
X019782Y000657D01*
X019727Y001450D02*
X019667Y001450D01*
X019651Y001608D02*
X019742Y001608D01*
X019822Y001767D02*
X019573Y001767D01*
X019373Y001925D02*
X020057Y001925D01*
X020317Y001925D02*
X020434Y001925D01*
X018801Y001767D02*
X018573Y001767D01*
X018651Y001608D02*
X018724Y001608D01*
X018707Y001450D02*
X018667Y001450D01*
X018667Y001291D02*
X018707Y001291D01*
X018707Y001133D02*
X018667Y001133D01*
X018667Y000974D02*
X018707Y000974D01*
X018711Y000816D02*
X018663Y000816D01*
X018611Y000657D02*
X018763Y000657D01*
X015822Y001767D02*
X015552Y001767D01*
X015632Y001608D02*
X015742Y001608D01*
X015727Y001450D02*
X015647Y001450D01*
X015647Y001291D02*
X015727Y001291D01*
X015727Y001133D02*
X015647Y001133D01*
X015647Y000974D02*
X015727Y000974D01*
X015727Y000816D02*
X015647Y000816D01*
X015592Y000657D02*
X015782Y000657D01*
X014727Y001291D02*
X005786Y001291D01*
X005944Y001450D02*
X014727Y001450D01*
X014742Y001608D02*
X006012Y001608D01*
X006053Y001767D02*
X014822Y001767D01*
X023552Y001767D02*
X023822Y001767D01*
X023742Y001608D02*
X023632Y001608D01*
X023647Y001450D02*
X023727Y001450D01*
X023727Y001291D02*
X023647Y001291D01*
X023647Y001133D02*
X023727Y001133D01*
X023727Y000974D02*
X023647Y000974D01*
X023647Y000816D02*
X023727Y000816D01*
X023782Y000657D02*
X023592Y000657D01*
X024592Y000657D02*
X024782Y000657D01*
X024727Y000816D02*
X024647Y000816D01*
X024647Y000974D02*
X024727Y000974D01*
X024727Y001133D02*
X024647Y001133D01*
X024647Y001291D02*
X024727Y001291D01*
X024727Y001450D02*
X024647Y001450D01*
X024632Y001608D02*
X024742Y001608D01*
X024822Y001767D02*
X024552Y001767D01*
X025552Y001767D02*
X025822Y001767D01*
X025742Y001608D02*
X025632Y001608D01*
X025647Y001450D02*
X025727Y001450D01*
X025727Y001291D02*
X025647Y001291D01*
X025647Y001133D02*
X025727Y001133D01*
X025727Y000974D02*
X025647Y000974D01*
X025647Y000816D02*
X025727Y000816D01*
X025782Y000657D02*
X025592Y000657D01*
X026592Y000657D02*
X026782Y000657D01*
X026727Y000816D02*
X026647Y000816D01*
X026647Y000974D02*
X026727Y000974D01*
X026727Y001133D02*
X026647Y001133D01*
X026647Y001291D02*
X026727Y001291D01*
X026727Y001450D02*
X026647Y001450D01*
X026632Y001608D02*
X026742Y001608D01*
X026822Y001767D02*
X026552Y001767D01*
X027552Y001767D02*
X028235Y001767D01*
X028077Y001608D02*
X027632Y001608D01*
X027647Y001450D02*
X027918Y001450D01*
X027821Y001291D02*
X027647Y001291D01*
X027647Y001133D02*
X027807Y001133D01*
X027807Y000974D02*
X027647Y000974D01*
X027647Y000816D02*
X027807Y000816D01*
X027807Y000657D02*
X027592Y000657D01*
X028526Y002877D02*
X028807Y002877D01*
X028807Y003035D02*
X028619Y003035D01*
X028642Y003194D02*
X028807Y003194D01*
X028807Y003352D02*
X028609Y003352D01*
X027836Y005889D02*
X027539Y005889D01*
X027624Y006048D02*
X027750Y006048D01*
X027732Y006206D02*
X027642Y006206D01*
X027604Y006365D02*
X027770Y006365D01*
X027885Y006523D02*
X027489Y006523D01*
X027490Y006840D02*
X027884Y006840D01*
X027770Y006999D02*
X027604Y006999D01*
X027642Y007157D02*
X027732Y007157D01*
X027750Y007316D02*
X027624Y007316D01*
X027538Y007474D02*
X027836Y007474D01*
X028538Y007474D02*
X028807Y007474D01*
X028807Y007316D02*
X028624Y007316D01*
X028642Y007157D02*
X028807Y007157D01*
X028807Y006999D02*
X028604Y006999D01*
X020133Y017938D02*
X013897Y017938D01*
X013947Y018097D02*
X020030Y018097D01*
X020092Y017979D02*
X020092Y017979D01*
X019977Y018224D02*
X019977Y018224D01*
X019977Y018255D02*
X013925Y018255D01*
X013814Y018414D02*
X019977Y018414D01*
X019977Y018572D02*
X016747Y018572D01*
X016744Y018571D02*
X016744Y018571D01*
X016966Y018663D02*
X016966Y018663D01*
X017034Y018731D02*
X019977Y018731D01*
X019977Y018890D02*
X017404Y018890D01*
X017521Y019048D02*
X019977Y019048D01*
X019977Y019207D02*
X017547Y019207D01*
X017501Y019365D02*
X019977Y019365D01*
X019894Y019524D02*
X018880Y019524D01*
X019002Y019682D02*
X019772Y019682D01*
X019727Y019841D02*
X019047Y019841D01*
X019047Y019999D02*
X019727Y019999D01*
X019727Y020158D02*
X019047Y020158D01*
X019047Y020316D02*
X019727Y020316D01*
X019727Y020475D02*
X019047Y020475D01*
X019022Y020634D02*
X019752Y020634D01*
X019847Y020792D02*
X018927Y020792D01*
X018247Y020792D02*
X017927Y020792D01*
X018022Y020634D02*
X018152Y020634D01*
X018127Y020475D02*
X018047Y020475D01*
X018047Y020316D02*
X018127Y020316D01*
X018127Y020158D02*
X018047Y020158D01*
X018047Y019999D02*
X018127Y019999D01*
X018127Y019841D02*
X018047Y019841D01*
X018002Y019682D02*
X018172Y019682D01*
X018294Y019524D02*
X017880Y019524D01*
X016294Y019524D02*
X015880Y019524D01*
X016002Y019682D02*
X016172Y019682D01*
X016127Y019841D02*
X016047Y019841D01*
X016047Y019999D02*
X016127Y019999D01*
X016127Y020158D02*
X016047Y020158D01*
X016047Y020316D02*
X016127Y020316D01*
X016127Y020475D02*
X016047Y020475D01*
X016022Y020634D02*
X016152Y020634D01*
X016247Y020792D02*
X015927Y020792D01*
X015247Y020792D02*
X014927Y020792D01*
X015022Y020634D02*
X015152Y020634D01*
X015127Y020475D02*
X015047Y020475D01*
X015047Y020316D02*
X015127Y020316D01*
X015127Y020158D02*
X015047Y020158D01*
X015047Y019999D02*
X015127Y019999D01*
X015127Y019841D02*
X015047Y019841D01*
X015002Y019682D02*
X015172Y019682D01*
X015294Y019524D02*
X014880Y019524D01*
X014294Y019524D02*
X013880Y019524D01*
X014002Y019682D02*
X014172Y019682D01*
X014127Y019841D02*
X014047Y019841D01*
X014047Y019999D02*
X014127Y019999D01*
X014127Y020158D02*
X014047Y020158D01*
X014047Y020316D02*
X014127Y020316D01*
X014127Y020475D02*
X014047Y020475D01*
X014022Y020634D02*
X014152Y020634D01*
X014247Y020792D02*
X013927Y020792D01*
X009587Y017304D02*
X008886Y017304D01*
X009045Y017146D02*
X009329Y017146D01*
X009237Y016987D02*
X009162Y016987D01*
X009162Y016828D02*
X009212Y016828D01*
X009240Y016670D02*
X009162Y016670D01*
X009039Y016511D02*
X009335Y016511D01*
X008212Y016828D02*
X007271Y016828D01*
X007181Y016987D02*
X008212Y016987D01*
X008329Y017146D02*
X006980Y017146D01*
X006618Y017304D02*
X008488Y017304D01*
X006108Y016670D02*
X006027Y016670D01*
X006108Y016511D02*
X002567Y016511D01*
X002567Y016353D02*
X006162Y016353D01*
X006268Y016194D02*
X002567Y016194D01*
X002567Y016670D02*
X005662Y016670D01*
X002683Y016828D02*
X002567Y016828D01*
X008635Y020266D02*
X008635Y020266D01*
D19*
X022187Y007181D03*
X023187Y007181D03*
X024187Y007181D03*
X025187Y007181D03*
X026187Y007181D03*
X027187Y007181D03*
X028187Y007181D03*
X028187Y006181D03*
X027187Y006181D03*
X026187Y006181D03*
X026187Y005181D03*
X027187Y005181D03*
X028187Y005181D03*
X028187Y004181D03*
X027187Y004181D03*
X026187Y004181D03*
X026187Y003181D03*
X027187Y003181D03*
X028187Y003181D03*
X025187Y003181D03*
X024187Y003181D03*
X023187Y003181D03*
X022187Y003181D03*
X022187Y004181D03*
X023187Y004181D03*
X024187Y004181D03*
X025187Y004181D03*
X025187Y005181D03*
X024187Y005181D03*
X023187Y005181D03*
X022187Y005181D03*
X022187Y006181D03*
X023187Y006181D03*
X024187Y006181D03*
X025187Y006181D03*
M02*
