G75*
G70*
%OFA0B0*%
%FSLAX24Y24*%
%IPPOS*%
%LPD*%
%AMOC8*
5,1,8,0,0,1.08239X$1,22.5*
%
%ADD10C,0.0150*%
%ADD11R,0.0512X0.0591*%
%ADD12R,0.0591X0.0512*%
%ADD13OC8,0.0630*%
%ADD14C,0.0630*%
%ADD15C,0.1227*%
%ADD16C,0.0886*%
%ADD17R,0.0512X0.0630*%
%ADD18R,0.0630X0.0512*%
%ADD19R,0.0260X0.0800*%
%ADD20R,0.2100X0.0760*%
%ADD21R,0.0787X0.0787*%
%ADD22R,0.0787X0.0394*%
%ADD23R,0.1492X0.0433*%
%ADD24R,0.1181X0.1063*%
%ADD25R,0.1378X0.0276*%
%ADD26OC8,0.0600*%
%ADD27C,0.0600*%
%ADD28R,0.0272X0.0390*%
%ADD29C,0.0100*%
%ADD30C,0.0400*%
%ADD31C,0.0160*%
%ADD32C,0.0591*%
D10*
X007762Y012756D02*
X008067Y012756D01*
X008169Y012858D01*
X008169Y012960D01*
X008067Y013062D01*
X007762Y013062D01*
X007762Y013367D02*
X007762Y012756D01*
X008067Y013062D02*
X008169Y013163D01*
X008169Y013265D01*
X008067Y013367D01*
X007762Y013367D01*
D11*
X011243Y013981D03*
X012031Y013981D03*
X012031Y014931D03*
X011243Y014931D03*
X017793Y005931D03*
X018581Y005931D03*
X026793Y012931D03*
X027581Y012931D03*
X027581Y013681D03*
X026793Y013681D03*
X026793Y014431D03*
X027581Y014431D03*
D12*
X026187Y016788D03*
X026187Y017575D03*
X025187Y017575D03*
X025187Y016788D03*
X024187Y016788D03*
X024187Y017575D03*
X023187Y017575D03*
X023187Y016788D03*
X021187Y016788D03*
X021187Y017575D03*
X015987Y016575D03*
X015987Y015788D03*
X022987Y010975D03*
X022987Y010188D03*
X021187Y004575D03*
X021187Y003788D03*
X018687Y003788D03*
X018687Y004575D03*
D13*
X008687Y016831D03*
X008687Y019631D03*
D14*
X009687Y019631D03*
X009687Y016831D03*
D15*
X005845Y017431D03*
X003089Y017510D03*
D16*
X006711Y016605D03*
X006238Y020148D03*
D17*
X016043Y005931D03*
X016831Y005931D03*
X019543Y005931D03*
X020331Y005931D03*
D18*
X019687Y004575D03*
X019687Y003788D03*
X015687Y003788D03*
X015687Y004575D03*
X017587Y016788D03*
X017587Y017575D03*
X020187Y017575D03*
X020187Y016788D03*
D19*
X019959Y014755D03*
X019459Y014755D03*
X018959Y014755D03*
X018459Y014755D03*
X017959Y014755D03*
X017459Y014755D03*
X016959Y014755D03*
X016459Y014755D03*
X015959Y014755D03*
X015459Y014755D03*
X014959Y014755D03*
X014959Y010795D03*
X015459Y010795D03*
X015959Y010795D03*
X016459Y010795D03*
X016959Y010795D03*
X017459Y010795D03*
X017959Y010795D03*
X018459Y010795D03*
X018959Y010795D03*
X019459Y010795D03*
X019959Y010795D03*
X020459Y010795D03*
X020959Y010795D03*
X021459Y010795D03*
X021459Y014755D03*
X020959Y014755D03*
X020459Y014755D03*
D20*
X020063Y007579D03*
X016263Y007579D03*
D21*
G36*
X025033Y008999D02*
X024478Y009554D01*
X025033Y010109D01*
X025588Y009554D01*
X025033Y008999D01*
G37*
G36*
X027288Y011254D02*
X026733Y011809D01*
X027288Y012364D01*
X027843Y011809D01*
X027288Y011254D01*
G37*
D22*
G36*
X027809Y009548D02*
X027254Y010103D01*
X027533Y010382D01*
X028088Y009827D01*
X027809Y009548D01*
G37*
G36*
X027412Y009151D02*
X026857Y009706D01*
X027136Y009985D01*
X027691Y009430D01*
X027412Y009151D01*
G37*
G36*
X027016Y008754D02*
X026461Y009309D01*
X026740Y009588D01*
X027295Y009033D01*
X027016Y008754D01*
G37*
G36*
X024789Y010981D02*
X024234Y011536D01*
X024513Y011815D01*
X025068Y011260D01*
X024789Y010981D01*
G37*
G36*
X025185Y011378D02*
X024630Y011933D01*
X024909Y012212D01*
X025464Y011657D01*
X025185Y011378D01*
G37*
G36*
X025582Y011775D02*
X025027Y012330D01*
X025306Y012609D01*
X025861Y012054D01*
X025582Y011775D01*
G37*
D23*
X005494Y003933D03*
X005297Y004918D03*
X004982Y005902D03*
X004982Y006886D03*
X005297Y007870D03*
X005297Y008855D03*
X005297Y009839D03*
X005297Y010479D03*
X004392Y002949D03*
D24*
X004118Y001237D03*
X004118Y012300D03*
D25*
X011953Y011906D03*
X011953Y011512D03*
X011953Y010922D03*
D26*
X012687Y005681D03*
X012687Y004681D03*
X012687Y003681D03*
D27*
X015187Y001481D02*
X015187Y000881D01*
X016187Y000881D02*
X016187Y001481D01*
X017187Y001481D02*
X017187Y000881D01*
X018187Y000881D02*
X018187Y001481D01*
X019187Y001481D02*
X019187Y000881D01*
X020187Y000881D02*
X020187Y001481D01*
X022187Y001481D02*
X022187Y000881D01*
X023187Y000881D02*
X023187Y001481D01*
X024187Y001481D02*
X024187Y000881D01*
X025187Y000881D02*
X025187Y001481D01*
X026187Y001481D02*
X026187Y000881D01*
X027187Y000881D02*
X027187Y001481D01*
X027187Y019881D02*
X027187Y020481D01*
X026187Y020481D02*
X026187Y019881D01*
X025187Y019881D02*
X025187Y020481D01*
X024187Y020481D02*
X024187Y019881D01*
X023187Y019881D02*
X023187Y020481D01*
X022187Y020481D02*
X022187Y019881D01*
X021187Y019881D02*
X021187Y020481D01*
X020187Y020481D02*
X020187Y019881D01*
X018587Y019881D02*
X018587Y020481D01*
X017587Y020481D02*
X017587Y019881D01*
X016587Y019881D02*
X016587Y020481D01*
X015587Y020481D02*
X015587Y019881D01*
X014587Y019881D02*
X014587Y020481D01*
X013587Y020481D02*
X013587Y019881D01*
X012587Y019881D02*
X012587Y020481D01*
X011587Y020481D02*
X011587Y019881D01*
D28*
X016813Y004681D03*
X017561Y004681D03*
X017561Y003662D03*
X017187Y003662D03*
X016813Y003662D03*
D29*
X016813Y003931D01*
X016815Y003961D01*
X016820Y003991D01*
X016829Y004020D01*
X016842Y004047D01*
X016857Y004073D01*
X016876Y004097D01*
X016897Y004118D01*
X016921Y004137D01*
X016947Y004152D01*
X016974Y004165D01*
X017003Y004174D01*
X017033Y004179D01*
X017063Y004181D01*
X017561Y004181D01*
X017737Y004181D01*
X017561Y004181D02*
X017561Y003662D01*
X017987Y003931D02*
X017985Y003961D01*
X017980Y003991D01*
X017971Y004020D01*
X017958Y004047D01*
X017943Y004073D01*
X017924Y004097D01*
X017903Y004118D01*
X017879Y004137D01*
X017853Y004152D01*
X017826Y004165D01*
X017797Y004174D01*
X017767Y004179D01*
X017737Y004181D01*
X017987Y003931D02*
X017989Y003908D01*
X017994Y003887D01*
X018003Y003866D01*
X018015Y003846D01*
X018029Y003829D01*
X018046Y003815D01*
X018066Y003803D01*
X018087Y003794D01*
X018108Y003789D01*
X018131Y003787D01*
X018131Y003788D02*
X018687Y003788D01*
X019437Y003181D02*
X019467Y003183D01*
X019497Y003188D01*
X019526Y003197D01*
X019553Y003210D01*
X019579Y003225D01*
X019603Y003244D01*
X019624Y003265D01*
X019643Y003289D01*
X019658Y003315D01*
X019671Y003342D01*
X019680Y003371D01*
X019685Y003401D01*
X019687Y003431D01*
X019687Y003788D01*
X019437Y003181D02*
X018087Y003181D01*
X017187Y003181D01*
X017187Y003662D01*
X017187Y003181D02*
X015937Y003181D01*
X015907Y003183D01*
X015877Y003188D01*
X015848Y003197D01*
X015821Y003210D01*
X015795Y003225D01*
X015771Y003244D01*
X015750Y003265D01*
X015731Y003289D01*
X015716Y003315D01*
X015703Y003342D01*
X015694Y003371D01*
X015689Y003401D01*
X015687Y003431D01*
X015687Y003788D01*
X015687Y004575D02*
X015687Y005181D01*
X016563Y005181D01*
X016593Y005179D01*
X016623Y005174D01*
X016652Y005165D01*
X016679Y005152D01*
X016705Y005137D01*
X016729Y005118D01*
X016750Y005097D01*
X016769Y005073D01*
X016784Y005047D01*
X016797Y005020D01*
X016806Y004991D01*
X016811Y004961D01*
X016813Y004931D01*
X016813Y004681D01*
X015687Y005181D02*
X015081Y005181D01*
X015042Y005183D01*
X015004Y005189D01*
X014967Y005198D01*
X014930Y005211D01*
X014895Y005228D01*
X014862Y005247D01*
X014831Y005270D01*
X014802Y005296D01*
X014776Y005325D01*
X014753Y005356D01*
X014734Y005389D01*
X014717Y005424D01*
X014704Y005461D01*
X014695Y005498D01*
X014689Y005536D01*
X014687Y005575D01*
X014687Y008981D01*
X014081Y009682D02*
X014042Y009680D01*
X014004Y009674D01*
X013967Y009665D01*
X013930Y009652D01*
X013895Y009635D01*
X013862Y009616D01*
X013831Y009593D01*
X013802Y009567D01*
X013776Y009538D01*
X013753Y009507D01*
X013734Y009474D01*
X013717Y009439D01*
X013704Y009402D01*
X013695Y009365D01*
X013689Y009327D01*
X013687Y009288D01*
X013687Y003075D01*
X013689Y003036D01*
X013695Y002998D01*
X013704Y002961D01*
X013717Y002924D01*
X013734Y002889D01*
X013753Y002856D01*
X013776Y002825D01*
X013802Y002796D01*
X013831Y002770D01*
X013862Y002747D01*
X013895Y002728D01*
X013930Y002711D01*
X013967Y002698D01*
X014004Y002689D01*
X014042Y002683D01*
X014081Y002681D01*
X022793Y002681D01*
X022793Y002682D02*
X022832Y002680D01*
X022870Y002674D01*
X022907Y002665D01*
X022944Y002652D01*
X022979Y002635D01*
X023012Y002616D01*
X023043Y002593D01*
X023072Y002567D01*
X023098Y002538D01*
X023121Y002507D01*
X023140Y002474D01*
X023157Y002439D01*
X023170Y002402D01*
X023179Y002365D01*
X023185Y002327D01*
X023187Y002288D01*
X023187Y001181D01*
X020687Y002181D02*
X017581Y002181D01*
X017581Y002182D02*
X017542Y002180D01*
X017504Y002174D01*
X017467Y002165D01*
X017430Y002152D01*
X017395Y002135D01*
X017362Y002116D01*
X017331Y002093D01*
X017302Y002067D01*
X017276Y002038D01*
X017253Y002007D01*
X017234Y001974D01*
X017217Y001939D01*
X017204Y001902D01*
X017195Y001865D01*
X017189Y001827D01*
X017187Y001788D01*
X017187Y001181D01*
X018187Y001181D02*
X019187Y001181D01*
X021187Y003181D02*
X021187Y003788D01*
X021187Y004575D02*
X021187Y005181D01*
X020993Y005931D02*
X020331Y005931D01*
X019543Y005931D02*
X018581Y005931D01*
X017793Y005931D02*
X016831Y005931D01*
X016831Y007579D01*
X016587Y007579D01*
X016263Y007579D01*
X016587Y007579D02*
X016587Y007581D01*
X017565Y007581D01*
X017604Y007583D01*
X017642Y007589D01*
X017679Y007598D01*
X017716Y007611D01*
X017751Y007628D01*
X017784Y007647D01*
X017815Y007670D01*
X017844Y007696D01*
X017870Y007725D01*
X017893Y007756D01*
X017912Y007789D01*
X017929Y007824D01*
X017942Y007861D01*
X017951Y007898D01*
X017957Y007936D01*
X017959Y007975D01*
X017959Y010795D01*
X018459Y010795D02*
X018459Y007975D01*
X018458Y007975D02*
X018460Y007936D01*
X018466Y007898D01*
X018475Y007861D01*
X018488Y007824D01*
X018505Y007789D01*
X018524Y007756D01*
X018547Y007725D01*
X018573Y007696D01*
X018602Y007670D01*
X018633Y007647D01*
X018666Y007628D01*
X018701Y007611D01*
X018738Y007598D01*
X018775Y007589D01*
X018813Y007583D01*
X018852Y007581D01*
X019787Y007581D01*
X019543Y007581D01*
X019543Y005931D01*
X020993Y005931D02*
X021032Y005933D01*
X021070Y005939D01*
X021107Y005948D01*
X021144Y005961D01*
X021179Y005978D01*
X021212Y005997D01*
X021243Y006020D01*
X021272Y006046D01*
X021298Y006075D01*
X021321Y006106D01*
X021340Y006139D01*
X021357Y006174D01*
X021370Y006211D01*
X021379Y006248D01*
X021385Y006286D01*
X021387Y006325D01*
X021387Y007588D01*
X021389Y007627D01*
X021395Y007665D01*
X021404Y007702D01*
X021417Y007739D01*
X021434Y007774D01*
X021453Y007807D01*
X021476Y007838D01*
X021502Y007867D01*
X021531Y007893D01*
X021562Y007916D01*
X021595Y007935D01*
X021630Y007952D01*
X021667Y007965D01*
X021704Y007974D01*
X021742Y007980D01*
X021781Y007982D01*
X021781Y007981D02*
X027267Y007981D01*
X027306Y007983D01*
X027344Y007989D01*
X027381Y007998D01*
X027418Y008011D01*
X027453Y008028D01*
X027486Y008047D01*
X027517Y008070D01*
X027546Y008096D01*
X027572Y008125D01*
X027595Y008156D01*
X027614Y008189D01*
X027631Y008224D01*
X027644Y008261D01*
X027653Y008298D01*
X027659Y008336D01*
X027661Y008375D01*
X027661Y009018D01*
X028187Y009286D02*
X028185Y009325D01*
X028179Y009363D01*
X028170Y009400D01*
X028157Y009437D01*
X028140Y009472D01*
X028121Y009505D01*
X028098Y009536D01*
X028072Y009565D01*
X028072Y009564D02*
X027671Y009965D01*
X028187Y009286D02*
X028187Y007981D01*
X027030Y008381D02*
X026187Y008381D01*
X027153Y008897D02*
X027179Y008868D01*
X027202Y008837D01*
X027221Y008804D01*
X027238Y008769D01*
X027251Y008732D01*
X027260Y008695D01*
X027266Y008657D01*
X027268Y008618D01*
X027267Y008618D02*
X027265Y008589D01*
X027260Y008561D01*
X027252Y008534D01*
X027240Y008508D01*
X027225Y008483D01*
X027207Y008461D01*
X027187Y008441D01*
X027165Y008423D01*
X027140Y008408D01*
X027114Y008396D01*
X027087Y008388D01*
X027059Y008383D01*
X027030Y008381D01*
X027152Y008897D02*
X026878Y009171D01*
X027546Y009297D02*
X027572Y009268D01*
X027595Y009237D01*
X027614Y009204D01*
X027631Y009169D01*
X027644Y009132D01*
X027653Y009095D01*
X027659Y009057D01*
X027661Y009018D01*
X024651Y011398D02*
X024243Y011806D01*
X023964Y011922D02*
X023928Y011920D01*
X023892Y011915D01*
X023856Y011906D01*
X023822Y011894D01*
X023789Y011878D01*
X023758Y011859D01*
X023729Y011838D01*
X023702Y011813D01*
X023677Y011786D01*
X023656Y011757D01*
X023637Y011726D01*
X023621Y011693D01*
X023609Y011659D01*
X023600Y011623D01*
X023595Y011587D01*
X023593Y011551D01*
X023593Y011381D01*
X023587Y008981D01*
X021459Y009375D02*
X021459Y010795D01*
X021459Y011188D01*
X021458Y011188D02*
X021460Y011227D01*
X021466Y011265D01*
X021475Y011302D01*
X021488Y011339D01*
X021505Y011374D01*
X021524Y011407D01*
X021547Y011438D01*
X021573Y011467D01*
X021602Y011493D01*
X021633Y011516D01*
X021666Y011535D01*
X021701Y011552D01*
X021738Y011565D01*
X021775Y011574D01*
X021813Y011580D01*
X021852Y011582D01*
X021852Y011581D02*
X022187Y011581D01*
X022987Y011781D02*
X022987Y010975D01*
X022987Y011781D02*
X022989Y011807D01*
X022994Y011833D01*
X023002Y011858D01*
X023014Y011881D01*
X023028Y011903D01*
X023046Y011922D01*
X023065Y011940D01*
X023087Y011954D01*
X023110Y011966D01*
X023135Y011974D01*
X023161Y011979D01*
X023187Y011981D01*
X021352Y011981D01*
X021352Y011982D02*
X021313Y011980D01*
X021275Y011974D01*
X021238Y011965D01*
X021201Y011952D01*
X021166Y011935D01*
X021133Y011916D01*
X021102Y011893D01*
X021073Y011867D01*
X021047Y011838D01*
X021024Y011807D01*
X021005Y011774D01*
X020988Y011739D01*
X020975Y011702D01*
X020966Y011665D01*
X020960Y011627D01*
X020958Y011588D01*
X020959Y011588D02*
X020959Y010795D01*
X020959Y009775D01*
X020957Y009736D01*
X020951Y009698D01*
X020942Y009661D01*
X020929Y009624D01*
X020912Y009589D01*
X020893Y009556D01*
X020870Y009525D01*
X020844Y009496D01*
X020815Y009470D01*
X020784Y009447D01*
X020751Y009428D01*
X020716Y009411D01*
X020679Y009398D01*
X020642Y009389D01*
X020604Y009383D01*
X020565Y009381D01*
X019987Y009381D01*
X019987Y009981D02*
X020065Y009981D01*
X020104Y009983D01*
X020142Y009989D01*
X020179Y009998D01*
X020216Y010011D01*
X020251Y010028D01*
X020284Y010047D01*
X020315Y010070D01*
X020344Y010096D01*
X020370Y010125D01*
X020393Y010156D01*
X020412Y010189D01*
X020429Y010224D01*
X020442Y010261D01*
X020451Y010298D01*
X020457Y010336D01*
X020459Y010375D01*
X020459Y010795D01*
X020459Y011988D01*
X020458Y011988D02*
X020460Y012027D01*
X020466Y012065D01*
X020475Y012102D01*
X020488Y012139D01*
X020505Y012174D01*
X020524Y012207D01*
X020547Y012238D01*
X020573Y012267D01*
X020602Y012293D01*
X020633Y012316D01*
X020666Y012335D01*
X020701Y012352D01*
X020738Y012365D01*
X020775Y012374D01*
X020813Y012380D01*
X020852Y012382D01*
X020852Y012381D02*
X022593Y012381D01*
X022632Y012383D01*
X022670Y012389D01*
X022707Y012398D01*
X022744Y012411D01*
X022779Y012428D01*
X022812Y012447D01*
X022843Y012470D01*
X022872Y012496D01*
X022898Y012525D01*
X022921Y012556D01*
X022940Y012589D01*
X022957Y012624D01*
X022970Y012661D01*
X022979Y012698D01*
X022985Y012736D01*
X022987Y012775D01*
X022987Y013388D01*
X022787Y013175D02*
X022787Y013788D01*
X022587Y013575D02*
X022587Y014188D01*
X022589Y014227D01*
X022595Y014265D01*
X022604Y014302D01*
X022617Y014339D01*
X022634Y014374D01*
X022653Y014407D01*
X022676Y014438D01*
X022702Y014467D01*
X022731Y014493D01*
X022762Y014516D01*
X022795Y014535D01*
X022830Y014552D01*
X022867Y014565D01*
X022904Y014574D01*
X022942Y014580D01*
X022981Y014582D01*
X022981Y014581D02*
X026187Y014581D01*
X026187Y016788D01*
X026187Y017575D02*
X026187Y019131D01*
X026185Y019161D01*
X026180Y019191D01*
X026171Y019220D01*
X026158Y019247D01*
X026143Y019273D01*
X026124Y019297D01*
X026103Y019318D01*
X026079Y019337D01*
X026053Y019352D01*
X026026Y019365D01*
X025997Y019374D01*
X025967Y019379D01*
X025937Y019381D01*
X025437Y019381D01*
X025407Y019383D01*
X025377Y019388D01*
X025348Y019397D01*
X025321Y019410D01*
X025295Y019425D01*
X025271Y019444D01*
X025250Y019465D01*
X025231Y019489D01*
X025216Y019515D01*
X025203Y019542D01*
X025194Y019571D01*
X025189Y019601D01*
X025187Y019631D01*
X025187Y020181D01*
X024187Y020181D02*
X024187Y019181D01*
X024937Y019181D01*
X024967Y019179D01*
X024997Y019174D01*
X025026Y019165D01*
X025053Y019152D01*
X025079Y019137D01*
X025103Y019118D01*
X025124Y019097D01*
X025143Y019073D01*
X025158Y019047D01*
X025171Y019020D01*
X025180Y018991D01*
X025185Y018961D01*
X025187Y018931D01*
X025187Y017575D01*
X024687Y018181D02*
X024687Y018588D01*
X024685Y018627D01*
X024679Y018665D01*
X024670Y018702D01*
X024657Y018739D01*
X024640Y018774D01*
X024621Y018807D01*
X024598Y018838D01*
X024572Y018867D01*
X024543Y018893D01*
X024512Y018916D01*
X024479Y018935D01*
X024444Y018952D01*
X024407Y018965D01*
X024370Y018974D01*
X024332Y018980D01*
X024293Y018982D01*
X024293Y018981D02*
X018981Y018981D01*
X018942Y018983D01*
X018904Y018989D01*
X018867Y018998D01*
X018830Y019011D01*
X018795Y019028D01*
X018762Y019047D01*
X018731Y019070D01*
X018702Y019096D01*
X018676Y019125D01*
X018653Y019156D01*
X018634Y019189D01*
X018617Y019224D01*
X018604Y019261D01*
X018595Y019298D01*
X018589Y019336D01*
X018587Y019375D01*
X018587Y020181D01*
X017187Y019175D02*
X017189Y019136D01*
X017195Y019098D01*
X017204Y019061D01*
X017217Y019024D01*
X017234Y018989D01*
X017253Y018956D01*
X017276Y018925D01*
X017302Y018896D01*
X017331Y018870D01*
X017362Y018847D01*
X017395Y018828D01*
X017430Y018811D01*
X017467Y018798D01*
X017504Y018789D01*
X017542Y018783D01*
X017581Y018781D01*
X023793Y018781D01*
X023793Y018782D02*
X023832Y018780D01*
X023870Y018774D01*
X023907Y018765D01*
X023944Y018752D01*
X023979Y018735D01*
X024012Y018716D01*
X024043Y018693D01*
X024072Y018667D01*
X024098Y018638D01*
X024121Y018607D01*
X024140Y018574D01*
X024157Y018539D01*
X024170Y018502D01*
X024179Y018465D01*
X024185Y018427D01*
X024187Y018388D01*
X024187Y017575D01*
X024187Y016788D02*
X024187Y015981D01*
X024787Y016181D02*
X024937Y016181D01*
X024967Y016183D01*
X024997Y016188D01*
X025026Y016197D01*
X025053Y016210D01*
X025079Y016225D01*
X025103Y016244D01*
X025124Y016265D01*
X025143Y016289D01*
X025158Y016315D01*
X025171Y016342D01*
X025180Y016371D01*
X025185Y016401D01*
X025187Y016431D01*
X025187Y016788D01*
X023187Y016788D02*
X023187Y015981D01*
X022187Y015981D02*
X022187Y017988D01*
X022185Y018027D01*
X022179Y018065D01*
X022170Y018102D01*
X022157Y018139D01*
X022140Y018174D01*
X022121Y018207D01*
X022098Y018238D01*
X022072Y018267D01*
X022043Y018293D01*
X022012Y018316D01*
X021979Y018335D01*
X021944Y018352D01*
X021907Y018365D01*
X021870Y018374D01*
X021832Y018380D01*
X021793Y018382D01*
X021793Y018381D02*
X014981Y018381D01*
X014942Y018383D01*
X014904Y018389D01*
X014867Y018398D01*
X014830Y018411D01*
X014795Y018428D01*
X014762Y018447D01*
X014731Y018470D01*
X014702Y018496D01*
X014676Y018525D01*
X014653Y018556D01*
X014634Y018589D01*
X014617Y018624D01*
X014604Y018661D01*
X014595Y018698D01*
X014589Y018736D01*
X014587Y018775D01*
X014587Y020181D01*
X015587Y020181D02*
X015587Y018975D01*
X015589Y018936D01*
X015595Y018898D01*
X015604Y018861D01*
X015617Y018824D01*
X015634Y018789D01*
X015653Y018756D01*
X015676Y018725D01*
X015702Y018696D01*
X015731Y018670D01*
X015762Y018647D01*
X015795Y018628D01*
X015830Y018611D01*
X015867Y018598D01*
X015904Y018589D01*
X015942Y018583D01*
X015981Y018581D01*
X022793Y018581D01*
X022793Y018582D02*
X022832Y018580D01*
X022870Y018574D01*
X022907Y018565D01*
X022944Y018552D01*
X022979Y018535D01*
X023012Y018516D01*
X023043Y018493D01*
X023072Y018467D01*
X023098Y018438D01*
X023121Y018407D01*
X023140Y018374D01*
X023157Y018339D01*
X023170Y018302D01*
X023179Y018265D01*
X023185Y018227D01*
X023187Y018188D01*
X023187Y017575D01*
X021187Y017575D02*
X020187Y017575D01*
X019852Y017575D01*
X019813Y017573D01*
X019775Y017567D01*
X019738Y017558D01*
X019701Y017545D01*
X019666Y017528D01*
X019633Y017509D01*
X019602Y017486D01*
X019573Y017460D01*
X019547Y017431D01*
X019524Y017400D01*
X019505Y017367D01*
X019488Y017332D01*
X019475Y017295D01*
X019466Y017258D01*
X019460Y017220D01*
X019458Y017181D01*
X019459Y017181D02*
X019459Y015781D01*
X019459Y014755D01*
X019959Y014755D02*
X019959Y016081D01*
X021187Y015781D02*
X021187Y016781D01*
X021187Y015781D02*
X021459Y015781D01*
X021459Y014755D01*
X022587Y013575D02*
X022585Y013536D01*
X022579Y013498D01*
X022570Y013461D01*
X022557Y013424D01*
X022540Y013389D01*
X022521Y013356D01*
X022498Y013325D01*
X022472Y013296D01*
X022443Y013270D01*
X022412Y013247D01*
X022379Y013228D01*
X022344Y013211D01*
X022307Y013198D01*
X022270Y013189D01*
X022232Y013183D01*
X022193Y013181D01*
X016781Y013181D01*
X016747Y013179D01*
X016714Y013174D01*
X016681Y013165D01*
X016650Y013153D01*
X016620Y013138D01*
X016592Y013120D01*
X016566Y013098D01*
X016542Y013074D01*
X016520Y013048D01*
X016502Y013020D01*
X016487Y012990D01*
X016475Y012959D01*
X016466Y012926D01*
X016461Y012893D01*
X016459Y012859D01*
X016459Y010795D01*
X016959Y010795D02*
X016959Y012288D01*
X016958Y012288D02*
X016960Y012327D01*
X016966Y012365D01*
X016975Y012402D01*
X016988Y012439D01*
X017005Y012474D01*
X017024Y012507D01*
X017047Y012538D01*
X017073Y012567D01*
X017102Y012593D01*
X017133Y012616D01*
X017166Y012635D01*
X017201Y012652D01*
X017238Y012665D01*
X017275Y012674D01*
X017313Y012680D01*
X017352Y012682D01*
X017352Y012681D02*
X018959Y012681D01*
X018959Y010795D01*
X019459Y010795D02*
X019459Y011781D01*
X019959Y012388D02*
X019959Y010795D01*
X019958Y012388D02*
X019960Y012427D01*
X019966Y012465D01*
X019975Y012502D01*
X019988Y012539D01*
X020005Y012574D01*
X020024Y012607D01*
X020047Y012638D01*
X020073Y012667D01*
X020102Y012693D01*
X020133Y012716D01*
X020166Y012735D01*
X020201Y012752D01*
X020238Y012765D01*
X020275Y012774D01*
X020313Y012780D01*
X020352Y012782D01*
X020352Y012781D02*
X022393Y012781D01*
X022432Y012783D01*
X022470Y012789D01*
X022507Y012798D01*
X022544Y012811D01*
X022579Y012828D01*
X022612Y012847D01*
X022643Y012870D01*
X022672Y012896D01*
X022698Y012925D01*
X022721Y012956D01*
X022740Y012989D01*
X022757Y013024D01*
X022770Y013061D01*
X022779Y013098D01*
X022785Y013136D01*
X022787Y013175D01*
X022987Y013388D02*
X022989Y013427D01*
X022995Y013465D01*
X023004Y013502D01*
X023017Y013539D01*
X023034Y013574D01*
X023053Y013607D01*
X023076Y013638D01*
X023102Y013667D01*
X023131Y013693D01*
X023162Y013716D01*
X023195Y013735D01*
X023230Y013752D01*
X023267Y013765D01*
X023304Y013774D01*
X023342Y013780D01*
X023381Y013782D01*
X023381Y013781D02*
X024187Y013781D01*
X025437Y013781D01*
X025467Y013779D01*
X025497Y013774D01*
X025526Y013765D01*
X025553Y013752D01*
X025579Y013737D01*
X025603Y013718D01*
X025624Y013697D01*
X025643Y013673D01*
X025658Y013647D01*
X025671Y013620D01*
X025680Y013591D01*
X025685Y013561D01*
X025687Y013531D01*
X025687Y013181D01*
X025689Y013151D01*
X025694Y013121D01*
X025703Y013092D01*
X025716Y013065D01*
X025731Y013039D01*
X025750Y013015D01*
X025771Y012994D01*
X025795Y012975D01*
X025821Y012960D01*
X025848Y012947D01*
X025877Y012938D01*
X025907Y012933D01*
X025937Y012931D01*
X026793Y012931D01*
X027581Y012931D02*
X027581Y013575D01*
X027583Y013593D01*
X027587Y013611D01*
X027595Y013628D01*
X027606Y013643D01*
X027619Y013656D01*
X027634Y013667D01*
X027651Y013675D01*
X027669Y013679D01*
X027687Y013681D01*
X026793Y013681D02*
X026437Y013681D01*
X026407Y013683D01*
X026377Y013688D01*
X026348Y013697D01*
X026321Y013710D01*
X026295Y013725D01*
X026271Y013744D01*
X026250Y013765D01*
X026231Y013789D01*
X026216Y013815D01*
X026203Y013842D01*
X026194Y013871D01*
X026189Y013901D01*
X026187Y013931D01*
X026185Y013961D01*
X026180Y013991D01*
X026171Y014020D01*
X026158Y014047D01*
X026143Y014073D01*
X026124Y014097D01*
X026103Y014118D01*
X026079Y014137D01*
X026053Y014152D01*
X026026Y014165D01*
X025997Y014174D01*
X025967Y014179D01*
X025937Y014181D01*
X024787Y014181D01*
X023181Y014181D01*
X023181Y014182D02*
X023142Y014180D01*
X023104Y014174D01*
X023067Y014165D01*
X023030Y014152D01*
X022995Y014135D01*
X022962Y014116D01*
X022931Y014093D01*
X022902Y014067D01*
X022876Y014038D01*
X022853Y014007D01*
X022834Y013974D01*
X022817Y013939D01*
X022804Y013902D01*
X022795Y013865D01*
X022789Y013827D01*
X022787Y013788D01*
X024476Y012366D02*
X025047Y011795D01*
X025444Y012192D02*
X025102Y012533D01*
X024987Y012812D02*
X024987Y013381D01*
X024987Y012812D02*
X024989Y012773D01*
X024995Y012735D01*
X025004Y012698D01*
X025017Y012661D01*
X025034Y012626D01*
X025053Y012593D01*
X025076Y012562D01*
X025102Y012533D01*
X024476Y012365D02*
X024454Y012391D01*
X024434Y012419D01*
X024417Y012449D01*
X024404Y012480D01*
X024395Y012513D01*
X024389Y012547D01*
X024387Y012581D01*
X023964Y011922D02*
X024003Y011920D01*
X024041Y011914D01*
X024078Y011905D01*
X024115Y011892D01*
X024150Y011875D01*
X024183Y011856D01*
X024214Y011833D01*
X024243Y011807D01*
X021459Y009375D02*
X021457Y009336D01*
X021451Y009298D01*
X021442Y009261D01*
X021429Y009224D01*
X021412Y009189D01*
X021393Y009156D01*
X021370Y009125D01*
X021344Y009096D01*
X021315Y009070D01*
X021284Y009047D01*
X021251Y009028D01*
X021216Y009011D01*
X021179Y008998D01*
X021142Y008989D01*
X021104Y008983D01*
X021065Y008981D01*
X020787Y008981D01*
X020063Y007581D02*
X019787Y007581D01*
X020063Y007581D02*
X020063Y007579D01*
X016959Y008981D02*
X016959Y010795D01*
X017459Y010795D02*
X017459Y011781D01*
X015959Y010795D02*
X015959Y009781D01*
X016437Y009781D01*
X015959Y009781D02*
X015959Y008975D01*
X015957Y008936D01*
X015951Y008898D01*
X015942Y008861D01*
X015929Y008824D01*
X015912Y008789D01*
X015893Y008756D01*
X015870Y008725D01*
X015844Y008696D01*
X015815Y008670D01*
X015784Y008647D01*
X015751Y008628D01*
X015716Y008611D01*
X015679Y008598D01*
X015642Y008589D01*
X015604Y008583D01*
X015565Y008581D01*
X015487Y008581D01*
X015459Y009781D02*
X015459Y010795D01*
X014959Y010795D02*
X014959Y010075D01*
X014957Y010036D01*
X014951Y009998D01*
X014942Y009961D01*
X014929Y009924D01*
X014912Y009889D01*
X014893Y009856D01*
X014870Y009825D01*
X014844Y009796D01*
X014815Y009770D01*
X014784Y009747D01*
X014751Y009728D01*
X014716Y009711D01*
X014679Y009698D01*
X014642Y009689D01*
X014604Y009683D01*
X014565Y009681D01*
X014081Y009681D01*
X013437Y009575D02*
X013437Y011512D01*
X013187Y011181D02*
X013187Y010075D01*
X013185Y010036D01*
X013179Y009998D01*
X013170Y009961D01*
X013157Y009924D01*
X013140Y009889D01*
X013121Y009856D01*
X013098Y009825D01*
X013072Y009796D01*
X013043Y009770D01*
X013012Y009747D01*
X012979Y009728D01*
X012944Y009711D01*
X012907Y009698D01*
X012870Y009689D01*
X012832Y009683D01*
X012793Y009681D01*
X011581Y009681D01*
X011581Y009682D02*
X011542Y009680D01*
X011504Y009674D01*
X011467Y009665D01*
X011430Y009652D01*
X011395Y009635D01*
X011362Y009616D01*
X011331Y009593D01*
X011302Y009567D01*
X011276Y009538D01*
X011253Y009507D01*
X011234Y009474D01*
X011217Y009439D01*
X011204Y009402D01*
X011195Y009365D01*
X011189Y009327D01*
X011187Y009288D01*
X011187Y005075D01*
X011189Y005036D01*
X011195Y004998D01*
X011204Y004961D01*
X011217Y004924D01*
X011234Y004889D01*
X011253Y004856D01*
X011276Y004825D01*
X011302Y004796D01*
X011331Y004770D01*
X011362Y004747D01*
X011395Y004728D01*
X011430Y004711D01*
X011467Y004698D01*
X011504Y004689D01*
X011542Y004683D01*
X011581Y004681D01*
X012687Y004681D01*
X012687Y003681D02*
X011081Y003681D01*
X011042Y003683D01*
X011004Y003689D01*
X010967Y003698D01*
X010930Y003711D01*
X010895Y003728D01*
X010862Y003747D01*
X010831Y003770D01*
X010802Y003796D01*
X010776Y003825D01*
X010753Y003856D01*
X010734Y003889D01*
X010717Y003924D01*
X010704Y003961D01*
X010695Y003998D01*
X010689Y004036D01*
X010687Y004075D01*
X010687Y010528D01*
X010689Y010567D01*
X010695Y010605D01*
X010704Y010642D01*
X010717Y010679D01*
X010734Y010714D01*
X010753Y010747D01*
X010776Y010778D01*
X010802Y010807D01*
X010831Y010833D01*
X010862Y010856D01*
X010895Y010875D01*
X010930Y010892D01*
X010967Y010905D01*
X011004Y010914D01*
X011042Y010920D01*
X011081Y010922D01*
X011953Y010922D01*
X011953Y011512D02*
X012856Y011512D01*
X013043Y011906D02*
X013082Y011904D01*
X013120Y011898D01*
X013157Y011889D01*
X013194Y011876D01*
X013229Y011859D01*
X013262Y011840D01*
X013293Y011817D01*
X013322Y011791D01*
X013348Y011762D01*
X013371Y011731D01*
X013390Y011698D01*
X013407Y011663D01*
X013420Y011626D01*
X013429Y011589D01*
X013435Y011551D01*
X013437Y011512D01*
X013043Y011906D02*
X011953Y011906D01*
X012037Y012681D02*
X012037Y013081D01*
X012031Y013181D01*
X012031Y013981D01*
X013587Y013981D01*
X013987Y013981D01*
X015065Y013981D01*
X015104Y013983D01*
X015142Y013989D01*
X015179Y013998D01*
X015216Y014011D01*
X015251Y014028D01*
X015284Y014047D01*
X015315Y014070D01*
X015344Y014096D01*
X015370Y014125D01*
X015393Y014156D01*
X015412Y014189D01*
X015429Y014224D01*
X015442Y014261D01*
X015451Y014298D01*
X015457Y014336D01*
X015459Y014375D01*
X015459Y014755D01*
X015459Y017188D01*
X015458Y017188D02*
X015460Y017227D01*
X015466Y017265D01*
X015475Y017302D01*
X015488Y017339D01*
X015505Y017374D01*
X015524Y017407D01*
X015547Y017438D01*
X015573Y017467D01*
X015602Y017493D01*
X015633Y017516D01*
X015666Y017535D01*
X015701Y017552D01*
X015738Y017565D01*
X015775Y017574D01*
X015813Y017580D01*
X015852Y017582D01*
X015852Y017581D02*
X016459Y017581D01*
X016459Y014755D01*
X016959Y014755D02*
X016959Y017588D01*
X016957Y017627D01*
X016951Y017665D01*
X016942Y017702D01*
X016929Y017739D01*
X016912Y017774D01*
X016893Y017807D01*
X016870Y017838D01*
X016844Y017867D01*
X016815Y017893D01*
X016784Y017916D01*
X016751Y017935D01*
X016716Y017952D01*
X016679Y017965D01*
X016642Y017974D01*
X016604Y017980D01*
X016565Y017982D01*
X016565Y017981D02*
X014581Y017981D01*
X014331Y018182D02*
X014292Y018180D01*
X014254Y018174D01*
X014217Y018165D01*
X014180Y018152D01*
X014145Y018135D01*
X014112Y018116D01*
X014081Y018093D01*
X014052Y018067D01*
X014026Y018038D01*
X014003Y018007D01*
X013984Y017974D01*
X013967Y017939D01*
X013954Y017902D01*
X013945Y017865D01*
X013939Y017827D01*
X013937Y017788D01*
X013937Y017225D01*
X013935Y017186D01*
X013929Y017148D01*
X013920Y017111D01*
X013907Y017074D01*
X013890Y017039D01*
X013871Y017006D01*
X013848Y016975D01*
X013822Y016946D01*
X013793Y016920D01*
X013762Y016897D01*
X013729Y016878D01*
X013694Y016861D01*
X013657Y016848D01*
X013620Y016839D01*
X013582Y016833D01*
X013543Y016831D01*
X009687Y016831D01*
X009187Y017181D02*
X009187Y016325D01*
X009189Y016286D01*
X009195Y016248D01*
X009204Y016211D01*
X009217Y016174D01*
X009234Y016139D01*
X009253Y016106D01*
X009276Y016075D01*
X009302Y016046D01*
X009331Y016020D01*
X009362Y015997D01*
X009395Y015978D01*
X009430Y015961D01*
X009467Y015948D01*
X009504Y015939D01*
X009542Y015933D01*
X009581Y015931D01*
X013793Y015931D01*
X013832Y015933D01*
X013870Y015939D01*
X013907Y015948D01*
X013944Y015961D01*
X013979Y015978D01*
X014012Y015997D01*
X014043Y016020D01*
X014072Y016046D01*
X014098Y016075D01*
X014121Y016106D01*
X014140Y016139D01*
X014157Y016174D01*
X014170Y016211D01*
X014179Y016248D01*
X014185Y016286D01*
X014187Y016325D01*
X014187Y016681D01*
X014187Y017588D01*
X014189Y017627D01*
X014195Y017665D01*
X014204Y017702D01*
X014217Y017739D01*
X014234Y017774D01*
X014253Y017807D01*
X014276Y017838D01*
X014302Y017867D01*
X014331Y017893D01*
X014362Y017916D01*
X014395Y017935D01*
X014430Y017952D01*
X014467Y017965D01*
X014504Y017974D01*
X014542Y017980D01*
X014581Y017982D01*
X014331Y018181D02*
X018565Y018181D01*
X018565Y018182D02*
X018604Y018180D01*
X018642Y018174D01*
X018679Y018165D01*
X018716Y018152D01*
X018751Y018135D01*
X018784Y018116D01*
X018815Y018093D01*
X018844Y018067D01*
X018870Y018038D01*
X018893Y018007D01*
X018912Y017974D01*
X018929Y017939D01*
X018942Y017902D01*
X018951Y017865D01*
X018957Y017827D01*
X018959Y017788D01*
X018959Y014755D01*
X018459Y014755D02*
X018459Y016581D01*
X018459Y017581D01*
X018387Y017581D01*
X017587Y017581D01*
X017587Y017575D01*
X017587Y016788D02*
X017587Y016413D01*
X017589Y016393D01*
X017593Y016374D01*
X017601Y016356D01*
X017611Y016340D01*
X017624Y016325D01*
X017639Y016312D01*
X017655Y016302D01*
X017673Y016294D01*
X017692Y016290D01*
X017712Y016288D01*
X017834Y016288D01*
X017854Y016286D01*
X017873Y016282D01*
X017891Y016274D01*
X017907Y016264D01*
X017922Y016251D01*
X017935Y016236D01*
X017945Y016220D01*
X017953Y016202D01*
X017957Y016183D01*
X017959Y016163D01*
X017959Y014755D01*
X017459Y014755D02*
X017459Y015781D01*
X015987Y015788D02*
X015959Y015788D01*
X015959Y014755D01*
X015959Y013681D01*
X014959Y014755D02*
X014959Y015781D01*
X013987Y015188D02*
X013987Y013981D01*
X012937Y014931D02*
X012031Y014931D01*
X011243Y014931D02*
X011243Y013738D01*
X011242Y013726D01*
X011237Y013714D01*
X011231Y013703D01*
X011222Y013694D01*
X011211Y013688D01*
X011199Y013683D01*
X011187Y013682D01*
X011187Y013681D02*
X011187Y013925D01*
X011188Y013937D01*
X011193Y013949D01*
X011199Y013960D01*
X011208Y013969D01*
X011219Y013975D01*
X011231Y013980D01*
X011243Y013981D01*
X003381Y013981D01*
X003381Y013982D02*
X003342Y013980D01*
X003304Y013974D01*
X003267Y013965D01*
X003230Y013952D01*
X003195Y013935D01*
X003162Y013916D01*
X003131Y013893D01*
X003102Y013867D01*
X003076Y013838D01*
X003053Y013807D01*
X003034Y013774D01*
X003017Y013739D01*
X003004Y013702D01*
X002995Y013665D01*
X002989Y013627D01*
X002987Y013588D01*
X002987Y004327D01*
X002989Y004288D01*
X002995Y004250D01*
X003004Y004213D01*
X003017Y004176D01*
X003034Y004141D01*
X003053Y004108D01*
X003076Y004077D01*
X003102Y004048D01*
X003131Y004022D01*
X003162Y003999D01*
X003195Y003980D01*
X003230Y003963D01*
X003267Y003950D01*
X003304Y003941D01*
X003342Y003935D01*
X003381Y003933D01*
X005494Y003933D01*
X005297Y004918D02*
X009193Y004918D01*
X009193Y004917D02*
X009232Y004919D01*
X009270Y004925D01*
X009307Y004934D01*
X009344Y004947D01*
X009379Y004964D01*
X009412Y004983D01*
X009443Y005006D01*
X009472Y005032D01*
X009498Y005061D01*
X009521Y005092D01*
X009540Y005125D01*
X009557Y005160D01*
X009570Y005197D01*
X009579Y005234D01*
X009585Y005272D01*
X009587Y005311D01*
X009587Y008581D01*
X008587Y009381D02*
X008587Y009818D01*
X008472Y010097D02*
X008302Y010266D01*
X008024Y010381D02*
X007550Y010381D01*
X007272Y010266D02*
X006960Y009954D01*
X006681Y009839D02*
X005297Y009839D01*
X006681Y009839D02*
X006720Y009841D01*
X006758Y009847D01*
X006795Y009856D01*
X006832Y009869D01*
X006867Y009886D01*
X006900Y009905D01*
X006931Y009928D01*
X006960Y009954D01*
X007271Y010267D02*
X007300Y010293D01*
X007331Y010316D01*
X007364Y010335D01*
X007399Y010352D01*
X007436Y010365D01*
X007473Y010374D01*
X007511Y010380D01*
X007550Y010382D01*
X008024Y010382D02*
X008063Y010380D01*
X008101Y010374D01*
X008138Y010365D01*
X008175Y010352D01*
X008210Y010335D01*
X008243Y010316D01*
X008274Y010293D01*
X008303Y010267D01*
X008472Y010097D02*
X008498Y010068D01*
X008521Y010037D01*
X008540Y010004D01*
X008557Y009969D01*
X008570Y009932D01*
X008579Y009895D01*
X008585Y009857D01*
X008587Y009818D01*
X007987Y008981D02*
X007987Y007280D01*
X007985Y007241D01*
X007979Y007203D01*
X007970Y007166D01*
X007957Y007129D01*
X007940Y007094D01*
X007921Y007061D01*
X007898Y007030D01*
X007872Y007001D01*
X007843Y006975D01*
X007812Y006952D01*
X007779Y006933D01*
X007744Y006916D01*
X007707Y006903D01*
X007670Y006894D01*
X007632Y006888D01*
X007593Y006886D01*
X004982Y006886D01*
X003981Y005902D02*
X003942Y005904D01*
X003904Y005910D01*
X003867Y005919D01*
X003830Y005932D01*
X003795Y005949D01*
X003762Y005968D01*
X003731Y005991D01*
X003702Y006017D01*
X003676Y006046D01*
X003653Y006077D01*
X003634Y006110D01*
X003617Y006145D01*
X003604Y006182D01*
X003595Y006219D01*
X003589Y006257D01*
X003587Y006296D01*
X003587Y008581D01*
X003589Y008612D01*
X003594Y008642D01*
X003602Y008671D01*
X003614Y008699D01*
X003629Y008726D01*
X003647Y008751D01*
X003667Y008774D01*
X003690Y008794D01*
X003715Y008812D01*
X003742Y008827D01*
X003770Y008839D01*
X003799Y008847D01*
X003829Y008852D01*
X003860Y008854D01*
X003860Y008855D02*
X004118Y008855D01*
X004118Y012181D01*
X004118Y012300D02*
X010069Y012300D01*
X010069Y012299D02*
X010089Y012297D01*
X010109Y012292D01*
X010128Y012283D01*
X010145Y012271D01*
X010159Y012257D01*
X010171Y012240D01*
X010180Y012221D01*
X010185Y012201D01*
X010187Y012181D01*
X010237Y001981D01*
X009187Y001630D01*
X009185Y001591D01*
X009179Y001553D01*
X009170Y001516D01*
X009157Y001479D01*
X009140Y001444D01*
X009121Y001411D01*
X009098Y001380D01*
X009072Y001351D01*
X009043Y001325D01*
X009012Y001302D01*
X008979Y001283D01*
X008944Y001266D01*
X008907Y001253D01*
X008870Y001244D01*
X008832Y001238D01*
X008793Y001236D01*
X008793Y001237D02*
X007787Y001181D01*
X007787Y000981D01*
X004987Y000981D01*
X004987Y001237D01*
X011687Y006075D02*
X011687Y006681D01*
X011687Y008788D01*
X011689Y008827D01*
X011695Y008865D01*
X011704Y008902D01*
X011717Y008939D01*
X011734Y008974D01*
X011753Y009007D01*
X011776Y009038D01*
X011802Y009067D01*
X011831Y009093D01*
X011862Y009116D01*
X011895Y009135D01*
X011930Y009152D01*
X011967Y009165D01*
X012004Y009174D01*
X012042Y009180D01*
X012081Y009182D01*
X012081Y009181D02*
X013043Y009181D01*
X013082Y009183D01*
X013120Y009189D01*
X013157Y009198D01*
X013194Y009211D01*
X013229Y009228D01*
X013262Y009247D01*
X013293Y009270D01*
X013322Y009296D01*
X013348Y009325D01*
X013371Y009356D01*
X013390Y009389D01*
X013407Y009424D01*
X013420Y009461D01*
X013429Y009498D01*
X013435Y009536D01*
X013437Y009575D01*
X013187Y011181D02*
X013185Y011216D01*
X013180Y011250D01*
X013171Y011283D01*
X013158Y011316D01*
X013143Y011346D01*
X013124Y011376D01*
X013102Y011402D01*
X013077Y011427D01*
X013051Y011449D01*
X013021Y011468D01*
X012991Y011483D01*
X012958Y011496D01*
X012925Y011505D01*
X012891Y011510D01*
X012856Y011512D01*
X012037Y012681D02*
X010687Y012681D01*
X010687Y012181D01*
X010187Y012181D01*
X009393Y014581D02*
X003482Y014581D01*
X003443Y014583D01*
X003405Y014589D01*
X003368Y014598D01*
X003331Y014611D01*
X003296Y014628D01*
X003263Y014647D01*
X003232Y014670D01*
X003203Y014696D01*
X003177Y014725D01*
X003154Y014756D01*
X003135Y014789D01*
X003118Y014824D01*
X003105Y014861D01*
X003096Y014898D01*
X003090Y014936D01*
X003088Y014975D01*
X003089Y014975D02*
X003089Y017510D01*
X009187Y017181D02*
X009187Y019238D01*
X009189Y019277D01*
X009195Y019315D01*
X009204Y019352D01*
X009217Y019389D01*
X009234Y019424D01*
X009253Y019457D01*
X009276Y019488D01*
X009302Y019517D01*
X009331Y019543D01*
X009362Y019566D01*
X009395Y019585D01*
X009430Y019602D01*
X009467Y019615D01*
X009504Y019624D01*
X009542Y019630D01*
X009581Y019632D01*
X009581Y019631D02*
X009687Y019631D01*
X013587Y020181D02*
X013587Y018131D01*
X013593Y015581D02*
X010181Y015581D01*
X010181Y015582D02*
X010142Y015580D01*
X010104Y015574D01*
X010067Y015565D01*
X010030Y015552D01*
X009995Y015535D01*
X009962Y015516D01*
X009931Y015493D01*
X009902Y015467D01*
X009876Y015438D01*
X009853Y015407D01*
X009834Y015374D01*
X009817Y015339D01*
X009804Y015302D01*
X009795Y015265D01*
X009789Y015227D01*
X009787Y015188D01*
X009787Y014975D01*
X009785Y014936D01*
X009779Y014898D01*
X009770Y014861D01*
X009757Y014824D01*
X009740Y014789D01*
X009721Y014756D01*
X009698Y014725D01*
X009672Y014696D01*
X009643Y014670D01*
X009612Y014647D01*
X009579Y014628D01*
X009544Y014611D01*
X009507Y014598D01*
X009470Y014589D01*
X009432Y014583D01*
X009393Y014581D01*
X004118Y012299D02*
X004118Y012181D01*
X007587Y009781D02*
X007587Y008264D01*
X007585Y008225D01*
X007579Y008187D01*
X007570Y008150D01*
X007557Y008113D01*
X007540Y008078D01*
X007521Y008045D01*
X007498Y008014D01*
X007472Y007985D01*
X007443Y007959D01*
X007412Y007936D01*
X007379Y007917D01*
X007344Y007900D01*
X007307Y007887D01*
X007270Y007878D01*
X007232Y007872D01*
X007193Y007870D01*
X005297Y007870D01*
X011687Y006681D02*
X011687Y006181D01*
X011687Y006075D02*
X011689Y006036D01*
X011695Y005998D01*
X011704Y005961D01*
X011717Y005924D01*
X011734Y005889D01*
X011753Y005856D01*
X011776Y005825D01*
X011802Y005796D01*
X011831Y005770D01*
X011862Y005747D01*
X011895Y005728D01*
X011930Y005711D01*
X011967Y005698D01*
X012004Y005689D01*
X012042Y005683D01*
X012081Y005681D01*
X012687Y005681D01*
X016043Y005675D02*
X016043Y005931D01*
X018687Y004575D02*
X019687Y004575D01*
X020437Y004575D01*
X019687Y004575D01*
X018687Y004575D01*
X026592Y014581D02*
X026612Y014579D01*
X026631Y014575D01*
X026649Y014567D01*
X026665Y014557D01*
X026680Y014544D01*
X026680Y014545D02*
X026793Y014431D01*
X026643Y014581D02*
X026187Y014581D01*
X026592Y014581D01*
X017187Y019175D02*
X017187Y019181D01*
X013593Y015582D02*
X013632Y015580D01*
X013670Y015574D01*
X013707Y015565D01*
X013744Y015552D01*
X013779Y015535D01*
X013812Y015516D01*
X013843Y015493D01*
X013872Y015467D01*
X013898Y015438D01*
X013921Y015407D01*
X013940Y015374D01*
X013957Y015339D01*
X013970Y015302D01*
X013979Y015265D01*
X013985Y015227D01*
X013987Y015188D01*
X013187Y015181D02*
X013185Y015151D01*
X013180Y015121D01*
X013171Y015092D01*
X013158Y015065D01*
X013143Y015039D01*
X013124Y015015D01*
X013103Y014994D01*
X013079Y014975D01*
X013053Y014960D01*
X013026Y014947D01*
X012997Y014938D01*
X012967Y014933D01*
X012937Y014931D01*
D30*
X013187Y015181D03*
X013587Y013981D03*
X015187Y012681D03*
X015959Y013681D03*
X014959Y015781D03*
X016459Y017581D03*
X018387Y017581D03*
X018459Y016581D03*
X019459Y015781D03*
X019959Y016081D03*
X022187Y015981D03*
X023187Y015981D03*
X024187Y015981D03*
X024787Y016181D03*
X024787Y014181D03*
X024187Y013781D03*
X024987Y013381D03*
X024387Y012581D03*
X023187Y011981D03*
X022187Y011581D03*
X019987Y009981D03*
X019987Y009381D03*
X020787Y008981D03*
X023587Y008981D03*
X026187Y008381D03*
X027661Y008375D03*
X028187Y007981D03*
X028437Y012231D03*
X024687Y018181D03*
X017459Y015781D03*
X013587Y018131D03*
X017187Y019181D03*
X018959Y012681D03*
X019459Y011781D03*
X017459Y011781D03*
X016437Y009781D03*
X016959Y008981D03*
X015487Y008581D03*
X014687Y008981D03*
X015459Y009781D03*
X018187Y006981D03*
X021187Y005181D03*
X020437Y004575D03*
X021187Y003181D03*
X020687Y002181D03*
X018187Y003181D03*
X010237Y001981D03*
X009587Y008581D03*
X008587Y009381D03*
X007987Y008981D03*
X007587Y009781D03*
D31*
X002567Y016910D02*
X002567Y000561D01*
X003417Y000561D01*
X003384Y000594D01*
X003360Y000636D01*
X003348Y000681D01*
X003348Y001157D01*
X004038Y001157D01*
X004038Y001316D01*
X003348Y001316D01*
X003348Y001792D01*
X003360Y001837D01*
X003384Y001879D01*
X003417Y001912D01*
X003458Y001936D01*
X003504Y001948D01*
X004038Y001948D01*
X004038Y001317D01*
X004198Y001317D01*
X004198Y001948D01*
X004663Y001948D01*
X004663Y001985D01*
X004769Y002240D01*
X004965Y002436D01*
X005220Y002542D01*
X005497Y002542D01*
X005752Y002436D01*
X005947Y002240D01*
X006053Y001985D01*
X006053Y001709D01*
X005947Y001453D01*
X005752Y001258D01*
X005497Y001152D01*
X005220Y001152D01*
X004965Y001258D01*
X004889Y001334D01*
X004889Y001316D01*
X004198Y001316D01*
X004198Y001157D01*
X004889Y001157D01*
X004889Y000681D01*
X004876Y000636D01*
X004853Y000594D01*
X004820Y000561D01*
X014857Y000561D01*
X014797Y000621D01*
X014727Y000790D01*
X014727Y001573D01*
X014797Y001742D01*
X014926Y001871D01*
X015096Y001941D01*
X015279Y001941D01*
X015448Y001871D01*
X015577Y001742D01*
X015647Y001573D01*
X015647Y000790D01*
X015577Y000621D01*
X015518Y000561D01*
X015857Y000561D01*
X015797Y000621D01*
X015727Y000790D01*
X015727Y001573D01*
X015797Y001742D01*
X015926Y001871D01*
X016096Y001941D01*
X016279Y001941D01*
X016448Y001871D01*
X016577Y001742D01*
X016647Y001573D01*
X016647Y000790D01*
X016577Y000621D01*
X016518Y000561D01*
X016857Y000561D01*
X016797Y000621D01*
X016727Y000790D01*
X016727Y001573D01*
X016797Y001742D01*
X016926Y001871D01*
X016977Y001892D01*
X016977Y001908D01*
X016977Y001908D01*
X017069Y002130D01*
X017069Y002130D01*
X017239Y002299D01*
X017239Y002299D01*
X017461Y002391D01*
X017494Y002391D01*
X020388Y002391D01*
X020468Y002471D01*
X014168Y002471D01*
X014081Y002471D01*
X013961Y002471D01*
X013961Y002471D01*
X013739Y002563D01*
X013739Y002563D01*
X013739Y002563D01*
X013569Y002733D01*
X013569Y002733D01*
X013477Y002955D01*
X013477Y002955D01*
X013477Y002988D01*
X013477Y009155D01*
X013385Y009063D01*
X013385Y009063D01*
X013163Y008971D01*
X013163Y008971D01*
X013130Y008971D01*
X012168Y008971D01*
X012129Y008971D01*
X012081Y008971D01*
X012045Y008968D01*
X011979Y008940D01*
X011928Y008890D01*
X011901Y008824D01*
X011897Y008788D01*
X011897Y006768D01*
X011897Y006075D01*
X011901Y006039D01*
X011928Y005973D01*
X011979Y005922D01*
X012045Y005895D01*
X012081Y005891D01*
X012168Y005891D01*
X012247Y005891D01*
X012497Y006141D01*
X012878Y006141D01*
X013147Y005872D01*
X013147Y005491D01*
X012878Y005221D01*
X012497Y005221D01*
X012247Y005471D01*
X012168Y005471D01*
X012081Y005471D01*
X011994Y005471D01*
X011961Y005471D01*
X011961Y005471D01*
X011739Y005563D01*
X011739Y005563D01*
X011569Y005733D01*
X011569Y005733D01*
X011477Y005955D01*
X011477Y005955D01*
X011477Y005988D01*
X011477Y006768D01*
X011477Y008875D01*
X011477Y008908D01*
X011477Y008908D01*
X011569Y009130D01*
X011569Y009130D01*
X011739Y009299D01*
X011739Y009299D01*
X011961Y009391D01*
X011961Y009391D01*
X011994Y009391D01*
X012129Y009391D01*
X012168Y009391D01*
X013043Y009391D01*
X013079Y009395D01*
X013145Y009422D01*
X013196Y009473D01*
X013224Y009539D01*
X013227Y009575D01*
X013227Y009655D01*
X013135Y009563D01*
X013135Y009563D01*
X012913Y009471D01*
X012913Y009471D01*
X012880Y009471D01*
X012720Y009471D01*
X012706Y009471D01*
X011581Y009471D01*
X011545Y009468D01*
X011479Y009440D01*
X011428Y009390D01*
X011401Y009324D01*
X011397Y009288D01*
X011397Y009201D01*
X011397Y005075D01*
X011401Y005039D01*
X011428Y004973D01*
X011479Y004922D01*
X011545Y004895D01*
X011581Y004891D01*
X011668Y004891D01*
X012247Y004891D01*
X012497Y005141D01*
X012878Y005141D01*
X013147Y004872D01*
X013147Y004491D01*
X012878Y004221D01*
X012497Y004221D01*
X012247Y004471D01*
X011668Y004471D01*
X011581Y004471D01*
X011539Y004471D01*
X011494Y004471D01*
X011461Y004471D01*
X011461Y004471D01*
X011239Y004563D01*
X011239Y004563D01*
X011069Y004733D01*
X011069Y004733D01*
X010977Y004955D01*
X010977Y004955D01*
X010977Y004988D01*
X010977Y009201D01*
X010977Y009288D01*
X010977Y009375D01*
X010977Y009408D01*
X010977Y009408D01*
X011069Y009630D01*
X011069Y009630D01*
X011239Y009799D01*
X011239Y009799D01*
X011461Y009891D01*
X011461Y009891D01*
X011494Y009891D01*
X012706Y009891D01*
X012720Y009891D01*
X012793Y009891D01*
X012829Y009895D01*
X012895Y009922D01*
X012946Y009973D01*
X012974Y010039D01*
X012977Y010075D01*
X012977Y011094D01*
X012977Y011181D01*
X012975Y011205D01*
X012957Y011248D01*
X012923Y011282D01*
X012880Y011300D01*
X012856Y011302D01*
X012796Y011302D01*
X012711Y011217D01*
X012802Y011126D01*
X012802Y010717D01*
X012708Y010624D01*
X011198Y010624D01*
X011110Y010712D01*
X011081Y010712D01*
X011045Y010708D01*
X010979Y010681D01*
X010928Y010630D01*
X010901Y010564D01*
X010897Y010528D01*
X010897Y004162D01*
X010897Y004142D01*
X010897Y004075D01*
X010901Y004039D01*
X010928Y003973D01*
X010979Y003922D01*
X011045Y003895D01*
X011081Y003891D01*
X012247Y003891D01*
X012497Y004141D01*
X012878Y004141D01*
X013147Y003872D01*
X013147Y003491D01*
X012878Y003221D01*
X012497Y003221D01*
X012247Y003471D01*
X010994Y003471D01*
X010961Y003471D01*
X010961Y003471D01*
X010739Y003563D01*
X010739Y003563D01*
X010569Y003733D01*
X010569Y003733D01*
X010477Y003955D01*
X010477Y003955D01*
X010477Y003988D01*
X010477Y004142D01*
X010477Y004162D01*
X010477Y010615D01*
X010477Y010648D01*
X010477Y010648D01*
X010569Y010870D01*
X010569Y010870D01*
X010739Y011040D01*
X010739Y011040D01*
X010961Y011132D01*
X010961Y011132D01*
X010994Y011132D01*
X011110Y011132D01*
X011195Y011217D01*
X011104Y011308D01*
X011104Y011716D01*
X011104Y012110D01*
X011198Y012204D01*
X012708Y012204D01*
X012796Y012116D01*
X013130Y012116D01*
X013163Y012116D01*
X013385Y012024D01*
X013385Y012024D01*
X013555Y011854D01*
X013555Y011854D01*
X013647Y011632D01*
X013647Y011632D01*
X013647Y011512D01*
X013647Y011425D01*
X013647Y009708D01*
X013739Y009799D01*
X013739Y009799D01*
X013961Y009891D01*
X013961Y009891D01*
X013994Y009891D01*
X014565Y009891D01*
X014601Y009895D01*
X014667Y009922D01*
X014718Y009973D01*
X014745Y010039D01*
X014749Y010075D01*
X014749Y010162D01*
X014749Y010249D01*
X014669Y010329D01*
X014669Y011261D01*
X014762Y011355D01*
X015155Y011355D01*
X015209Y011301D01*
X015262Y011355D01*
X015655Y011355D01*
X015709Y011301D01*
X015762Y011355D01*
X016155Y011355D01*
X016209Y011301D01*
X016249Y011341D01*
X016249Y012946D01*
X016249Y012946D01*
X016249Y012965D01*
X016249Y012965D01*
X016330Y013161D01*
X016330Y013161D01*
X016479Y013310D01*
X016479Y013310D01*
X016675Y013391D01*
X016675Y013391D01*
X016694Y013391D01*
X016694Y013391D01*
X022106Y013391D01*
X022123Y013391D01*
X022193Y013391D01*
X022229Y013395D01*
X022295Y013422D01*
X022346Y013473D01*
X022374Y013539D01*
X022377Y013575D01*
X022377Y014275D01*
X022377Y014308D01*
X022377Y014308D01*
X022469Y014530D01*
X022469Y014530D01*
X022639Y014699D01*
X022861Y014791D01*
X022861Y014791D01*
X022981Y014791D01*
X023068Y014791D01*
X025977Y014791D01*
X025977Y016372D01*
X025826Y016372D01*
X025732Y016466D01*
X025732Y017110D01*
X025803Y017181D01*
X025732Y017253D01*
X025732Y017897D01*
X025826Y017991D01*
X025977Y017991D01*
X025977Y019131D01*
X025976Y019142D01*
X025965Y019160D01*
X025947Y019170D01*
X025937Y019171D01*
X025850Y019171D01*
X025350Y019171D01*
X025330Y019171D01*
X025397Y019055D01*
X025397Y019055D01*
X025397Y019018D01*
X025397Y017991D01*
X025549Y017991D01*
X025642Y017897D01*
X025642Y017253D01*
X025571Y017181D01*
X025642Y017110D01*
X025642Y016466D01*
X025549Y016372D01*
X025397Y016372D01*
X025397Y016344D01*
X025397Y016308D01*
X025397Y016308D01*
X025274Y016095D01*
X025274Y016095D01*
X025274Y016095D01*
X025099Y015994D01*
X025092Y015977D01*
X024991Y015876D01*
X024859Y015821D01*
X024715Y015821D01*
X024583Y015876D01*
X024547Y015912D01*
X024547Y015910D01*
X024492Y015777D01*
X024391Y015676D01*
X024259Y015621D01*
X024115Y015621D01*
X023983Y015676D01*
X023882Y015777D01*
X023827Y015910D01*
X023827Y016053D01*
X023882Y016185D01*
X023977Y016280D01*
X023977Y016372D01*
X023826Y016372D01*
X023732Y016466D01*
X023732Y017110D01*
X023803Y017181D01*
X023732Y017253D01*
X023732Y017897D01*
X023826Y017991D01*
X023977Y017991D01*
X023977Y018388D01*
X023974Y018424D01*
X023946Y018490D01*
X023895Y018540D01*
X023829Y018568D01*
X023793Y018571D01*
X023263Y018571D01*
X023305Y018530D01*
X023305Y018530D01*
X023397Y018308D01*
X023397Y018308D01*
X023397Y018188D01*
X023397Y018101D01*
X023397Y017991D01*
X023549Y017991D01*
X023642Y017897D01*
X023642Y017253D01*
X023571Y017181D01*
X023642Y017110D01*
X023642Y016466D01*
X023549Y016372D01*
X023397Y016372D01*
X023397Y016281D01*
X023492Y016185D01*
X023547Y016053D01*
X023547Y015910D01*
X023492Y015777D01*
X023391Y015676D01*
X023259Y015621D01*
X023115Y015621D01*
X022983Y015676D01*
X022882Y015777D01*
X022827Y015910D01*
X022827Y016053D01*
X022882Y016185D01*
X022977Y016281D01*
X022977Y016372D01*
X022826Y016372D01*
X022732Y016466D01*
X022732Y017110D01*
X022803Y017181D01*
X022732Y017253D01*
X022732Y017897D01*
X022826Y017991D01*
X022977Y017991D01*
X022977Y018101D01*
X022977Y018188D01*
X022974Y018224D01*
X022946Y018290D01*
X022895Y018340D01*
X022829Y018368D01*
X022793Y018371D01*
X022263Y018371D01*
X022305Y018330D01*
X022397Y018108D01*
X022397Y018108D01*
X022397Y017988D01*
X022397Y017901D01*
X022397Y016281D01*
X022492Y016185D01*
X022547Y016053D01*
X022547Y015910D01*
X022492Y015777D01*
X022391Y015676D01*
X022259Y015621D01*
X022115Y015621D01*
X021983Y015676D01*
X021882Y015777D01*
X021827Y015910D01*
X021827Y016053D01*
X021882Y016185D01*
X021977Y016281D01*
X021977Y017901D01*
X021977Y017988D01*
X021974Y018024D01*
X021946Y018090D01*
X021895Y018140D01*
X021829Y018168D01*
X021793Y018171D01*
X019035Y018171D01*
X019077Y018130D01*
X019077Y018130D01*
X019169Y017908D01*
X019169Y017908D01*
X019169Y017875D01*
X019169Y016000D01*
X019249Y016080D01*
X019249Y017094D01*
X019249Y017181D01*
X019249Y017268D01*
X019249Y017301D01*
X019249Y017301D01*
X019341Y017523D01*
X019341Y017523D01*
X019510Y017693D01*
X019511Y017693D01*
X019712Y017777D01*
X019712Y017897D01*
X019806Y017991D01*
X020568Y017991D01*
X020662Y017897D01*
X020662Y017785D01*
X020732Y017785D01*
X020732Y017897D01*
X020826Y017991D01*
X021549Y017991D01*
X021642Y017897D01*
X021642Y017253D01*
X021571Y017181D01*
X021642Y017110D01*
X021642Y016466D01*
X021549Y016372D01*
X021397Y016372D01*
X021397Y015991D01*
X021546Y015991D01*
X021669Y015868D01*
X021669Y015694D01*
X021669Y015301D01*
X021749Y015221D01*
X021749Y014289D01*
X021655Y014195D01*
X021262Y014195D01*
X021209Y014249D01*
X021155Y014195D01*
X020762Y014195D01*
X020709Y014249D01*
X020655Y014195D01*
X020262Y014195D01*
X020223Y014235D01*
X020199Y014211D01*
X020158Y014187D01*
X020112Y014175D01*
X019959Y014175D01*
X019959Y014755D01*
X019959Y014755D01*
X019959Y014756D02*
X019959Y014756D01*
X019959Y015335D01*
X020112Y015335D01*
X020158Y015323D01*
X020199Y015299D01*
X020223Y015275D01*
X020262Y015315D01*
X020655Y015315D01*
X020709Y015261D01*
X020762Y015315D01*
X021155Y015315D01*
X021209Y015261D01*
X021249Y015301D01*
X021249Y015571D01*
X021100Y015571D01*
X020977Y015694D01*
X020977Y016372D01*
X020826Y016372D01*
X020732Y016466D01*
X020732Y017110D01*
X020803Y017181D01*
X020732Y017253D01*
X020732Y017365D01*
X020662Y017365D01*
X020662Y017253D01*
X020602Y017193D01*
X020613Y017188D01*
X020646Y017154D01*
X020670Y017113D01*
X020682Y017067D01*
X020682Y016836D01*
X020235Y016836D01*
X020235Y016740D01*
X020682Y016740D01*
X020682Y016508D01*
X020670Y016462D01*
X020646Y016421D01*
X020613Y016388D01*
X020571Y016364D01*
X020526Y016352D01*
X020235Y016352D01*
X020235Y016739D01*
X020139Y016739D01*
X020139Y016352D01*
X019848Y016352D01*
X019803Y016364D01*
X019762Y016388D01*
X019728Y016421D01*
X019704Y016462D01*
X019692Y016508D01*
X019692Y016740D01*
X020139Y016740D01*
X020139Y016836D01*
X019692Y016836D01*
X019692Y017067D01*
X019704Y017113D01*
X019728Y017154D01*
X019762Y017188D01*
X019772Y017193D01*
X019712Y017253D01*
X019712Y017296D01*
X019700Y017283D01*
X019672Y017217D01*
X019669Y017181D01*
X019669Y017094D01*
X019669Y016080D01*
X019764Y015985D01*
X019819Y015853D01*
X019819Y015710D01*
X019764Y015577D01*
X019669Y015482D01*
X019669Y015301D01*
X019695Y015275D01*
X019718Y015299D01*
X019759Y015323D01*
X019805Y015335D01*
X019959Y015335D01*
X019959Y014756D01*
X019959Y014755D02*
X019959Y014175D01*
X019805Y014175D01*
X019759Y014187D01*
X019718Y014211D01*
X019695Y014235D01*
X019655Y014195D01*
X019262Y014195D01*
X019209Y014249D01*
X019155Y014195D01*
X018762Y014195D01*
X018723Y014235D01*
X018699Y014211D01*
X018658Y014187D01*
X018612Y014175D01*
X018459Y014175D01*
X018459Y014755D01*
X018459Y014755D01*
X018459Y014756D02*
X018459Y014756D01*
X018459Y015335D01*
X018612Y015335D01*
X018658Y015323D01*
X018699Y015299D01*
X018723Y015275D01*
X018749Y015301D01*
X018749Y017788D01*
X018745Y017824D01*
X018718Y017890D01*
X018667Y017940D01*
X018601Y017968D01*
X018565Y017971D01*
X018016Y017971D01*
X018046Y017942D01*
X018070Y017900D01*
X018082Y017855D01*
X018082Y017623D01*
X017635Y017623D01*
X017635Y017527D01*
X018082Y017527D01*
X018082Y017295D01*
X018070Y017250D01*
X018046Y017209D01*
X018013Y017175D01*
X018002Y017169D01*
X018062Y017110D01*
X018062Y016466D01*
X018032Y016435D01*
X018079Y016408D01*
X018079Y016408D01*
X018169Y016252D01*
X018169Y016250D01*
X018169Y016089D01*
X018169Y016076D01*
X018169Y015301D01*
X018195Y015275D01*
X018218Y015299D01*
X018259Y015323D01*
X018305Y015335D01*
X018459Y015335D01*
X018459Y014756D01*
X018459Y014755D02*
X018459Y014175D01*
X018305Y014175D01*
X018259Y014187D01*
X018218Y014211D01*
X018195Y014235D01*
X018155Y014195D01*
X017762Y014195D01*
X017709Y014249D01*
X017655Y014195D01*
X017262Y014195D01*
X017209Y014249D01*
X017155Y014195D01*
X016762Y014195D01*
X016723Y014235D01*
X016699Y014211D01*
X016658Y014187D01*
X016612Y014175D01*
X016459Y014175D01*
X016459Y014755D01*
X016459Y014755D01*
X016459Y014756D02*
X016459Y014756D01*
X016459Y015335D01*
X016612Y015335D01*
X016658Y015323D01*
X016699Y015299D01*
X016723Y015275D01*
X016749Y015301D01*
X016749Y017588D01*
X016745Y017624D01*
X016718Y017690D01*
X016667Y017740D01*
X016601Y017768D01*
X016565Y017771D01*
X014581Y017771D01*
X014545Y017768D01*
X014479Y017740D01*
X014428Y017690D01*
X014401Y017624D01*
X014397Y017588D01*
X014397Y017501D01*
X014397Y016594D01*
X014397Y016412D01*
X014397Y016325D01*
X014397Y016205D01*
X014397Y016205D01*
X014305Y015983D01*
X014305Y015983D01*
X014135Y015813D01*
X014135Y015813D01*
X013913Y015721D01*
X013913Y015721D01*
X013793Y015721D01*
X013706Y015721D01*
X009494Y015721D01*
X009461Y015721D01*
X009461Y015721D01*
X009239Y015813D01*
X009239Y015813D01*
X009239Y015813D01*
X009069Y015983D01*
X009069Y015983D01*
X008977Y016205D01*
X008977Y016205D01*
X008977Y016238D01*
X008977Y016450D01*
X008884Y016356D01*
X008490Y016356D01*
X008212Y016635D01*
X008212Y017028D01*
X008490Y017306D01*
X008884Y017306D01*
X008977Y017213D01*
X008977Y019151D01*
X008977Y019238D01*
X008977Y019250D01*
X008884Y019156D01*
X008490Y019156D01*
X008212Y019435D01*
X008212Y019828D01*
X008490Y020106D01*
X008884Y020106D01*
X009162Y019828D01*
X009162Y019673D01*
X009212Y019723D01*
X009212Y019726D01*
X009284Y019900D01*
X009418Y020034D01*
X009593Y020106D01*
X009782Y020106D01*
X009956Y020034D01*
X010090Y019900D01*
X010162Y019726D01*
X010162Y019537D01*
X010090Y019362D01*
X009956Y019229D01*
X009782Y019156D01*
X009593Y019156D01*
X009418Y019229D01*
X009398Y019249D01*
X009397Y019238D01*
X009397Y019151D01*
X009397Y017213D01*
X009418Y017234D01*
X009593Y017306D01*
X009782Y017306D01*
X009956Y017234D01*
X010090Y017100D01*
X010114Y017041D01*
X013456Y017041D01*
X013480Y017041D01*
X013543Y017041D01*
X013579Y017045D01*
X013645Y017072D01*
X013696Y017123D01*
X013724Y017189D01*
X013727Y017225D01*
X013727Y017701D01*
X013727Y017788D01*
X013727Y017800D01*
X013659Y017771D01*
X013515Y017771D01*
X013383Y017826D01*
X013282Y017927D01*
X013227Y018060D01*
X013227Y018203D01*
X013282Y018335D01*
X013377Y018431D01*
X013377Y019471D01*
X013326Y019491D01*
X013197Y019621D01*
X013127Y019790D01*
X013127Y020573D01*
X013197Y020742D01*
X013257Y020801D01*
X012918Y020801D01*
X012977Y020742D01*
X013047Y020573D01*
X013047Y019790D01*
X012977Y019621D01*
X012848Y019491D01*
X012679Y019421D01*
X012496Y019421D01*
X012326Y019491D01*
X012197Y019621D01*
X012127Y019790D01*
X012127Y020573D01*
X012197Y020742D01*
X012257Y020801D01*
X011918Y020801D01*
X011977Y020742D01*
X012047Y020573D01*
X012047Y019790D01*
X011977Y019621D01*
X011848Y019491D01*
X011679Y019421D01*
X011496Y019421D01*
X011326Y019491D01*
X011197Y019621D01*
X011127Y019790D01*
X011127Y020573D01*
X011197Y020742D01*
X011257Y020801D01*
X002567Y020801D01*
X002567Y018110D01*
X002647Y018171D01*
X002737Y018223D01*
X002833Y018263D01*
X002934Y018290D01*
X003009Y018300D01*
X003009Y017590D01*
X003169Y017590D01*
X003878Y017590D01*
X003868Y017665D01*
X003842Y017766D01*
X003802Y017862D01*
X003750Y017952D01*
X003686Y018034D01*
X003613Y018108D01*
X003530Y018171D01*
X003440Y018223D01*
X003344Y018263D01*
X003244Y018290D01*
X003169Y018300D01*
X003169Y017590D01*
X003169Y017430D01*
X003878Y017430D01*
X003868Y017355D01*
X003842Y017255D01*
X003802Y017158D01*
X003750Y017068D01*
X003686Y016986D01*
X003613Y016912D01*
X003530Y016849D01*
X003440Y016797D01*
X003344Y016757D01*
X003244Y016730D01*
X003169Y016720D01*
X003169Y017430D01*
X003009Y017430D01*
X003009Y016720D01*
X002934Y016730D01*
X002833Y016757D01*
X002737Y016797D01*
X002647Y016849D01*
X002567Y016910D01*
X002567Y016828D02*
X002683Y016828D01*
X002567Y016670D02*
X005662Y016670D01*
X005691Y016658D02*
X005998Y016658D01*
X006108Y016703D01*
X006108Y016485D01*
X006200Y016263D01*
X006369Y016094D01*
X006591Y016002D01*
X006831Y016002D01*
X007052Y016094D01*
X007222Y016263D01*
X007314Y016485D01*
X007314Y016725D01*
X007222Y016946D01*
X007052Y017116D01*
X006831Y017208D01*
X006591Y017208D01*
X006589Y017207D01*
X006618Y017278D01*
X006618Y017585D01*
X006500Y017869D01*
X006283Y018087D01*
X005998Y018205D01*
X005691Y018205D01*
X005406Y018087D01*
X005189Y017869D01*
X005071Y017585D01*
X005071Y017278D01*
X005189Y016993D01*
X005406Y016776D01*
X005691Y016658D01*
X006027Y016670D02*
X006108Y016670D01*
X006108Y016511D02*
X002567Y016511D01*
X002567Y016353D02*
X006162Y016353D01*
X006268Y016194D02*
X002567Y016194D01*
X002567Y016036D02*
X006509Y016036D01*
X006913Y016036D02*
X009047Y016036D01*
X008981Y016194D02*
X007153Y016194D01*
X007259Y016353D02*
X008977Y016353D01*
X009175Y015877D02*
X002567Y015877D01*
X002567Y015719D02*
X014599Y015719D01*
X014599Y015710D02*
X014654Y015577D01*
X014749Y015482D01*
X014749Y015301D01*
X014669Y015221D01*
X014669Y014289D01*
X014762Y014195D01*
X015155Y014195D01*
X015195Y014235D01*
X015218Y014211D01*
X015259Y014187D01*
X015305Y014175D01*
X015459Y014175D01*
X015612Y014175D01*
X015658Y014187D01*
X015699Y014211D01*
X015723Y014235D01*
X015749Y014209D01*
X015749Y013981D01*
X015654Y013885D01*
X015599Y013753D01*
X015599Y013610D01*
X015654Y013477D01*
X015755Y013376D01*
X015887Y013321D01*
X016030Y013321D01*
X016163Y013376D01*
X016264Y013477D01*
X016319Y013610D01*
X016319Y013753D01*
X016264Y013885D01*
X016169Y013981D01*
X016169Y014209D01*
X016195Y014235D01*
X016218Y014211D01*
X016259Y014187D01*
X016305Y014175D01*
X016459Y014175D01*
X016459Y014755D01*
X016459Y014756D02*
X016459Y015335D01*
X016305Y015335D01*
X016259Y015323D01*
X016218Y015299D01*
X016195Y015275D01*
X016169Y015301D01*
X016169Y015372D01*
X016349Y015372D01*
X016442Y015466D01*
X016442Y016110D01*
X016383Y016169D01*
X016393Y016175D01*
X016426Y016209D01*
X016450Y016250D01*
X016462Y016295D01*
X016462Y016527D01*
X016035Y016527D01*
X016035Y016623D01*
X016462Y016623D01*
X016462Y016855D01*
X016450Y016900D01*
X016426Y016942D01*
X016393Y016975D01*
X016352Y016999D01*
X016306Y017011D01*
X016035Y017011D01*
X016035Y016623D01*
X015939Y016623D01*
X015939Y016527D01*
X015512Y016527D01*
X015512Y016295D01*
X015524Y016250D01*
X015548Y016209D01*
X015581Y016175D01*
X015591Y016169D01*
X015532Y016110D01*
X015532Y015466D01*
X015626Y015372D01*
X015749Y015372D01*
X015749Y015301D01*
X015723Y015275D01*
X015699Y015299D01*
X015658Y015323D01*
X015612Y015335D01*
X015459Y015335D01*
X015459Y014756D01*
X015459Y014756D01*
X015459Y015335D01*
X015305Y015335D01*
X015259Y015323D01*
X015218Y015299D01*
X015195Y015275D01*
X015169Y015301D01*
X015169Y015482D01*
X015264Y015577D01*
X015319Y015710D01*
X015319Y015853D01*
X015264Y015985D01*
X015163Y016087D01*
X015030Y016141D01*
X014887Y016141D01*
X014755Y016087D01*
X014654Y015985D01*
X014599Y015853D01*
X014599Y015710D01*
X014671Y015560D02*
X002567Y015560D01*
X002567Y015402D02*
X012898Y015402D01*
X012882Y015385D02*
X012827Y015253D01*
X012827Y015141D01*
X012447Y015141D01*
X012447Y015293D01*
X012353Y015387D01*
X011709Y015387D01*
X011637Y015315D01*
X011566Y015387D01*
X010921Y015387D01*
X010827Y015293D01*
X010827Y014570D01*
X010921Y014476D01*
X011033Y014476D01*
X011033Y014437D01*
X010921Y014437D01*
X010827Y014343D01*
X010827Y014191D01*
X003294Y014191D01*
X003261Y014191D01*
X003039Y014099D01*
X003039Y014099D01*
X002869Y013930D01*
X002869Y013930D01*
X002777Y013708D01*
X002777Y013708D01*
X002777Y013588D01*
X002777Y013501D01*
X002777Y004240D01*
X002777Y004207D01*
X002869Y003985D01*
X003039Y003815D01*
X003261Y003723D01*
X003294Y003723D01*
X004588Y003723D01*
X004588Y003651D01*
X004682Y003557D01*
X006306Y003557D01*
X006400Y003651D01*
X006400Y004216D01*
X006306Y004310D01*
X004682Y004310D01*
X004588Y004216D01*
X004588Y004143D01*
X003381Y004143D01*
X003345Y004147D01*
X003279Y004174D01*
X003228Y004225D01*
X003201Y004291D01*
X003197Y004327D01*
X003197Y013501D01*
X003197Y013588D01*
X003201Y013624D01*
X003228Y013690D01*
X003279Y013740D01*
X003345Y013768D01*
X003381Y013771D01*
X010827Y013771D01*
X010827Y013620D01*
X010921Y013526D01*
X011045Y013526D01*
X011100Y013471D01*
X011116Y013471D01*
X011274Y013471D01*
X011296Y013493D01*
X011353Y013526D01*
X011566Y013526D01*
X011625Y013586D01*
X011631Y013576D01*
X011664Y013542D01*
X011705Y013518D01*
X011751Y013506D01*
X011983Y013506D01*
X011983Y013933D01*
X012079Y013933D01*
X012079Y013506D01*
X012310Y013506D01*
X012356Y013518D01*
X012397Y013542D01*
X012431Y013576D01*
X012454Y013617D01*
X012467Y013662D01*
X012467Y013933D01*
X012079Y013933D01*
X012079Y014029D01*
X012467Y014029D01*
X012467Y014300D01*
X012454Y014346D01*
X012431Y014387D01*
X012397Y014421D01*
X012356Y014444D01*
X012310Y014457D01*
X012079Y014457D01*
X012079Y014030D01*
X011983Y014030D01*
X011983Y014457D01*
X011751Y014457D01*
X011705Y014444D01*
X011664Y014421D01*
X011631Y014387D01*
X011625Y014377D01*
X011566Y014437D01*
X011453Y014437D01*
X011453Y014476D01*
X011566Y014476D01*
X011637Y014548D01*
X011709Y014476D01*
X012353Y014476D01*
X012447Y014570D01*
X012447Y014721D01*
X012850Y014721D01*
X012865Y014721D01*
X013024Y014721D01*
X013060Y014721D01*
X013233Y014821D01*
X013259Y014821D01*
X013391Y014876D01*
X013492Y014977D01*
X013547Y015110D01*
X013547Y015253D01*
X013492Y015385D01*
X013391Y015487D01*
X013259Y015541D01*
X013115Y015541D01*
X012983Y015487D01*
X012882Y015385D01*
X012827Y015243D02*
X012447Y015243D01*
X012447Y014609D02*
X014669Y014609D01*
X014669Y014767D02*
X013140Y014767D01*
X013060Y014721D02*
X013060Y014721D01*
X013441Y014926D02*
X014669Y014926D01*
X014669Y015084D02*
X013537Y015084D01*
X013547Y015243D02*
X014690Y015243D01*
X014749Y015402D02*
X013476Y015402D01*
X014199Y015877D02*
X014609Y015877D01*
X014704Y016036D02*
X014327Y016036D01*
X014393Y016194D02*
X015562Y016194D01*
X015532Y016036D02*
X015213Y016036D01*
X015309Y015877D02*
X015532Y015877D01*
X015532Y015719D02*
X015319Y015719D01*
X015247Y015560D02*
X015532Y015560D01*
X015596Y015402D02*
X015169Y015402D01*
X015459Y015243D02*
X015459Y015243D01*
X015459Y015084D02*
X015459Y015084D01*
X015459Y014926D02*
X015459Y014926D01*
X015459Y014767D02*
X015459Y014767D01*
X015459Y014755D02*
X015459Y014175D01*
X015459Y014755D01*
X015459Y014755D01*
X015459Y014609D02*
X015459Y014609D01*
X015459Y014450D02*
X015459Y014450D01*
X015459Y014292D02*
X015459Y014292D01*
X015749Y014133D02*
X012467Y014133D01*
X012467Y014292D02*
X014669Y014292D01*
X014669Y014450D02*
X012334Y014450D01*
X012079Y014450D02*
X011983Y014450D01*
X011983Y014292D02*
X012079Y014292D01*
X012079Y014133D02*
X011983Y014133D01*
X012079Y013975D02*
X015743Y013975D01*
X015625Y013816D02*
X012467Y013816D01*
X012465Y013658D02*
X015599Y013658D01*
X015645Y013499D02*
X011306Y013499D01*
X011072Y013499D02*
X008267Y013499D01*
X008266Y013500D02*
X008165Y013602D01*
X007970Y013602D01*
X007665Y013602D01*
X007527Y013464D01*
X007527Y013270D01*
X007527Y013159D01*
X007527Y012964D01*
X007527Y012854D01*
X007527Y012659D01*
X007665Y012521D01*
X008165Y012521D01*
X008246Y012602D01*
X008266Y012623D01*
X008266Y012623D01*
X008323Y012680D01*
X008404Y012761D01*
X008404Y012955D01*
X008404Y013057D01*
X008404Y013057D01*
X008400Y013062D01*
X008404Y013066D01*
X008404Y013261D01*
X008404Y013362D01*
X008266Y013500D01*
X008404Y013341D02*
X015841Y013341D01*
X016076Y013341D02*
X016552Y013341D01*
X016351Y013182D02*
X008404Y013182D01*
X008404Y013023D02*
X015072Y013023D01*
X015115Y013041D02*
X014983Y012987D01*
X014882Y012885D01*
X014827Y012753D01*
X014827Y012610D01*
X014882Y012477D01*
X014983Y012376D01*
X015115Y012321D01*
X015259Y012321D01*
X015391Y012376D01*
X015492Y012477D01*
X015547Y012610D01*
X015547Y012753D01*
X015492Y012885D01*
X015391Y012987D01*
X015259Y013041D01*
X015115Y013041D01*
X015302Y013023D02*
X016273Y013023D01*
X016249Y012865D02*
X015501Y012865D01*
X015547Y012706D02*
X016249Y012706D01*
X016249Y012548D02*
X015521Y012548D01*
X015404Y012389D02*
X016249Y012389D01*
X016249Y012231D02*
X004198Y012231D01*
X004198Y012220D02*
X004198Y012379D01*
X004889Y012379D01*
X004889Y012855D01*
X004876Y012900D01*
X004853Y012942D01*
X004819Y012975D01*
X004778Y012999D01*
X004732Y013011D01*
X004198Y013011D01*
X004198Y012380D01*
X004038Y012380D01*
X004038Y013011D01*
X003504Y013011D01*
X003458Y012999D01*
X003417Y012975D01*
X003384Y012942D01*
X003360Y012900D01*
X003348Y012855D01*
X003348Y012379D01*
X004038Y012379D01*
X004038Y012220D01*
X003348Y012220D01*
X003348Y011744D01*
X003360Y011699D01*
X003384Y011657D01*
X003417Y011624D01*
X003458Y011600D01*
X003504Y011588D01*
X004038Y011588D01*
X004038Y012219D01*
X004198Y012219D01*
X004198Y011588D01*
X004732Y011588D01*
X004742Y011591D01*
X004742Y011488D01*
X004836Y011261D01*
X005009Y011088D01*
X005236Y010994D01*
X005481Y010994D01*
X005707Y011088D01*
X005881Y011261D01*
X005975Y011488D01*
X005975Y011733D01*
X005881Y011960D01*
X005707Y012133D01*
X005481Y012227D01*
X005236Y012227D01*
X005009Y012133D01*
X004889Y012012D01*
X004889Y012220D01*
X004198Y012220D01*
X004198Y012072D02*
X004038Y012072D01*
X004038Y011914D02*
X004198Y011914D01*
X004198Y011755D02*
X004038Y011755D01*
X004038Y011597D02*
X004198Y011597D01*
X004763Y011438D02*
X003197Y011438D01*
X003197Y011597D02*
X003472Y011597D01*
X003348Y011755D02*
X003197Y011755D01*
X003197Y011914D02*
X003348Y011914D01*
X003348Y012072D02*
X003197Y012072D01*
X003197Y012231D02*
X004038Y012231D01*
X004038Y012389D02*
X004198Y012389D01*
X004198Y012548D02*
X004038Y012548D01*
X004038Y012706D02*
X004198Y012706D01*
X004198Y012865D02*
X004038Y012865D01*
X003350Y012865D02*
X003197Y012865D01*
X003197Y013023D02*
X007527Y013023D01*
X007527Y012865D02*
X004886Y012865D01*
X004889Y012706D02*
X007527Y012706D01*
X007638Y012548D02*
X004889Y012548D01*
X004889Y012389D02*
X014970Y012389D01*
X014853Y012548D02*
X008191Y012548D01*
X008350Y012706D02*
X014827Y012706D01*
X014873Y012865D02*
X008404Y012865D01*
X007527Y013182D02*
X003197Y013182D01*
X003197Y013341D02*
X007527Y013341D01*
X007562Y013499D02*
X003197Y013499D01*
X003215Y013658D02*
X010827Y013658D01*
X010827Y014292D02*
X002567Y014292D01*
X002567Y014450D02*
X011033Y014450D01*
X010827Y014609D02*
X002567Y014609D01*
X002567Y014767D02*
X010827Y014767D01*
X010827Y014926D02*
X002567Y014926D01*
X002567Y015084D02*
X010827Y015084D01*
X010827Y015243D02*
X002567Y015243D01*
X002567Y014133D02*
X003120Y014133D01*
X003261Y014191D02*
X003261Y014191D01*
X002914Y013975D02*
X002567Y013975D01*
X002567Y013816D02*
X002822Y013816D01*
X002777Y013658D02*
X002567Y013658D01*
X002567Y013499D02*
X002777Y013499D01*
X002777Y013341D02*
X002567Y013341D01*
X002567Y013182D02*
X002777Y013182D01*
X002777Y013023D02*
X002567Y013023D01*
X002567Y012865D02*
X002777Y012865D01*
X002777Y012706D02*
X002567Y012706D01*
X002567Y012548D02*
X002777Y012548D01*
X002777Y012389D02*
X002567Y012389D01*
X002567Y012231D02*
X002777Y012231D01*
X002777Y012072D02*
X002567Y012072D01*
X002567Y011914D02*
X002777Y011914D01*
X002777Y011755D02*
X002567Y011755D01*
X002567Y011597D02*
X002777Y011597D01*
X002777Y011438D02*
X002567Y011438D01*
X002567Y011279D02*
X002777Y011279D01*
X002777Y011121D02*
X002567Y011121D01*
X002567Y010962D02*
X002777Y010962D01*
X002777Y010804D02*
X002567Y010804D01*
X002567Y010645D02*
X002777Y010645D01*
X002777Y010487D02*
X002567Y010487D01*
X002567Y010328D02*
X002777Y010328D01*
X002777Y010170D02*
X002567Y010170D01*
X002567Y010011D02*
X002777Y010011D01*
X002777Y009853D02*
X002567Y009853D01*
X002567Y009694D02*
X002777Y009694D01*
X002777Y009535D02*
X002567Y009535D01*
X002567Y009377D02*
X002777Y009377D01*
X002777Y009218D02*
X002567Y009218D01*
X002567Y009060D02*
X002777Y009060D01*
X002777Y008901D02*
X002567Y008901D01*
X002567Y008743D02*
X002777Y008743D01*
X002777Y008584D02*
X002567Y008584D01*
X002567Y008426D02*
X002777Y008426D01*
X002777Y008267D02*
X002567Y008267D01*
X002567Y008109D02*
X002777Y008109D01*
X002777Y007950D02*
X002567Y007950D01*
X002567Y007791D02*
X002777Y007791D01*
X002777Y007633D02*
X002567Y007633D01*
X002567Y007474D02*
X002777Y007474D01*
X002777Y007316D02*
X002567Y007316D01*
X002567Y007157D02*
X002777Y007157D01*
X002777Y006999D02*
X002567Y006999D01*
X002567Y006840D02*
X002777Y006840D01*
X002777Y006682D02*
X002567Y006682D01*
X002567Y006523D02*
X002777Y006523D01*
X002777Y006365D02*
X002567Y006365D01*
X002567Y006206D02*
X002777Y006206D01*
X002777Y006048D02*
X002567Y006048D01*
X002567Y005889D02*
X002777Y005889D01*
X002777Y005730D02*
X002567Y005730D01*
X002567Y005572D02*
X002777Y005572D01*
X002777Y005413D02*
X002567Y005413D01*
X002567Y005255D02*
X002777Y005255D01*
X002777Y005096D02*
X002567Y005096D01*
X002567Y004938D02*
X002777Y004938D01*
X002777Y004779D02*
X002567Y004779D01*
X002567Y004621D02*
X002777Y004621D01*
X002777Y004462D02*
X002567Y004462D01*
X002567Y004304D02*
X002777Y004304D01*
X002777Y004207D02*
X002777Y004207D01*
X002803Y004145D02*
X002567Y004145D01*
X002567Y003986D02*
X002868Y003986D01*
X002869Y003985D02*
X002869Y003985D01*
X003026Y003828D02*
X002567Y003828D01*
X002567Y003669D02*
X004588Y003669D01*
X004588Y004145D02*
X003364Y004145D01*
X003199Y004304D02*
X004675Y004304D01*
X004485Y004541D02*
X004391Y004635D01*
X004391Y005200D01*
X004485Y005294D01*
X006110Y005294D01*
X006203Y005200D01*
X006203Y005128D01*
X009106Y005128D01*
X009193Y005128D01*
X009229Y005131D01*
X009295Y005159D01*
X009346Y005209D01*
X009374Y005276D01*
X009377Y005311D01*
X009377Y008282D01*
X009282Y008377D01*
X009227Y008510D01*
X009227Y008653D01*
X009282Y008785D01*
X009383Y008887D01*
X009515Y008941D01*
X009659Y008941D01*
X009791Y008887D01*
X009892Y008785D01*
X009947Y008653D01*
X009947Y008510D01*
X009892Y008377D01*
X009797Y008282D01*
X009797Y005224D01*
X009797Y005191D01*
X009797Y005191D01*
X009705Y004969D01*
X009705Y004969D01*
X009535Y004800D01*
X009535Y004800D01*
X009313Y004708D01*
X009313Y004708D01*
X009193Y004708D01*
X009106Y004708D01*
X006203Y004708D01*
X006203Y004635D01*
X006110Y004541D01*
X004485Y004541D01*
X004405Y004621D02*
X003197Y004621D01*
X003197Y004779D02*
X004391Y004779D01*
X004391Y004938D02*
X003197Y004938D01*
X003197Y005096D02*
X004391Y005096D01*
X004446Y005255D02*
X003197Y005255D01*
X003197Y005413D02*
X009377Y005413D01*
X009365Y005255D02*
X006149Y005255D01*
X005839Y005541D02*
X005872Y005575D01*
X005896Y005616D01*
X005908Y005662D01*
X005908Y005874D01*
X005011Y005874D01*
X005011Y005930D01*
X005908Y005930D01*
X005908Y006142D01*
X005896Y006188D01*
X005872Y006229D01*
X005839Y006262D01*
X005798Y006286D01*
X005752Y006298D01*
X005011Y006298D01*
X005011Y005930D01*
X004954Y005930D01*
X004954Y005874D01*
X004056Y005874D01*
X004056Y005662D01*
X004069Y005616D01*
X004092Y005575D01*
X004126Y005541D01*
X004167Y005518D01*
X004213Y005505D01*
X004954Y005505D01*
X004954Y005873D01*
X005011Y005873D01*
X005011Y005505D01*
X005752Y005505D01*
X005798Y005518D01*
X005839Y005541D01*
X005870Y005572D02*
X009377Y005572D01*
X009377Y005730D02*
X005908Y005730D01*
X005908Y006048D02*
X009377Y006048D01*
X009377Y006206D02*
X005886Y006206D01*
X005795Y006510D02*
X005888Y006603D01*
X005888Y006676D01*
X007680Y006676D01*
X007713Y006676D01*
X007713Y006676D01*
X007935Y006768D01*
X007935Y006768D01*
X008105Y006938D01*
X008197Y007160D01*
X008197Y007193D01*
X008197Y008682D01*
X008292Y008777D01*
X008347Y008910D01*
X008347Y009053D01*
X008305Y009154D01*
X008383Y009076D01*
X008515Y009021D01*
X008659Y009021D01*
X008791Y009076D01*
X008892Y009177D01*
X008947Y009310D01*
X008947Y009453D01*
X008892Y009585D01*
X008797Y009681D01*
X008797Y009731D01*
X008797Y009774D01*
X008797Y009905D01*
X008797Y009938D01*
X008797Y009938D01*
X008705Y010160D01*
X008705Y010160D01*
X008682Y010184D01*
X008389Y010476D01*
X008366Y010499D01*
X008144Y010591D01*
X008111Y010591D01*
X008006Y010591D01*
X007937Y010591D01*
X007463Y010591D01*
X007430Y010591D01*
X007208Y010499D01*
X007185Y010476D01*
X007185Y010476D01*
X007122Y010413D01*
X007062Y010353D01*
X006811Y010103D01*
X006784Y010080D01*
X006717Y010052D01*
X006681Y010049D01*
X006621Y010049D01*
X006594Y010049D01*
X006203Y010049D01*
X006203Y010122D01*
X006166Y010159D01*
X006203Y010196D01*
X006203Y010761D01*
X006110Y010855D01*
X004485Y010855D01*
X004391Y010761D01*
X004391Y010196D01*
X004428Y010159D01*
X004391Y010122D01*
X004391Y009556D01*
X004485Y009462D01*
X006110Y009462D01*
X006203Y009556D01*
X006203Y009629D01*
X006594Y009629D01*
X006622Y009629D01*
X006768Y009629D01*
X006802Y009629D01*
X007023Y009721D01*
X007023Y009721D01*
X007047Y009744D01*
X007278Y009975D01*
X007227Y009853D01*
X007227Y009710D01*
X007282Y009577D01*
X007377Y009482D01*
X007377Y008264D01*
X007374Y008228D01*
X007346Y008162D01*
X007295Y008111D01*
X007229Y008084D01*
X007193Y008080D01*
X006203Y008080D01*
X006203Y008153D01*
X006110Y008247D01*
X004485Y008247D01*
X004391Y008153D01*
X004391Y007588D01*
X004485Y007494D01*
X006110Y007494D01*
X006203Y007588D01*
X006203Y007660D01*
X007280Y007660D01*
X007313Y007660D01*
X007313Y007660D01*
X007535Y007752D01*
X007535Y007752D01*
X007705Y007922D01*
X007705Y007922D01*
X007777Y008096D01*
X007777Y007280D01*
X007774Y007244D01*
X007746Y007178D01*
X007695Y007127D01*
X007629Y007100D01*
X007593Y007096D01*
X005888Y007096D01*
X005888Y007169D01*
X005795Y007263D01*
X004170Y007263D01*
X004076Y007169D01*
X004076Y006603D01*
X004170Y006510D01*
X005795Y006510D01*
X005808Y006523D02*
X009377Y006523D01*
X009377Y006365D02*
X003197Y006365D01*
X003197Y006523D02*
X004156Y006523D01*
X004076Y006682D02*
X003197Y006682D01*
X003197Y006840D02*
X004076Y006840D01*
X004076Y006999D02*
X003197Y006999D01*
X003197Y007157D02*
X004076Y007157D01*
X004391Y007633D02*
X003197Y007633D01*
X003197Y007791D02*
X004391Y007791D01*
X004391Y007950D02*
X003197Y007950D01*
X003197Y008109D02*
X004391Y008109D01*
X004482Y008470D02*
X004528Y008458D01*
X005269Y008458D01*
X005269Y008826D01*
X005326Y008826D01*
X005326Y008883D01*
X006223Y008883D01*
X006223Y009095D01*
X006211Y009141D01*
X006187Y009182D01*
X006154Y009215D01*
X006113Y009239D01*
X006067Y009251D01*
X005326Y009251D01*
X005326Y008883D01*
X005269Y008883D01*
X005269Y009251D01*
X004528Y009251D01*
X004482Y009239D01*
X004441Y009215D01*
X004407Y009182D01*
X004384Y009141D01*
X004371Y009095D01*
X004371Y008883D01*
X005269Y008883D01*
X005269Y008826D01*
X004371Y008826D01*
X004371Y008614D01*
X004384Y008569D01*
X004407Y008528D01*
X004441Y008494D01*
X004482Y008470D01*
X004379Y008584D02*
X003197Y008584D01*
X003197Y008426D02*
X007377Y008426D01*
X007377Y008584D02*
X006215Y008584D01*
X006211Y008569D02*
X006223Y008614D01*
X006223Y008826D01*
X005326Y008826D01*
X005326Y008458D01*
X006067Y008458D01*
X006113Y008470D01*
X006154Y008494D01*
X006187Y008528D01*
X006211Y008569D01*
X006223Y008743D02*
X007377Y008743D01*
X007377Y008901D02*
X006223Y008901D01*
X006223Y009060D02*
X007377Y009060D01*
X007377Y009218D02*
X006148Y009218D01*
X006183Y009535D02*
X007324Y009535D01*
X007377Y009377D02*
X003197Y009377D01*
X003197Y009535D02*
X004412Y009535D01*
X004391Y009694D02*
X003197Y009694D01*
X003197Y009853D02*
X004391Y009853D01*
X004391Y010011D02*
X003197Y010011D01*
X003197Y010170D02*
X004417Y010170D01*
X004391Y010328D02*
X003197Y010328D01*
X003197Y010487D02*
X004391Y010487D01*
X004391Y010645D02*
X003197Y010645D01*
X003197Y010804D02*
X004434Y010804D01*
X004828Y011279D02*
X003197Y011279D01*
X003197Y011121D02*
X004976Y011121D01*
X005740Y011121D02*
X010935Y011121D01*
X011132Y011279D02*
X005888Y011279D01*
X005954Y011438D02*
X011104Y011438D01*
X011104Y011597D02*
X005975Y011597D01*
X005965Y011755D02*
X011104Y011755D01*
X011104Y011914D02*
X005900Y011914D01*
X005768Y012072D02*
X011104Y012072D01*
X010662Y010962D02*
X003197Y010962D01*
X003197Y012389D02*
X003348Y012389D01*
X003348Y012548D02*
X003197Y012548D01*
X003197Y012706D02*
X003348Y012706D01*
X004889Y012072D02*
X004949Y012072D01*
X006161Y010804D02*
X010542Y010804D01*
X010477Y010645D02*
X006203Y010645D01*
X006203Y010487D02*
X007195Y010487D01*
X007208Y010499D02*
X007208Y010499D01*
X007430Y010591D02*
X007430Y010591D01*
X007037Y010328D02*
X006203Y010328D01*
X006177Y010170D02*
X006878Y010170D01*
X007155Y009853D02*
X007227Y009853D01*
X007234Y009694D02*
X006959Y009694D01*
X007047Y009744D02*
X007047Y009744D01*
X006802Y009629D02*
X006802Y009629D01*
X008144Y010591D02*
X008144Y010591D01*
X008366Y010499D02*
X008366Y010499D01*
X008379Y010487D02*
X010477Y010487D01*
X010477Y010328D02*
X008537Y010328D01*
X008682Y010184D02*
X008682Y010184D01*
X008696Y010170D02*
X010477Y010170D01*
X010477Y010011D02*
X008767Y010011D01*
X008797Y009853D02*
X010477Y009853D01*
X010477Y009694D02*
X008797Y009694D01*
X008913Y009535D02*
X010477Y009535D01*
X010477Y009377D02*
X008947Y009377D01*
X008909Y009218D02*
X010477Y009218D01*
X010477Y009060D02*
X008751Y009060D01*
X008423Y009060D02*
X008344Y009060D01*
X008344Y008901D02*
X009419Y008901D01*
X009264Y008743D02*
X008258Y008743D01*
X008197Y008584D02*
X009227Y008584D01*
X009262Y008426D02*
X008197Y008426D01*
X008197Y008267D02*
X009377Y008267D01*
X009377Y008109D02*
X008197Y008109D01*
X008197Y007950D02*
X009377Y007950D01*
X009377Y007791D02*
X008197Y007791D01*
X008197Y007633D02*
X009377Y007633D01*
X009377Y007474D02*
X008197Y007474D01*
X008197Y007316D02*
X009377Y007316D01*
X009377Y007157D02*
X008196Y007157D01*
X008197Y007160D02*
X008197Y007160D01*
X008130Y006999D02*
X009377Y006999D01*
X009377Y006840D02*
X008007Y006840D01*
X008105Y006938D02*
X008105Y006938D01*
X007726Y007157D02*
X005888Y007157D01*
X006203Y007633D02*
X007777Y007633D01*
X007777Y007791D02*
X007574Y007791D01*
X007717Y007950D02*
X007777Y007950D01*
X007377Y008267D02*
X003197Y008267D01*
X003197Y008743D02*
X004371Y008743D01*
X004371Y008901D02*
X003197Y008901D01*
X003197Y009060D02*
X004371Y009060D01*
X004446Y009218D02*
X003197Y009218D01*
X005269Y009218D02*
X005326Y009218D01*
X005326Y009060D02*
X005269Y009060D01*
X005269Y008901D02*
X005326Y008901D01*
X005326Y008743D02*
X005269Y008743D01*
X005269Y008584D02*
X005326Y008584D01*
X006203Y008109D02*
X007289Y008109D01*
X007777Y007474D02*
X003197Y007474D01*
X003197Y007316D02*
X007777Y007316D01*
X007727Y006682D02*
X009377Y006682D01*
X009797Y006682D02*
X010477Y006682D01*
X010477Y006840D02*
X009797Y006840D01*
X009797Y006999D02*
X010477Y006999D01*
X010477Y007157D02*
X009797Y007157D01*
X009797Y007316D02*
X010477Y007316D01*
X010477Y007474D02*
X009797Y007474D01*
X009797Y007633D02*
X010477Y007633D01*
X010477Y007791D02*
X009797Y007791D01*
X009797Y007950D02*
X010477Y007950D01*
X010477Y008109D02*
X009797Y008109D01*
X009797Y008267D02*
X010477Y008267D01*
X010477Y008426D02*
X009912Y008426D01*
X009947Y008584D02*
X010477Y008584D01*
X010477Y008743D02*
X009910Y008743D01*
X009755Y008901D02*
X010477Y008901D01*
X010897Y008901D02*
X010977Y008901D01*
X010977Y008743D02*
X010897Y008743D01*
X010897Y008584D02*
X010977Y008584D01*
X010977Y008426D02*
X010897Y008426D01*
X010897Y008267D02*
X010977Y008267D01*
X010977Y008109D02*
X010897Y008109D01*
X010897Y007950D02*
X010977Y007950D01*
X010977Y007791D02*
X010897Y007791D01*
X010897Y007633D02*
X010977Y007633D01*
X010977Y007474D02*
X010897Y007474D01*
X010897Y007316D02*
X010977Y007316D01*
X010977Y007157D02*
X010897Y007157D01*
X010897Y006999D02*
X010977Y006999D01*
X010977Y006840D02*
X010897Y006840D01*
X010897Y006682D02*
X010977Y006682D01*
X010977Y006523D02*
X010897Y006523D01*
X010897Y006365D02*
X010977Y006365D01*
X010977Y006206D02*
X010897Y006206D01*
X010897Y006048D02*
X010977Y006048D01*
X010977Y005889D02*
X010897Y005889D01*
X010897Y005730D02*
X010977Y005730D01*
X010977Y005572D02*
X010897Y005572D01*
X010897Y005413D02*
X010977Y005413D01*
X010977Y005255D02*
X010897Y005255D01*
X010897Y005096D02*
X010977Y005096D01*
X010984Y004938D02*
X010897Y004938D01*
X010897Y004779D02*
X011050Y004779D01*
X011182Y004621D02*
X010897Y004621D01*
X010897Y004462D02*
X012256Y004462D01*
X012414Y004304D02*
X010897Y004304D01*
X010897Y004145D02*
X013477Y004145D01*
X013477Y003986D02*
X013033Y003986D01*
X013147Y003828D02*
X013477Y003828D01*
X013477Y003669D02*
X013147Y003669D01*
X013147Y003511D02*
X013477Y003511D01*
X013477Y003352D02*
X013008Y003352D01*
X013477Y003194D02*
X005298Y003194D01*
X005298Y003232D02*
X005204Y003326D01*
X003579Y003326D01*
X003486Y003232D01*
X003486Y002666D01*
X003579Y002573D01*
X005204Y002573D01*
X005298Y002666D01*
X005298Y003232D01*
X005298Y003035D02*
X013477Y003035D01*
X013510Y002877D02*
X005298Y002877D01*
X005298Y002718D02*
X013584Y002718D01*
X013748Y002560D02*
X002567Y002560D01*
X002567Y002718D02*
X003486Y002718D01*
X003486Y002877D02*
X002567Y002877D01*
X002567Y003035D02*
X003486Y003035D01*
X003486Y003194D02*
X002567Y003194D01*
X002567Y003352D02*
X012366Y003352D01*
X012342Y003986D02*
X010922Y003986D01*
X010530Y003828D02*
X006400Y003828D01*
X006400Y003986D02*
X010477Y003986D01*
X010477Y004145D02*
X006400Y004145D01*
X006313Y004304D02*
X010477Y004304D01*
X010477Y004462D02*
X003197Y004462D01*
X003039Y003815D02*
X003039Y003815D01*
X003261Y003723D02*
X003261Y003723D01*
X002567Y003511D02*
X010866Y003511D01*
X010633Y003669D02*
X006400Y003669D01*
X006189Y004621D02*
X010477Y004621D01*
X010477Y004779D02*
X009486Y004779D01*
X009673Y004938D02*
X010477Y004938D01*
X010477Y005096D02*
X009758Y005096D01*
X009797Y005255D02*
X010477Y005255D01*
X010477Y005413D02*
X009797Y005413D01*
X009797Y005572D02*
X010477Y005572D01*
X010477Y005730D02*
X009797Y005730D01*
X009797Y005889D02*
X010477Y005889D01*
X010477Y006048D02*
X009797Y006048D01*
X009797Y006206D02*
X010477Y006206D01*
X010477Y006365D02*
X009797Y006365D01*
X009797Y006523D02*
X010477Y006523D01*
X011397Y006523D02*
X011477Y006523D01*
X011477Y006365D02*
X011397Y006365D01*
X011397Y006206D02*
X011477Y006206D01*
X011477Y006048D02*
X011397Y006048D01*
X011397Y005889D02*
X011504Y005889D01*
X011572Y005730D02*
X011397Y005730D01*
X011397Y005572D02*
X011730Y005572D01*
X011397Y005413D02*
X012305Y005413D01*
X012463Y005255D02*
X011397Y005255D01*
X011397Y005096D02*
X012451Y005096D01*
X012293Y004938D02*
X011463Y004938D01*
X011900Y006048D02*
X012403Y006048D01*
X011897Y006206D02*
X013477Y006206D01*
X013477Y006048D02*
X012971Y006048D01*
X013130Y005889D02*
X013477Y005889D01*
X013477Y005730D02*
X013147Y005730D01*
X013147Y005572D02*
X013477Y005572D01*
X013477Y005413D02*
X013070Y005413D01*
X012911Y005255D02*
X013477Y005255D01*
X013477Y005096D02*
X012923Y005096D01*
X013081Y004938D02*
X013477Y004938D01*
X013477Y004779D02*
X013147Y004779D01*
X013147Y004621D02*
X013477Y004621D01*
X013477Y004462D02*
X013118Y004462D01*
X012960Y004304D02*
X013477Y004304D01*
X013897Y004304D02*
X015212Y004304D01*
X015212Y004253D02*
X015272Y004193D01*
X015262Y004188D01*
X015228Y004154D01*
X015204Y004113D01*
X015192Y004067D01*
X015192Y003836D01*
X015639Y003836D01*
X015639Y003740D01*
X015192Y003740D01*
X015192Y003508D01*
X015204Y003462D01*
X015228Y003421D01*
X015262Y003388D01*
X015303Y003364D01*
X015348Y003352D01*
X015639Y003352D01*
X015639Y003739D01*
X015735Y003739D01*
X015735Y003352D01*
X016026Y003352D01*
X016071Y003364D01*
X016113Y003388D01*
X016146Y003421D01*
X016170Y003462D01*
X016182Y003508D01*
X016182Y003740D01*
X015735Y003740D01*
X015735Y003836D01*
X016182Y003836D01*
X016182Y004067D01*
X016170Y004113D01*
X016146Y004154D01*
X016113Y004188D01*
X016102Y004193D01*
X016162Y004253D01*
X016162Y004897D01*
X016088Y004971D01*
X016476Y004971D01*
X016546Y004971D01*
X016517Y004943D01*
X016517Y004420D01*
X016611Y004327D01*
X016828Y004327D01*
X016726Y004268D01*
X016603Y004055D01*
X016603Y004055D01*
X016603Y004018D01*
X016603Y004009D01*
X016517Y003923D01*
X016517Y003401D01*
X016611Y003307D01*
X016968Y003307D01*
X016982Y003299D01*
X017028Y003287D01*
X017187Y003287D01*
X017187Y003661D01*
X017187Y003661D01*
X017187Y003287D01*
X017347Y003287D01*
X017392Y003299D01*
X017406Y003307D01*
X017763Y003307D01*
X017857Y003401D01*
X017857Y003699D01*
X017872Y003673D01*
X017872Y003673D01*
X018036Y003578D01*
X018044Y003578D01*
X018232Y003578D01*
X018232Y003466D01*
X018326Y003372D01*
X019049Y003372D01*
X019142Y003466D01*
X019142Y004110D01*
X019071Y004181D01*
X019142Y004253D01*
X019142Y004365D01*
X019212Y004365D01*
X019212Y004253D01*
X019272Y004193D01*
X019262Y004188D01*
X019228Y004154D01*
X019204Y004113D01*
X019192Y004067D01*
X019192Y003836D01*
X019639Y003836D01*
X019639Y003740D01*
X019192Y003740D01*
X019192Y003508D01*
X019204Y003462D01*
X019228Y003421D01*
X019262Y003388D01*
X019303Y003364D01*
X019348Y003352D01*
X019639Y003352D01*
X019639Y003739D01*
X019735Y003739D01*
X019735Y003352D01*
X020026Y003352D01*
X020071Y003364D01*
X020113Y003388D01*
X020146Y003421D01*
X020170Y003462D01*
X020182Y003508D01*
X020182Y003740D01*
X019735Y003740D01*
X019735Y003836D01*
X020182Y003836D01*
X020182Y004067D01*
X020170Y004113D01*
X020146Y004154D01*
X020113Y004188D01*
X020102Y004193D01*
X020162Y004253D01*
X020162Y004341D01*
X020233Y004270D01*
X020365Y004215D01*
X020509Y004215D01*
X020641Y004270D01*
X020732Y004361D01*
X020732Y004253D01*
X020803Y004181D01*
X020732Y004110D01*
X020732Y003466D01*
X020826Y003372D01*
X020876Y003372D01*
X020827Y003253D01*
X020827Y003110D01*
X020882Y002977D01*
X020968Y002891D01*
X014168Y002891D01*
X014081Y002891D01*
X014045Y002895D01*
X013979Y002922D01*
X013928Y002973D01*
X013901Y003039D01*
X013897Y003075D01*
X013897Y009201D01*
X013897Y009288D01*
X013901Y009324D01*
X013928Y009390D01*
X013979Y009440D01*
X014045Y009468D01*
X014081Y009471D01*
X014652Y009471D01*
X014685Y009471D01*
X014907Y009563D01*
X015077Y009733D01*
X015099Y009786D01*
X015099Y009710D01*
X015154Y009577D01*
X015255Y009476D01*
X015387Y009421D01*
X015530Y009421D01*
X015663Y009476D01*
X015749Y009562D01*
X015749Y008975D01*
X015745Y008939D01*
X015718Y008873D01*
X015711Y008866D01*
X015691Y008887D01*
X015559Y008941D01*
X015415Y008941D01*
X015283Y008887D01*
X015182Y008785D01*
X015127Y008653D01*
X015127Y008510D01*
X015182Y008377D01*
X015283Y008276D01*
X015415Y008221D01*
X015559Y008221D01*
X015691Y008276D01*
X015792Y008377D01*
X015811Y008424D01*
X015907Y008463D01*
X016077Y008633D01*
X016169Y008855D01*
X016169Y008888D01*
X016169Y009541D01*
X016233Y009476D01*
X016365Y009421D01*
X016509Y009421D01*
X016641Y009476D01*
X016742Y009577D01*
X016749Y009593D01*
X016749Y009280D01*
X016654Y009185D01*
X016599Y009053D01*
X016599Y008910D01*
X016654Y008777D01*
X016755Y008676D01*
X016887Y008621D01*
X017030Y008621D01*
X017163Y008676D01*
X017264Y008777D01*
X017319Y008910D01*
X017319Y009053D01*
X017264Y009185D01*
X017169Y009280D01*
X017169Y010249D01*
X017195Y010275D01*
X017218Y010251D01*
X017259Y010227D01*
X017305Y010215D01*
X017459Y010215D01*
X017612Y010215D01*
X017658Y010227D01*
X017699Y010251D01*
X017723Y010275D01*
X017749Y010249D01*
X017749Y007975D01*
X017745Y007939D01*
X017718Y007873D01*
X017667Y007822D01*
X017601Y007795D01*
X017565Y007791D01*
X017509Y007791D01*
X017478Y007791D01*
X017473Y007791D01*
X017473Y008025D01*
X017380Y008119D01*
X015147Y008119D01*
X015053Y008025D01*
X015053Y007133D01*
X015147Y007039D01*
X016621Y007039D01*
X016621Y006406D01*
X016509Y006406D01*
X016449Y006347D01*
X016443Y006357D01*
X016410Y006390D01*
X016369Y006414D01*
X016323Y006426D01*
X016091Y006426D01*
X016091Y005980D01*
X015995Y005980D01*
X015995Y006426D01*
X015764Y006426D01*
X015718Y006414D01*
X015677Y006390D01*
X015643Y006357D01*
X015620Y006316D01*
X015607Y006270D01*
X015607Y005979D01*
X015995Y005979D01*
X015995Y005883D01*
X016091Y005883D01*
X016091Y005436D01*
X016323Y005436D01*
X016369Y005449D01*
X016410Y005472D01*
X016443Y005506D01*
X016449Y005516D01*
X016509Y005456D01*
X017153Y005456D01*
X017247Y005550D01*
X017247Y005721D01*
X017377Y005721D01*
X017377Y005570D01*
X017471Y005476D01*
X018116Y005476D01*
X018187Y005548D01*
X018259Y005476D01*
X018903Y005476D01*
X018997Y005570D01*
X018997Y005721D01*
X019127Y005721D01*
X019127Y005550D01*
X019221Y005456D01*
X019866Y005456D01*
X019925Y005516D01*
X019931Y005506D01*
X019964Y005472D01*
X020005Y005449D01*
X020051Y005436D01*
X020283Y005436D01*
X020283Y005883D01*
X020379Y005883D01*
X020379Y005436D01*
X020610Y005436D01*
X020656Y005449D01*
X020697Y005472D01*
X020731Y005506D01*
X020754Y005547D01*
X020767Y005593D01*
X020767Y005883D01*
X020379Y005883D01*
X020379Y005979D01*
X020767Y005979D01*
X020767Y006270D01*
X020754Y006316D01*
X020731Y006357D01*
X020697Y006390D01*
X020656Y006414D01*
X020610Y006426D01*
X020379Y006426D01*
X020379Y005980D01*
X020283Y005980D01*
X020283Y006426D01*
X020051Y006426D01*
X020005Y006414D01*
X019964Y006390D01*
X019931Y006357D01*
X019925Y006347D01*
X019866Y006406D01*
X019753Y006406D01*
X019753Y007039D01*
X021180Y007039D01*
X021273Y007133D01*
X021273Y008025D01*
X021180Y008119D01*
X018947Y008119D01*
X018853Y008025D01*
X018853Y007791D01*
X018852Y007791D01*
X018817Y007795D01*
X018750Y007822D01*
X018700Y007873D01*
X018672Y007939D01*
X018669Y007975D01*
X018669Y008062D01*
X018669Y010249D01*
X018709Y010289D01*
X018762Y010235D01*
X019155Y010235D01*
X019195Y010275D01*
X019218Y010251D01*
X019259Y010227D01*
X019305Y010215D01*
X019459Y010215D01*
X019612Y010215D01*
X019658Y010227D01*
X019699Y010251D01*
X019723Y010275D01*
X019747Y010250D01*
X019682Y010185D01*
X019627Y010053D01*
X019627Y009910D01*
X019682Y009777D01*
X019778Y009681D01*
X019682Y009585D01*
X019627Y009453D01*
X019627Y009310D01*
X019682Y009177D01*
X019783Y009076D01*
X019915Y009021D01*
X020059Y009021D01*
X020191Y009076D01*
X020286Y009171D01*
X020476Y009171D01*
X020427Y009053D01*
X020427Y008910D01*
X020482Y008777D01*
X020583Y008676D01*
X020715Y008621D01*
X020859Y008621D01*
X020991Y008676D01*
X021086Y008771D01*
X021152Y008771D01*
X021185Y008771D01*
X021407Y008863D01*
X021577Y009033D01*
X021669Y009255D01*
X021669Y009288D01*
X021669Y010249D01*
X021749Y010329D01*
X021749Y011261D01*
X021710Y011300D01*
X021750Y011340D01*
X021817Y011368D01*
X021852Y011371D01*
X021888Y011371D01*
X021983Y011276D01*
X022115Y011221D01*
X022259Y011221D01*
X022391Y011276D01*
X022492Y011377D01*
X022547Y011510D01*
X022547Y011653D01*
X022498Y011771D01*
X022777Y011771D01*
X022777Y011391D01*
X022626Y011391D01*
X022532Y011297D01*
X022532Y010653D01*
X022591Y010593D01*
X022581Y010588D01*
X022548Y010554D01*
X022524Y010513D01*
X022512Y010467D01*
X022512Y010236D01*
X022939Y010236D01*
X022939Y010140D01*
X022512Y010140D01*
X022512Y009908D01*
X022524Y009862D01*
X022548Y009821D01*
X022581Y009788D01*
X022622Y009764D01*
X022668Y009752D01*
X022939Y009752D01*
X022939Y010139D01*
X023035Y010139D01*
X023035Y009752D01*
X023306Y009752D01*
X023352Y009764D01*
X023379Y009780D01*
X023378Y009281D01*
X023282Y009185D01*
X023227Y009053D01*
X023227Y008910D01*
X023282Y008777D01*
X023383Y008676D01*
X023515Y008621D01*
X023659Y008621D01*
X023791Y008676D01*
X023892Y008777D01*
X023947Y008910D01*
X023947Y009053D01*
X023892Y009185D01*
X023798Y009280D01*
X023803Y011294D01*
X023803Y011294D01*
X023803Y011379D01*
X023804Y011468D01*
X023803Y011468D01*
X023803Y011551D01*
X023806Y011582D01*
X023830Y011640D01*
X023875Y011684D01*
X023933Y011709D01*
X023964Y011712D01*
X024000Y011708D01*
X024066Y011681D01*
X024094Y011658D01*
X024111Y011641D01*
X024073Y011604D01*
X024073Y011471D01*
X024723Y010821D01*
X024856Y010821D01*
X025228Y011193D01*
X025228Y011217D01*
X025253Y011217D01*
X025625Y011589D01*
X025625Y011614D01*
X025649Y011614D01*
X026022Y011986D01*
X026022Y012119D01*
X025371Y012769D01*
X025239Y012769D01*
X025214Y012744D01*
X025201Y012776D01*
X025197Y012812D01*
X025197Y012899D01*
X025197Y013082D01*
X025292Y013177D01*
X025347Y013310D01*
X025347Y013453D01*
X025298Y013571D01*
X025437Y013571D01*
X025447Y013570D01*
X025465Y013560D01*
X025476Y013542D01*
X025477Y013531D01*
X025477Y013444D01*
X025477Y013268D01*
X025477Y013181D01*
X025477Y013058D01*
X025600Y012845D01*
X025600Y012845D01*
X025814Y012721D01*
X025850Y012721D01*
X025948Y012721D01*
X026024Y012721D01*
X026377Y012721D01*
X026377Y012570D01*
X026471Y012476D01*
X027116Y012476D01*
X027175Y012536D01*
X027181Y012526D01*
X027201Y012505D01*
X026572Y011875D01*
X026572Y011743D01*
X026579Y011735D01*
X026391Y011658D01*
X026242Y011509D01*
X026162Y011315D01*
X026162Y011105D01*
X026242Y010911D01*
X026391Y010763D01*
X026585Y010683D01*
X026795Y010683D01*
X026989Y010763D01*
X027137Y010911D01*
X027215Y011099D01*
X027222Y011092D01*
X027355Y011092D01*
X028005Y011743D01*
X028005Y011875D01*
X027424Y012456D01*
X027533Y012456D01*
X027533Y012883D01*
X027629Y012883D01*
X027629Y012456D01*
X027860Y012456D01*
X027906Y012468D01*
X027947Y012492D01*
X027981Y012526D01*
X028004Y012567D01*
X028017Y012612D01*
X028017Y012883D01*
X027629Y012883D01*
X027629Y012979D01*
X028017Y012979D01*
X028017Y013250D01*
X028004Y013296D01*
X027998Y013306D01*
X028004Y013317D01*
X028017Y013362D01*
X028017Y013633D01*
X027629Y013633D01*
X027629Y013206D01*
X027629Y012980D01*
X027533Y012980D01*
X027533Y013407D01*
X027533Y013633D01*
X027629Y013633D01*
X027629Y013729D01*
X028017Y013729D01*
X028017Y014000D01*
X028004Y014046D01*
X027998Y014056D01*
X028004Y014067D01*
X028017Y014112D01*
X028017Y014383D01*
X027629Y014383D01*
X027629Y014157D01*
X027629Y013730D01*
X027533Y013730D01*
X027533Y014157D01*
X027533Y014383D01*
X027629Y014383D01*
X027629Y014479D01*
X028017Y014479D01*
X028017Y014750D01*
X028004Y014796D01*
X027981Y014837D01*
X027947Y014871D01*
X027906Y014894D01*
X027860Y014907D01*
X027629Y014907D01*
X027629Y014480D01*
X027533Y014480D01*
X027533Y014907D01*
X027301Y014907D01*
X027255Y014894D01*
X027214Y014871D01*
X027181Y014837D01*
X027175Y014827D01*
X027116Y014887D01*
X026471Y014887D01*
X026397Y014812D01*
X026397Y016372D01*
X026549Y016372D01*
X026642Y016466D01*
X026642Y017110D01*
X026571Y017181D01*
X026642Y017253D01*
X026642Y017897D01*
X026549Y017991D01*
X026397Y017991D01*
X026397Y019218D01*
X026397Y019255D01*
X026296Y019429D01*
X026448Y019491D01*
X026577Y019621D01*
X026647Y019790D01*
X026647Y020573D01*
X026577Y020742D01*
X026518Y020801D01*
X026857Y020801D01*
X026797Y020742D01*
X026727Y020573D01*
X026727Y019790D01*
X026797Y019621D01*
X026926Y019491D01*
X027096Y019421D01*
X027279Y019421D01*
X027448Y019491D01*
X027577Y019621D01*
X027647Y019790D01*
X027647Y020573D01*
X027639Y020592D01*
X027807Y020424D01*
X027807Y016006D01*
X027865Y015866D01*
X027972Y015759D01*
X028807Y014924D01*
X028807Y002339D01*
X027972Y001504D01*
X027865Y001397D01*
X027807Y001257D01*
X027807Y000561D01*
X027518Y000561D01*
X027577Y000621D01*
X027647Y000790D01*
X027647Y001573D01*
X027577Y001742D01*
X027448Y001871D01*
X027279Y001941D01*
X027096Y001941D01*
X026926Y001871D01*
X026797Y001742D01*
X026727Y001573D01*
X026727Y000790D01*
X026797Y000621D01*
X026857Y000561D01*
X026518Y000561D01*
X026577Y000621D01*
X026647Y000790D01*
X026647Y001573D01*
X026577Y001742D01*
X026448Y001871D01*
X026279Y001941D01*
X026096Y001941D01*
X025926Y001871D01*
X025797Y001742D01*
X025727Y001573D01*
X025727Y000790D01*
X025797Y000621D01*
X025857Y000561D01*
X025518Y000561D01*
X025577Y000621D01*
X025647Y000790D01*
X025647Y001573D01*
X025577Y001742D01*
X025448Y001871D01*
X025279Y001941D01*
X025096Y001941D01*
X024926Y001871D01*
X024797Y001742D01*
X024727Y001573D01*
X024727Y000790D01*
X024797Y000621D01*
X024857Y000561D01*
X024518Y000561D01*
X024577Y000621D01*
X024647Y000790D01*
X024647Y001573D01*
X024577Y001742D01*
X024448Y001871D01*
X024279Y001941D01*
X024096Y001941D01*
X023926Y001871D01*
X023797Y001742D01*
X023727Y001573D01*
X023727Y000790D01*
X023797Y000621D01*
X023857Y000561D01*
X023518Y000561D01*
X023577Y000621D01*
X023647Y000790D01*
X023647Y001573D01*
X023577Y001742D01*
X023448Y001871D01*
X023397Y001892D01*
X023397Y002201D01*
X023397Y002216D01*
X023397Y002375D01*
X023397Y002408D01*
X023305Y002630D01*
X023209Y002726D01*
X023278Y002726D01*
X023445Y002795D01*
X023573Y002924D01*
X023642Y003091D01*
X023642Y003272D01*
X023573Y003439D01*
X023445Y003567D01*
X023278Y003637D01*
X023096Y003637D01*
X022929Y003567D01*
X022801Y003439D01*
X022732Y003272D01*
X022732Y003091D01*
X022801Y002924D01*
X022833Y002891D01*
X022793Y002891D01*
X022706Y002891D01*
X022541Y002891D01*
X022573Y002924D01*
X022642Y003091D01*
X022642Y003272D01*
X022573Y003439D01*
X022445Y003567D01*
X022278Y003637D01*
X022096Y003637D01*
X021929Y003567D01*
X021801Y003439D01*
X021732Y003272D01*
X021732Y003091D01*
X021801Y002924D01*
X021833Y002891D01*
X021406Y002891D01*
X021492Y002977D01*
X021547Y003110D01*
X021547Y003253D01*
X021498Y003372D01*
X021549Y003372D01*
X021642Y003466D01*
X021642Y004110D01*
X021571Y004181D01*
X021642Y004253D01*
X021642Y004897D01*
X021549Y004991D01*
X021498Y004991D01*
X021547Y005110D01*
X021547Y005253D01*
X021492Y005385D01*
X021391Y005487D01*
X021259Y005541D01*
X021115Y005541D01*
X020983Y005487D01*
X020882Y005385D01*
X020827Y005253D01*
X020827Y005110D01*
X020876Y004991D01*
X020826Y004991D01*
X020732Y004897D01*
X020732Y004789D01*
X020641Y004880D01*
X020509Y004935D01*
X020365Y004935D01*
X020233Y004880D01*
X020162Y004809D01*
X020162Y004897D01*
X020068Y004991D01*
X019306Y004991D01*
X019212Y004897D01*
X019212Y004785D01*
X019142Y004785D01*
X019142Y004897D01*
X019049Y004991D01*
X018326Y004991D01*
X018232Y004897D01*
X018232Y004253D01*
X018303Y004181D01*
X018232Y004110D01*
X018232Y003998D01*
X018197Y003998D01*
X018197Y004018D01*
X018197Y004055D01*
X018074Y004268D01*
X018074Y004268D01*
X018074Y004268D01*
X017860Y004391D01*
X017828Y004391D01*
X017857Y004420D01*
X017857Y004943D01*
X017763Y005036D01*
X017359Y005036D01*
X017265Y004943D01*
X017265Y004420D01*
X017294Y004391D01*
X017150Y004391D01*
X017080Y004391D01*
X017109Y004420D01*
X017109Y004943D01*
X017023Y005028D01*
X017023Y005055D01*
X016900Y005268D01*
X016900Y005268D01*
X016900Y005268D01*
X016686Y005391D01*
X016650Y005391D01*
X016552Y005391D01*
X016476Y005391D01*
X015600Y005391D01*
X015081Y005391D01*
X015045Y005395D01*
X014979Y005422D01*
X014928Y005473D01*
X014901Y005539D01*
X014897Y005575D01*
X014897Y008682D01*
X014992Y008777D01*
X015047Y008910D01*
X015047Y009053D01*
X014992Y009185D01*
X014891Y009287D01*
X014759Y009341D01*
X014615Y009341D01*
X014483Y009287D01*
X014382Y009185D01*
X014327Y009053D01*
X014327Y008910D01*
X014382Y008777D01*
X014477Y008682D01*
X014477Y005488D01*
X014477Y005455D01*
X014569Y005233D01*
X014739Y005063D01*
X014961Y004971D01*
X014994Y004971D01*
X015286Y004971D01*
X015212Y004897D01*
X015212Y004253D01*
X015223Y004145D02*
X013897Y004145D01*
X013897Y003986D02*
X015192Y003986D01*
X015192Y003669D02*
X013897Y003669D01*
X013897Y003511D02*
X015192Y003511D01*
X015347Y003352D02*
X013897Y003352D01*
X013897Y003194D02*
X020827Y003194D01*
X020858Y003035D02*
X013902Y003035D01*
X013897Y003828D02*
X015639Y003828D01*
X015735Y003828D02*
X016517Y003828D01*
X016517Y003669D02*
X016182Y003669D01*
X016182Y003511D02*
X016517Y003511D01*
X016566Y003352D02*
X016027Y003352D01*
X015735Y003352D02*
X015639Y003352D01*
X015639Y003511D02*
X015735Y003511D01*
X015735Y003669D02*
X015639Y003669D01*
X016182Y003986D02*
X016581Y003986D01*
X016655Y004145D02*
X016151Y004145D01*
X016162Y004304D02*
X016788Y004304D01*
X016726Y004268D02*
X016726Y004268D01*
X016726Y004268D01*
X016517Y004462D02*
X016162Y004462D01*
X016162Y004621D02*
X016517Y004621D01*
X016517Y004779D02*
X016162Y004779D01*
X016122Y004938D02*
X016517Y004938D01*
X016907Y005255D02*
X020828Y005255D01*
X020833Y005096D02*
X016999Y005096D01*
X017023Y005055D02*
X017023Y005055D01*
X017109Y004938D02*
X017265Y004938D01*
X017265Y004779D02*
X017109Y004779D01*
X017109Y004621D02*
X017265Y004621D01*
X017265Y004462D02*
X017109Y004462D01*
X017857Y004462D02*
X018232Y004462D01*
X018232Y004304D02*
X018012Y004304D01*
X017860Y004391D02*
X017860Y004391D01*
X017857Y004621D02*
X018232Y004621D01*
X018232Y004779D02*
X017857Y004779D01*
X017857Y004938D02*
X018272Y004938D01*
X019102Y004938D02*
X019253Y004938D01*
X019127Y005572D02*
X018997Y005572D01*
X018997Y006141D02*
X018997Y006293D01*
X018903Y006387D01*
X018259Y006387D01*
X018187Y006315D01*
X018116Y006387D01*
X017471Y006387D01*
X017377Y006293D01*
X017377Y006141D01*
X017247Y006141D01*
X017247Y006313D01*
X017153Y006406D01*
X017041Y006406D01*
X017041Y007039D01*
X017380Y007039D01*
X017473Y007133D01*
X017473Y007371D01*
X017478Y007371D01*
X017509Y007371D01*
X017652Y007371D01*
X017685Y007371D01*
X017907Y007463D01*
X018077Y007633D01*
X018169Y007855D01*
X018169Y007888D01*
X018169Y010249D01*
X018209Y010289D01*
X018249Y010249D01*
X018249Y008062D01*
X018249Y007975D01*
X018249Y007855D01*
X018341Y007633D01*
X018077Y007633D01*
X018077Y007633D01*
X018142Y007791D02*
X018275Y007791D01*
X018249Y007855D02*
X018249Y007855D01*
X018169Y007855D02*
X018169Y007855D01*
X018169Y007950D02*
X018249Y007950D01*
X018249Y008109D02*
X018169Y008109D01*
X018169Y008267D02*
X018249Y008267D01*
X018249Y008426D02*
X018169Y008426D01*
X018169Y008584D02*
X018249Y008584D01*
X018249Y008743D02*
X018169Y008743D01*
X018169Y008901D02*
X018249Y008901D01*
X018249Y009060D02*
X018169Y009060D01*
X018169Y009218D02*
X018249Y009218D01*
X018249Y009377D02*
X018169Y009377D01*
X018169Y009535D02*
X018249Y009535D01*
X018249Y009694D02*
X018169Y009694D01*
X018169Y009853D02*
X018249Y009853D01*
X018249Y010011D02*
X018169Y010011D01*
X018169Y010170D02*
X018249Y010170D01*
X018669Y010170D02*
X019675Y010170D01*
X019627Y010011D02*
X018669Y010011D01*
X018669Y009853D02*
X019651Y009853D01*
X019765Y009694D02*
X018669Y009694D01*
X018669Y009535D02*
X019661Y009535D01*
X019627Y009377D02*
X018669Y009377D01*
X018669Y009218D02*
X019665Y009218D01*
X019823Y009060D02*
X018669Y009060D01*
X018669Y008901D02*
X020431Y008901D01*
X020430Y009060D02*
X020151Y009060D01*
X020517Y008743D02*
X018669Y008743D01*
X018669Y008584D02*
X025881Y008584D01*
X025882Y008585D02*
X025827Y008453D01*
X025827Y008310D01*
X025882Y008177D01*
X025983Y008076D01*
X026115Y008021D01*
X026259Y008021D01*
X026391Y008076D01*
X026486Y008171D01*
X026943Y008171D01*
X026958Y008171D01*
X027117Y008171D01*
X027150Y008171D01*
X027150Y008171D01*
X027358Y008291D01*
X027477Y008499D01*
X027477Y008531D01*
X027477Y008618D01*
X027477Y008738D01*
X027477Y008738D01*
X027404Y008915D01*
X027455Y008966D01*
X027455Y008975D01*
X027483Y008983D01*
X027524Y009006D01*
X027667Y009149D01*
X027274Y009542D01*
X027301Y009568D01*
X027693Y009175D01*
X027836Y009318D01*
X027860Y009359D01*
X027867Y009387D01*
X027877Y009387D01*
X027914Y009425D01*
X027923Y009415D01*
X027946Y009388D01*
X027974Y009321D01*
X027977Y009286D01*
X027977Y009219D01*
X027977Y009199D01*
X027977Y008281D01*
X027882Y008185D01*
X027827Y008053D01*
X027827Y007910D01*
X027882Y007777D01*
X027983Y007676D01*
X028088Y007633D01*
X027287Y007633D01*
X027278Y007637D02*
X027096Y007637D01*
X026929Y007567D01*
X026801Y007439D01*
X026732Y007272D01*
X026732Y007091D01*
X026801Y006924D01*
X026929Y006795D01*
X027096Y006726D01*
X027278Y006726D01*
X027445Y006795D01*
X027573Y006924D01*
X027642Y007091D01*
X027642Y007272D01*
X027573Y007439D01*
X027445Y007567D01*
X027278Y007637D01*
X027088Y007633D02*
X026287Y007633D01*
X026278Y007637D02*
X026096Y007637D01*
X025929Y007567D01*
X025801Y007439D01*
X025732Y007272D01*
X025732Y007091D01*
X025801Y006924D01*
X025929Y006795D01*
X026096Y006726D01*
X026278Y006726D01*
X026445Y006795D01*
X026573Y006924D01*
X026642Y007091D01*
X026642Y007272D01*
X026573Y007439D01*
X026445Y007567D01*
X026278Y007637D01*
X026088Y007633D02*
X025287Y007633D01*
X025278Y007637D02*
X025096Y007637D01*
X024929Y007567D01*
X024801Y007439D01*
X024732Y007272D01*
X024732Y007091D01*
X024801Y006924D01*
X024929Y006795D01*
X025096Y006726D01*
X025278Y006726D01*
X025445Y006795D01*
X025573Y006924D01*
X025642Y007091D01*
X025642Y007272D01*
X025573Y007439D01*
X025445Y007567D01*
X025278Y007637D01*
X025088Y007633D02*
X024287Y007633D01*
X024278Y007637D02*
X024096Y007637D01*
X023929Y007567D01*
X023801Y007439D01*
X023732Y007272D01*
X023732Y007091D01*
X023801Y006924D01*
X023929Y006795D01*
X024096Y006726D01*
X024278Y006726D01*
X024445Y006795D01*
X024573Y006924D01*
X024642Y007091D01*
X024642Y007272D01*
X024573Y007439D01*
X024445Y007567D01*
X024278Y007637D01*
X024088Y007633D02*
X023287Y007633D01*
X023278Y007637D02*
X023096Y007637D01*
X022929Y007567D01*
X022801Y007439D01*
X022732Y007272D01*
X022732Y007091D01*
X022801Y006924D01*
X022929Y006795D01*
X023096Y006726D01*
X023278Y006726D01*
X023445Y006795D01*
X023573Y006924D01*
X023642Y007091D01*
X023642Y007272D01*
X023573Y007439D01*
X023445Y007567D01*
X023278Y007637D01*
X023088Y007633D02*
X022287Y007633D01*
X022278Y007637D02*
X022096Y007637D01*
X021929Y007567D01*
X021801Y007439D01*
X021732Y007272D01*
X021732Y007091D01*
X021801Y006924D01*
X021929Y006795D01*
X022096Y006726D01*
X022278Y006726D01*
X022445Y006795D01*
X022573Y006924D01*
X022642Y007091D01*
X022642Y007272D01*
X022573Y007439D01*
X022445Y007567D01*
X022278Y007637D01*
X022088Y007633D02*
X021273Y007633D01*
X021273Y007791D02*
X027876Y007791D01*
X027827Y007950D02*
X021273Y007950D01*
X021190Y008109D02*
X025951Y008109D01*
X025845Y008267D02*
X018669Y008267D01*
X018669Y008109D02*
X018937Y008109D01*
X018853Y007950D02*
X018671Y007950D01*
X018851Y007791D02*
X018853Y007791D01*
X018852Y007371D02*
X018765Y007371D01*
X018732Y007371D01*
X018732Y007371D01*
X018511Y007463D01*
X018510Y007463D01*
X018341Y007633D01*
X018341Y007633D01*
X018499Y007474D02*
X017918Y007474D01*
X017907Y007463D02*
X017907Y007463D01*
X017685Y007371D02*
X017685Y007371D01*
X017473Y007316D02*
X018853Y007316D01*
X018853Y007371D02*
X018853Y007133D01*
X018947Y007039D01*
X019333Y007039D01*
X019333Y006406D01*
X019221Y006406D01*
X019127Y006313D01*
X019127Y006141D01*
X018997Y006141D01*
X018997Y006206D02*
X019127Y006206D01*
X019179Y006365D02*
X018925Y006365D01*
X019333Y006523D02*
X017041Y006523D01*
X017041Y006682D02*
X019333Y006682D01*
X019333Y006840D02*
X017041Y006840D01*
X017041Y006999D02*
X019333Y006999D01*
X018853Y007157D02*
X017473Y007157D01*
X017473Y007791D02*
X017566Y007791D01*
X017473Y007950D02*
X017746Y007950D01*
X017749Y008109D02*
X017390Y008109D01*
X017749Y008267D02*
X015669Y008267D01*
X015816Y008426D02*
X017749Y008426D01*
X017749Y008584D02*
X016028Y008584D01*
X016077Y008633D02*
X016077Y008633D01*
X016122Y008743D02*
X016688Y008743D01*
X016602Y008901D02*
X016169Y008901D01*
X016169Y008855D02*
X016169Y008855D01*
X016169Y009060D02*
X016602Y009060D01*
X016687Y009218D02*
X016169Y009218D01*
X016169Y009377D02*
X016749Y009377D01*
X016749Y009535D02*
X016700Y009535D01*
X016174Y009535D02*
X016169Y009535D01*
X015749Y009535D02*
X015722Y009535D01*
X015749Y009377D02*
X013923Y009377D01*
X013897Y009218D02*
X014415Y009218D01*
X014330Y009060D02*
X013897Y009060D01*
X013897Y008901D02*
X014331Y008901D01*
X014417Y008743D02*
X013897Y008743D01*
X013897Y008584D02*
X014477Y008584D01*
X014477Y008426D02*
X013897Y008426D01*
X013897Y008267D02*
X014477Y008267D01*
X014477Y008109D02*
X013897Y008109D01*
X013897Y007950D02*
X014477Y007950D01*
X014477Y007791D02*
X013897Y007791D01*
X013897Y007633D02*
X014477Y007633D01*
X014477Y007474D02*
X013897Y007474D01*
X013897Y007316D02*
X014477Y007316D01*
X014477Y007157D02*
X013897Y007157D01*
X013897Y006999D02*
X014477Y006999D01*
X014477Y006840D02*
X013897Y006840D01*
X013897Y006682D02*
X014477Y006682D01*
X014477Y006523D02*
X013897Y006523D01*
X013897Y006365D02*
X014477Y006365D01*
X014477Y006206D02*
X013897Y006206D01*
X013897Y006048D02*
X014477Y006048D01*
X014477Y005889D02*
X013897Y005889D01*
X013897Y005730D02*
X014477Y005730D01*
X014477Y005572D02*
X013897Y005572D01*
X013897Y005413D02*
X014494Y005413D01*
X014477Y005455D02*
X014477Y005455D01*
X014560Y005255D02*
X013897Y005255D01*
X013897Y005096D02*
X014706Y005096D01*
X014739Y005063D02*
X014739Y005063D01*
X014961Y004971D02*
X014961Y004971D01*
X015253Y004938D02*
X013897Y004938D01*
X013897Y004779D02*
X015212Y004779D01*
X015212Y004621D02*
X013897Y004621D01*
X013897Y004462D02*
X015212Y004462D01*
X014569Y005233D02*
X014569Y005233D01*
X015000Y005413D02*
X020910Y005413D01*
X020761Y005572D02*
X021940Y005572D01*
X021929Y005567D02*
X021801Y005439D01*
X021732Y005272D01*
X021732Y005091D01*
X021801Y004924D01*
X021929Y004795D01*
X022096Y004726D01*
X022278Y004726D01*
X022445Y004795D01*
X022573Y004924D01*
X022642Y005091D01*
X022642Y005272D01*
X022573Y005439D01*
X022445Y005567D01*
X022278Y005637D01*
X022096Y005637D01*
X021929Y005567D01*
X021790Y005413D02*
X021464Y005413D01*
X021546Y005255D02*
X021732Y005255D01*
X021732Y005096D02*
X021541Y005096D01*
X021602Y004938D02*
X021795Y004938D01*
X021642Y004779D02*
X021968Y004779D01*
X022058Y004621D02*
X021642Y004621D01*
X021642Y004462D02*
X021824Y004462D01*
X021801Y004439D02*
X021732Y004272D01*
X021732Y004091D01*
X021801Y003924D01*
X021929Y003795D01*
X022096Y003726D01*
X022278Y003726D01*
X022445Y003795D01*
X022573Y003924D01*
X022642Y004091D01*
X022642Y004272D01*
X022573Y004439D01*
X022445Y004567D01*
X022278Y004637D01*
X022096Y004637D01*
X021929Y004567D01*
X021801Y004439D01*
X021745Y004304D02*
X021642Y004304D01*
X021607Y004145D02*
X021732Y004145D01*
X021775Y003986D02*
X021642Y003986D01*
X021642Y003828D02*
X021897Y003828D01*
X021642Y003669D02*
X028807Y003669D01*
X028807Y003511D02*
X028501Y003511D01*
X028445Y003567D02*
X028278Y003637D01*
X028096Y003637D01*
X027929Y003567D01*
X027801Y003439D01*
X027732Y003272D01*
X027732Y003091D01*
X027801Y002924D01*
X027929Y002795D01*
X028096Y002726D01*
X028278Y002726D01*
X028445Y002795D01*
X028573Y002924D01*
X028642Y003091D01*
X028642Y003272D01*
X028573Y003439D01*
X028445Y003567D01*
X028445Y003795D02*
X028573Y003924D01*
X028642Y004091D01*
X028642Y004272D01*
X028573Y004439D01*
X028445Y004567D01*
X028278Y004637D01*
X028096Y004637D01*
X027929Y004567D01*
X027801Y004439D01*
X027732Y004272D01*
X027732Y004091D01*
X027801Y003924D01*
X027929Y003795D01*
X028096Y003726D01*
X028278Y003726D01*
X028445Y003795D01*
X028477Y003828D02*
X028807Y003828D01*
X028807Y003986D02*
X028599Y003986D01*
X028642Y004145D02*
X028807Y004145D01*
X028807Y004304D02*
X028629Y004304D01*
X028550Y004462D02*
X028807Y004462D01*
X028807Y004621D02*
X028316Y004621D01*
X028278Y004726D02*
X028096Y004726D01*
X027929Y004795D01*
X027801Y004924D01*
X027732Y005091D01*
X027732Y005272D01*
X027801Y005439D01*
X027929Y005567D01*
X028096Y005637D01*
X028278Y005637D01*
X028445Y005567D01*
X028573Y005439D01*
X028642Y005272D01*
X028642Y005091D01*
X028573Y004924D01*
X028445Y004795D01*
X028278Y004726D01*
X028406Y004779D02*
X028807Y004779D01*
X028807Y004938D02*
X028579Y004938D01*
X028642Y005096D02*
X028807Y005096D01*
X028807Y005255D02*
X028642Y005255D01*
X028584Y005413D02*
X028807Y005413D01*
X028807Y005572D02*
X028434Y005572D01*
X028288Y005730D02*
X028807Y005730D01*
X028807Y005889D02*
X028539Y005889D01*
X028573Y005924D02*
X028445Y005795D01*
X028278Y005726D01*
X028096Y005726D01*
X027929Y005795D01*
X027801Y005924D01*
X027732Y006091D01*
X027732Y006272D01*
X027801Y006439D01*
X027929Y006567D01*
X028096Y006637D01*
X028278Y006637D01*
X028445Y006567D01*
X028573Y006439D01*
X028642Y006272D01*
X028642Y006091D01*
X028573Y005924D01*
X028624Y006048D02*
X028807Y006048D01*
X028807Y006206D02*
X028642Y006206D01*
X028604Y006365D02*
X028807Y006365D01*
X028807Y006523D02*
X028489Y006523D01*
X028445Y006795D02*
X028573Y006924D01*
X028642Y007091D01*
X028642Y007272D01*
X028573Y007439D01*
X028445Y007567D01*
X028286Y007633D01*
X028807Y007633D01*
X028807Y007791D02*
X028498Y007791D01*
X028492Y007777D02*
X028547Y007910D01*
X028547Y008053D01*
X028492Y008185D01*
X028397Y008281D01*
X028397Y009199D01*
X028397Y009220D01*
X028397Y009372D01*
X028397Y009406D01*
X028305Y009627D01*
X028305Y009627D01*
X028282Y009651D01*
X028211Y009722D01*
X028249Y009759D01*
X028249Y009892D01*
X027598Y010542D01*
X027466Y010542D01*
X027094Y010170D01*
X027094Y010161D01*
X027066Y010153D01*
X027025Y010129D01*
X026882Y009986D01*
X027274Y009594D01*
X027248Y009568D01*
X026856Y009960D01*
X026713Y009818D01*
X026689Y009776D01*
X026682Y009749D01*
X026672Y009749D01*
X026300Y009377D01*
X026300Y009244D01*
X026951Y008594D01*
X027040Y008594D01*
X027037Y008592D01*
X027030Y008591D01*
X026957Y008591D01*
X026943Y008591D01*
X026486Y008591D01*
X026391Y008687D01*
X026259Y008741D01*
X026115Y008741D01*
X025983Y008687D01*
X025882Y008585D01*
X025827Y008426D02*
X018669Y008426D01*
X017749Y008743D02*
X017229Y008743D01*
X017315Y008901D02*
X017749Y008901D01*
X017749Y009060D02*
X017316Y009060D01*
X017231Y009218D02*
X017749Y009218D01*
X017749Y009377D02*
X017169Y009377D01*
X017169Y009535D02*
X017749Y009535D01*
X017749Y009694D02*
X017169Y009694D01*
X017169Y009853D02*
X017749Y009853D01*
X017749Y010011D02*
X017169Y010011D01*
X017169Y010170D02*
X017749Y010170D01*
X017459Y010215D02*
X017459Y010795D01*
X017459Y010795D01*
X017459Y010796D02*
X017459Y010796D01*
X017459Y011375D01*
X017612Y011375D01*
X017658Y011363D01*
X017699Y011339D01*
X017723Y011315D01*
X017762Y011355D01*
X018155Y011355D01*
X018209Y011301D01*
X018262Y011355D01*
X018655Y011355D01*
X018709Y011301D01*
X018749Y011341D01*
X018749Y012382D01*
X018660Y012471D01*
X017352Y012471D01*
X017317Y012468D01*
X017250Y012440D01*
X017200Y012390D01*
X017172Y012324D01*
X017169Y012288D01*
X017169Y012201D01*
X017169Y011341D01*
X017195Y011315D01*
X017218Y011339D01*
X017259Y011363D01*
X017305Y011375D01*
X017459Y011375D01*
X017459Y010796D01*
X017459Y010795D02*
X017459Y010215D01*
X017459Y010328D02*
X017459Y010328D01*
X017459Y010487D02*
X017459Y010487D01*
X017459Y010645D02*
X017459Y010645D01*
X017459Y010804D02*
X017459Y010804D01*
X017459Y010962D02*
X017459Y010962D01*
X017459Y011121D02*
X017459Y011121D01*
X017459Y011279D02*
X017459Y011279D01*
X017169Y011438D02*
X018749Y011438D01*
X018749Y011597D02*
X017169Y011597D01*
X017169Y011755D02*
X018749Y011755D01*
X018749Y011914D02*
X017169Y011914D01*
X017169Y012072D02*
X018749Y012072D01*
X018749Y012231D02*
X017169Y012231D01*
X017199Y012389D02*
X018742Y012389D01*
X019169Y012382D02*
X019264Y012477D01*
X019319Y012610D01*
X019319Y012753D01*
X019264Y012885D01*
X019178Y012971D01*
X020184Y012971D01*
X020011Y012899D01*
X020010Y012899D01*
X019841Y012730D01*
X019749Y012508D01*
X019749Y012508D01*
X019749Y012388D01*
X019749Y012301D01*
X019749Y011341D01*
X019723Y011316D01*
X019699Y011339D01*
X019658Y011363D01*
X019612Y011375D01*
X019459Y011375D01*
X019459Y010796D01*
X019459Y010796D01*
X019459Y011375D01*
X019305Y011375D01*
X019259Y011363D01*
X019218Y011339D01*
X019195Y011315D01*
X019169Y011341D01*
X019169Y012382D01*
X019176Y012389D02*
X019749Y012389D01*
X019749Y012231D02*
X019169Y012231D01*
X019169Y012072D02*
X019749Y012072D01*
X019749Y011914D02*
X019169Y011914D01*
X019169Y011755D02*
X019749Y011755D01*
X019749Y011597D02*
X019169Y011597D01*
X019169Y011438D02*
X019749Y011438D01*
X019459Y011279D02*
X019459Y011279D01*
X019459Y011121D02*
X019459Y011121D01*
X019459Y010962D02*
X019459Y010962D01*
X019459Y010804D02*
X019459Y010804D01*
X019459Y010795D02*
X019459Y010215D01*
X019459Y010795D01*
X019459Y010795D01*
X019459Y010645D02*
X019459Y010645D01*
X019459Y010487D02*
X019459Y010487D01*
X019459Y010328D02*
X019459Y010328D01*
X021669Y010170D02*
X022939Y010170D01*
X022939Y010011D02*
X023035Y010011D01*
X023035Y009853D02*
X022939Y009853D01*
X022530Y009853D02*
X021669Y009853D01*
X021669Y010011D02*
X022512Y010011D01*
X022512Y010328D02*
X021748Y010328D01*
X021749Y010487D02*
X022517Y010487D01*
X022539Y010645D02*
X021749Y010645D01*
X021749Y010804D02*
X022532Y010804D01*
X022532Y010962D02*
X021749Y010962D01*
X021749Y011121D02*
X022532Y011121D01*
X022532Y011279D02*
X022394Y011279D01*
X022517Y011438D02*
X022777Y011438D01*
X022777Y011597D02*
X022547Y011597D01*
X022505Y011755D02*
X022777Y011755D01*
X021980Y011279D02*
X021731Y011279D01*
X019765Y012548D02*
X019293Y012548D01*
X019319Y012706D02*
X019831Y012706D01*
X019841Y012730D02*
X019841Y012730D01*
X019976Y012865D02*
X019272Y012865D01*
X019959Y014292D02*
X019959Y014292D01*
X019959Y014450D02*
X019959Y014450D01*
X019959Y014609D02*
X019959Y014609D01*
X019959Y014767D02*
X019959Y014767D01*
X019959Y014926D02*
X019959Y014926D01*
X019959Y015084D02*
X019959Y015084D01*
X019959Y015243D02*
X019959Y015243D01*
X019669Y015402D02*
X021249Y015402D01*
X021249Y015560D02*
X019746Y015560D01*
X019819Y015719D02*
X020977Y015719D01*
X020977Y015877D02*
X019809Y015877D01*
X019713Y016036D02*
X020977Y016036D01*
X020977Y016194D02*
X019669Y016194D01*
X019669Y016353D02*
X019845Y016353D01*
X019692Y016511D02*
X019669Y016511D01*
X019669Y016670D02*
X019692Y016670D01*
X019669Y016828D02*
X020139Y016828D01*
X020235Y016828D02*
X020732Y016828D01*
X020732Y016670D02*
X020682Y016670D01*
X020682Y016511D02*
X020732Y016511D01*
X020530Y016353D02*
X020977Y016353D01*
X021397Y016353D02*
X021977Y016353D01*
X021977Y016511D02*
X021642Y016511D01*
X021642Y016670D02*
X021977Y016670D01*
X021977Y016828D02*
X021642Y016828D01*
X021642Y016987D02*
X021977Y016987D01*
X021977Y017146D02*
X021607Y017146D01*
X021642Y017304D02*
X021977Y017304D01*
X021977Y017463D02*
X021642Y017463D01*
X021642Y017621D02*
X021977Y017621D01*
X021977Y017780D02*
X021642Y017780D01*
X021601Y017938D02*
X021977Y017938D01*
X021939Y018097D02*
X019090Y018097D01*
X019156Y017938D02*
X019753Y017938D01*
X019712Y017780D02*
X019169Y017780D01*
X019169Y017621D02*
X019439Y017621D01*
X019316Y017463D02*
X019169Y017463D01*
X019169Y017304D02*
X019250Y017304D01*
X019249Y017146D02*
X019169Y017146D01*
X019169Y016987D02*
X019249Y016987D01*
X019249Y016828D02*
X019169Y016828D01*
X019169Y016670D02*
X019249Y016670D01*
X019249Y016511D02*
X019169Y016511D01*
X019169Y016353D02*
X019249Y016353D01*
X019249Y016194D02*
X019169Y016194D01*
X019169Y016036D02*
X019204Y016036D01*
X018749Y016036D02*
X018169Y016036D01*
X018169Y016194D02*
X018749Y016194D01*
X018749Y016353D02*
X018111Y016353D01*
X018062Y016511D02*
X018749Y016511D01*
X018749Y016670D02*
X018062Y016670D01*
X018062Y016828D02*
X018749Y016828D01*
X018749Y016987D02*
X018062Y016987D01*
X018026Y017146D02*
X018749Y017146D01*
X018749Y017304D02*
X018082Y017304D01*
X018082Y017463D02*
X018749Y017463D01*
X018749Y017621D02*
X017635Y017621D01*
X018082Y017780D02*
X018749Y017780D01*
X018669Y017938D02*
X018048Y017938D01*
X016745Y017621D02*
X014400Y017621D01*
X014397Y017463D02*
X016749Y017463D01*
X016749Y017304D02*
X014397Y017304D01*
X014397Y017146D02*
X016749Y017146D01*
X016749Y016987D02*
X016372Y016987D01*
X016462Y016828D02*
X016749Y016828D01*
X016749Y016670D02*
X016462Y016670D01*
X016462Y016511D02*
X016749Y016511D01*
X016749Y016353D02*
X016462Y016353D01*
X016412Y016194D02*
X016749Y016194D01*
X016749Y016036D02*
X016442Y016036D01*
X016442Y015877D02*
X016749Y015877D01*
X016749Y015719D02*
X016442Y015719D01*
X016442Y015560D02*
X016749Y015560D01*
X016749Y015402D02*
X016378Y015402D01*
X016459Y015243D02*
X016459Y015243D01*
X016459Y015084D02*
X016459Y015084D01*
X016459Y014926D02*
X016459Y014926D01*
X016459Y014767D02*
X016459Y014767D01*
X016459Y014609D02*
X016459Y014609D01*
X016459Y014450D02*
X016459Y014450D01*
X016459Y014292D02*
X016459Y014292D01*
X016169Y014133D02*
X022377Y014133D01*
X022377Y013975D02*
X016175Y013975D01*
X016293Y013816D02*
X022377Y013816D01*
X022377Y013658D02*
X016319Y013658D01*
X016273Y013499D02*
X022357Y013499D01*
X022377Y014292D02*
X021749Y014292D01*
X021749Y014450D02*
X022436Y014450D01*
X022548Y014609D02*
X021749Y014609D01*
X021749Y014767D02*
X022803Y014767D01*
X022941Y015719D02*
X022433Y015719D01*
X022534Y015877D02*
X022841Y015877D01*
X022827Y016036D02*
X022547Y016036D01*
X022483Y016194D02*
X022891Y016194D01*
X022977Y016353D02*
X022397Y016353D01*
X022397Y016511D02*
X022732Y016511D01*
X022732Y016670D02*
X022397Y016670D01*
X022397Y016828D02*
X022732Y016828D01*
X022732Y016987D02*
X022397Y016987D01*
X022397Y017146D02*
X022767Y017146D01*
X022732Y017304D02*
X022397Y017304D01*
X022397Y017463D02*
X022732Y017463D01*
X022732Y017621D02*
X022397Y017621D01*
X022397Y017780D02*
X022732Y017780D01*
X022773Y017938D02*
X022397Y017938D01*
X022397Y018097D02*
X022977Y018097D01*
X022960Y018255D02*
X022336Y018255D01*
X023353Y018414D02*
X023974Y018414D01*
X023977Y018255D02*
X023397Y018255D01*
X023397Y018097D02*
X023977Y018097D01*
X023773Y017938D02*
X023601Y017938D01*
X023642Y017780D02*
X023732Y017780D01*
X023732Y017621D02*
X023642Y017621D01*
X023642Y017463D02*
X023732Y017463D01*
X023732Y017304D02*
X023642Y017304D01*
X023607Y017146D02*
X023768Y017146D01*
X023732Y016987D02*
X023642Y016987D01*
X023642Y016828D02*
X023732Y016828D01*
X023732Y016670D02*
X023642Y016670D01*
X023642Y016511D02*
X023732Y016511D01*
X023977Y016353D02*
X023397Y016353D01*
X023483Y016194D02*
X023891Y016194D01*
X023827Y016036D02*
X023547Y016036D01*
X023534Y015877D02*
X023841Y015877D01*
X023941Y015719D02*
X023433Y015719D01*
X024433Y015719D02*
X025977Y015719D01*
X025977Y015877D02*
X024992Y015877D01*
X025172Y016036D02*
X025977Y016036D01*
X025977Y016194D02*
X025331Y016194D01*
X025397Y016353D02*
X025977Y016353D01*
X025732Y016511D02*
X025642Y016511D01*
X025642Y016670D02*
X025732Y016670D01*
X025732Y016828D02*
X025642Y016828D01*
X025642Y016987D02*
X025732Y016987D01*
X025768Y017146D02*
X025607Y017146D01*
X025642Y017304D02*
X025732Y017304D01*
X025732Y017463D02*
X025642Y017463D01*
X025642Y017621D02*
X025732Y017621D01*
X025732Y017780D02*
X025642Y017780D01*
X025601Y017938D02*
X025773Y017938D01*
X025977Y018097D02*
X025397Y018097D01*
X025397Y018255D02*
X025977Y018255D01*
X025977Y018414D02*
X025397Y018414D01*
X025397Y018572D02*
X025977Y018572D01*
X025977Y018731D02*
X025397Y018731D01*
X025397Y018890D02*
X025977Y018890D01*
X025977Y019048D02*
X025397Y019048D01*
X026333Y019365D02*
X027807Y019365D01*
X027807Y019207D02*
X026397Y019207D01*
X026397Y019255D02*
X026397Y019255D01*
X026397Y019048D02*
X027807Y019048D01*
X027807Y018890D02*
X026397Y018890D01*
X026397Y018731D02*
X027807Y018731D01*
X027807Y018572D02*
X026397Y018572D01*
X026397Y018414D02*
X027807Y018414D01*
X027807Y018255D02*
X026397Y018255D01*
X026397Y018097D02*
X027807Y018097D01*
X027807Y017938D02*
X026601Y017938D01*
X026642Y017780D02*
X027807Y017780D01*
X027807Y017621D02*
X026642Y017621D01*
X026642Y017463D02*
X027807Y017463D01*
X027807Y017304D02*
X026642Y017304D01*
X026607Y017146D02*
X027807Y017146D01*
X027807Y016987D02*
X026642Y016987D01*
X026642Y016828D02*
X027807Y016828D01*
X027807Y016670D02*
X026642Y016670D01*
X026642Y016511D02*
X027807Y016511D01*
X027807Y016353D02*
X026397Y016353D01*
X026397Y016194D02*
X027807Y016194D01*
X027807Y016036D02*
X026397Y016036D01*
X026397Y015877D02*
X027860Y015877D01*
X027972Y015759D02*
X027972Y015759D01*
X028012Y015719D02*
X026397Y015719D01*
X026397Y015560D02*
X028171Y015560D01*
X028330Y015402D02*
X026397Y015402D01*
X026397Y015243D02*
X028488Y015243D01*
X028647Y015084D02*
X026397Y015084D01*
X026397Y014926D02*
X028805Y014926D01*
X028807Y014767D02*
X028012Y014767D01*
X028017Y014609D02*
X028807Y014609D01*
X028807Y014450D02*
X027629Y014450D01*
X027629Y014292D02*
X027533Y014292D01*
X027533Y014133D02*
X027629Y014133D01*
X027629Y013975D02*
X027533Y013975D01*
X027533Y013816D02*
X027629Y013816D01*
X027629Y013658D02*
X028807Y013658D01*
X028807Y013816D02*
X028017Y013816D01*
X028017Y013975D02*
X028807Y013975D01*
X028807Y014133D02*
X028017Y014133D01*
X028017Y014292D02*
X028807Y014292D01*
X028807Y013499D02*
X028017Y013499D01*
X028011Y013341D02*
X028807Y013341D01*
X028807Y013182D02*
X028017Y013182D01*
X028017Y013023D02*
X028807Y013023D01*
X028807Y012865D02*
X028017Y012865D01*
X028017Y012706D02*
X028807Y012706D01*
X028807Y012548D02*
X027993Y012548D01*
X027629Y012548D02*
X027533Y012548D01*
X027533Y012706D02*
X027629Y012706D01*
X027629Y012865D02*
X027533Y012865D01*
X027533Y013023D02*
X027629Y013023D01*
X027629Y013182D02*
X027533Y013182D01*
X027533Y013341D02*
X027629Y013341D01*
X027629Y013499D02*
X027533Y013499D01*
X026377Y012706D02*
X025434Y012706D01*
X025600Y012845D02*
X025600Y012845D01*
X025589Y012865D02*
X025197Y012865D01*
X025197Y013023D02*
X025497Y013023D01*
X025477Y013058D02*
X025477Y013058D01*
X025477Y013182D02*
X025294Y013182D01*
X025347Y013341D02*
X025477Y013341D01*
X025477Y013499D02*
X025328Y013499D01*
X025814Y012721D02*
X025814Y012721D01*
X025592Y012548D02*
X026400Y012548D01*
X025910Y012231D02*
X026927Y012231D01*
X027086Y012389D02*
X025751Y012389D01*
X026022Y012072D02*
X026769Y012072D01*
X026610Y011914D02*
X025949Y011914D01*
X025790Y011755D02*
X026572Y011755D01*
X026330Y011597D02*
X025625Y011597D01*
X025473Y011438D02*
X026213Y011438D01*
X026162Y011279D02*
X025315Y011279D01*
X025156Y011121D02*
X026162Y011121D01*
X026221Y010962D02*
X024998Y010962D01*
X024582Y010962D02*
X023802Y010962D01*
X023802Y010804D02*
X026350Y010804D01*
X026129Y010485D02*
X025964Y010650D01*
X025749Y010739D01*
X025515Y010739D01*
X025300Y010650D01*
X025135Y010485D01*
X025046Y010271D01*
X024967Y010271D01*
X024317Y009620D01*
X024317Y009488D01*
X024967Y008837D01*
X025100Y008837D01*
X025750Y009488D01*
X025750Y009566D01*
X025964Y009655D01*
X026129Y009820D01*
X026219Y010036D01*
X026219Y010269D01*
X026129Y010485D01*
X026127Y010487D02*
X027410Y010487D01*
X027252Y010328D02*
X026194Y010328D01*
X026219Y010170D02*
X027094Y010170D01*
X026906Y010011D02*
X026208Y010011D01*
X026143Y009853D02*
X026748Y009853D01*
X026618Y009694D02*
X026003Y009694D01*
X025750Y009535D02*
X026459Y009535D01*
X026300Y009377D02*
X025639Y009377D01*
X025481Y009218D02*
X026326Y009218D01*
X026484Y009060D02*
X025322Y009060D01*
X025164Y008901D02*
X026643Y008901D01*
X026801Y008743D02*
X023858Y008743D01*
X023944Y008901D02*
X024903Y008901D01*
X024744Y009060D02*
X023944Y009060D01*
X023859Y009218D02*
X024586Y009218D01*
X024427Y009377D02*
X023798Y009377D01*
X023798Y009535D02*
X024317Y009535D01*
X024390Y009694D02*
X023799Y009694D01*
X023799Y009853D02*
X024549Y009853D01*
X024708Y010011D02*
X023800Y010011D01*
X023800Y010170D02*
X024866Y010170D01*
X025070Y010328D02*
X023801Y010328D01*
X023801Y010487D02*
X025136Y010487D01*
X025295Y010645D02*
X023801Y010645D01*
X023803Y011121D02*
X024423Y011121D01*
X024265Y011279D02*
X023803Y011279D01*
X023803Y011438D02*
X024106Y011438D01*
X024073Y011597D02*
X023812Y011597D01*
X025969Y010645D02*
X028807Y010645D01*
X028807Y010487D02*
X027654Y010487D01*
X027812Y010328D02*
X028807Y010328D01*
X028807Y010170D02*
X027971Y010170D01*
X028129Y010011D02*
X028807Y010011D01*
X028807Y009853D02*
X028249Y009853D01*
X028239Y009694D02*
X028807Y009694D01*
X028807Y009535D02*
X028343Y009535D01*
X028282Y009651D02*
X028282Y009651D01*
X028397Y009406D02*
X028397Y009406D01*
X028397Y009377D02*
X028807Y009377D01*
X028807Y009218D02*
X028397Y009218D01*
X028397Y009060D02*
X028807Y009060D01*
X028807Y008901D02*
X028397Y008901D01*
X028397Y008743D02*
X028807Y008743D01*
X028807Y008584D02*
X028397Y008584D01*
X028397Y008426D02*
X028807Y008426D01*
X028807Y008267D02*
X028410Y008267D01*
X028524Y008109D02*
X028807Y008109D01*
X028807Y007950D02*
X028547Y007950D01*
X028492Y007777D02*
X028391Y007676D01*
X028286Y007633D01*
X028088Y007633D02*
X027929Y007567D01*
X027801Y007439D01*
X027732Y007272D01*
X027732Y007091D01*
X027801Y006924D01*
X027929Y006795D01*
X028096Y006726D01*
X028278Y006726D01*
X028445Y006795D01*
X028490Y006840D02*
X028807Y006840D01*
X028807Y006682D02*
X019753Y006682D01*
X019753Y006840D02*
X021884Y006840D01*
X021770Y006999D02*
X019753Y006999D01*
X019753Y006523D02*
X021885Y006523D01*
X021929Y006567D02*
X021801Y006439D01*
X021732Y006272D01*
X021732Y006091D01*
X021801Y005924D01*
X021929Y005795D01*
X022096Y005726D01*
X022278Y005726D01*
X022445Y005795D01*
X022573Y005924D01*
X022642Y006091D01*
X022642Y006272D01*
X022573Y006439D01*
X022445Y006567D01*
X022278Y006637D01*
X022096Y006637D01*
X021929Y006567D01*
X021770Y006365D02*
X020723Y006365D01*
X020767Y006206D02*
X021732Y006206D01*
X021750Y006048D02*
X020767Y006048D01*
X020379Y006048D02*
X020283Y006048D01*
X020283Y006206D02*
X020379Y006206D01*
X020379Y006365D02*
X020283Y006365D01*
X019939Y006365D02*
X019907Y006365D01*
X020379Y005889D02*
X021836Y005889D01*
X022086Y005730D02*
X020767Y005730D01*
X020379Y005730D02*
X020283Y005730D01*
X020283Y005572D02*
X020379Y005572D01*
X020122Y004938D02*
X020772Y004938D01*
X020732Y004304D02*
X020675Y004304D01*
X020767Y004145D02*
X020151Y004145D01*
X020162Y004304D02*
X020200Y004304D01*
X020182Y003986D02*
X020732Y003986D01*
X020732Y003828D02*
X019735Y003828D01*
X019639Y003828D02*
X019142Y003828D01*
X019142Y003986D02*
X019192Y003986D01*
X019223Y004145D02*
X019107Y004145D01*
X019142Y004304D02*
X019212Y004304D01*
X019192Y003669D02*
X019142Y003669D01*
X019142Y003511D02*
X019192Y003511D01*
X019347Y003352D02*
X017809Y003352D01*
X017857Y003511D02*
X018232Y003511D01*
X018044Y003578D02*
X018044Y003578D01*
X018036Y003578D02*
X018036Y003578D01*
X017877Y003669D02*
X017857Y003669D01*
X017872Y003673D02*
X017872Y003673D01*
X018197Y004055D02*
X018197Y004055D01*
X018145Y004145D02*
X018267Y004145D01*
X017187Y003511D02*
X017187Y003511D01*
X017187Y003352D02*
X017187Y003352D01*
X017461Y002391D02*
X017461Y002391D01*
X017182Y002242D02*
X005945Y002242D01*
X006012Y002084D02*
X017050Y002084D01*
X016984Y001925D02*
X016317Y001925D01*
X016057Y001925D02*
X015317Y001925D01*
X015057Y001925D02*
X006053Y001925D01*
X006053Y001767D02*
X014822Y001767D01*
X014742Y001608D02*
X006012Y001608D01*
X005944Y001450D02*
X014727Y001450D01*
X014727Y001291D02*
X005786Y001291D01*
X004931Y001291D02*
X004198Y001291D01*
X004198Y001450D02*
X004038Y001450D01*
X004038Y001608D02*
X004198Y001608D01*
X004198Y001767D02*
X004038Y001767D01*
X004038Y001925D02*
X004198Y001925D01*
X004704Y002084D02*
X002567Y002084D01*
X002567Y002242D02*
X004771Y002242D01*
X004930Y002401D02*
X002567Y002401D01*
X002567Y001925D02*
X003440Y001925D01*
X003348Y001767D02*
X002567Y001767D01*
X002567Y001608D02*
X003348Y001608D01*
X003348Y001450D02*
X002567Y001450D01*
X002567Y001291D02*
X004038Y001291D01*
X003348Y001133D02*
X002567Y001133D01*
X002567Y000974D02*
X003348Y000974D01*
X003348Y000816D02*
X002567Y000816D01*
X002567Y000657D02*
X003354Y000657D01*
X004882Y000657D02*
X014782Y000657D01*
X014727Y000816D02*
X004889Y000816D01*
X004889Y000974D02*
X014727Y000974D01*
X014727Y001133D02*
X004889Y001133D01*
X005787Y002401D02*
X020398Y002401D01*
X020906Y002471D02*
X022706Y002471D01*
X022793Y002471D01*
X022829Y002468D01*
X022895Y002440D01*
X022946Y002390D01*
X022974Y002324D01*
X022977Y002288D01*
X022977Y002216D01*
X022977Y002201D01*
X022977Y001892D01*
X022926Y001871D01*
X022797Y001742D01*
X022727Y001573D01*
X022727Y000790D01*
X022797Y000621D01*
X022857Y000561D01*
X022518Y000561D01*
X022577Y000621D01*
X022647Y000790D01*
X022647Y001573D01*
X022577Y001742D01*
X022448Y001871D01*
X022279Y001941D01*
X022096Y001941D01*
X021926Y001871D01*
X021797Y001742D01*
X021727Y001573D01*
X021727Y000790D01*
X021797Y000621D01*
X021857Y000561D01*
X020518Y000561D01*
X020577Y000621D01*
X020647Y000790D01*
X020647Y001573D01*
X020577Y001742D01*
X020448Y001871D01*
X020279Y001941D01*
X020096Y001941D01*
X019926Y001871D01*
X019797Y001742D01*
X019727Y001573D01*
X019727Y000790D01*
X019797Y000621D01*
X019857Y000561D01*
X019546Y000561D01*
X019553Y000569D01*
X019598Y000630D01*
X019632Y000697D01*
X019655Y000769D01*
X019667Y000844D01*
X019667Y001161D01*
X019207Y001161D01*
X019207Y001201D01*
X019667Y001201D01*
X019667Y001519D01*
X019655Y001594D01*
X019632Y001666D01*
X019598Y001733D01*
X019553Y001794D01*
X019500Y001848D01*
X019439Y001892D01*
X019371Y001926D01*
X019299Y001950D01*
X019225Y001961D01*
X019207Y001961D01*
X019207Y001202D01*
X019167Y001202D01*
X019167Y001961D01*
X019149Y001961D01*
X019075Y001950D01*
X019003Y001926D01*
X018936Y001892D01*
X018874Y001848D01*
X018821Y001794D01*
X018777Y001733D01*
X018742Y001666D01*
X018719Y001594D01*
X018707Y001519D01*
X018707Y001201D01*
X019167Y001201D01*
X019167Y001161D01*
X018707Y001161D01*
X018707Y000844D01*
X018719Y000769D01*
X018742Y000697D01*
X018777Y000630D01*
X018821Y000569D01*
X018828Y000561D01*
X018546Y000561D01*
X018553Y000569D01*
X018598Y000630D01*
X018632Y000697D01*
X018655Y000769D01*
X018667Y000844D01*
X018667Y001161D01*
X018207Y001161D01*
X018207Y001201D01*
X018667Y001201D01*
X018667Y001519D01*
X018655Y001594D01*
X018632Y001666D01*
X018598Y001733D01*
X018553Y001794D01*
X018500Y001848D01*
X018439Y001892D01*
X018371Y001926D01*
X018299Y001950D01*
X018225Y001961D01*
X018207Y001961D01*
X018207Y001202D01*
X018167Y001202D01*
X018167Y001961D01*
X018149Y001961D01*
X018075Y001950D01*
X018003Y001926D01*
X017936Y001892D01*
X017874Y001848D01*
X017821Y001794D01*
X017777Y001733D01*
X017742Y001666D01*
X017719Y001594D01*
X017707Y001519D01*
X017707Y001201D01*
X018167Y001201D01*
X018167Y001161D01*
X017707Y001161D01*
X017707Y000844D01*
X017719Y000769D01*
X017742Y000697D01*
X017777Y000630D01*
X017821Y000569D01*
X017828Y000561D01*
X017518Y000561D01*
X017577Y000621D01*
X017647Y000790D01*
X017647Y001573D01*
X017577Y001742D01*
X017448Y001871D01*
X017424Y001881D01*
X017428Y001890D01*
X017479Y001940D01*
X017545Y001968D01*
X017581Y001971D01*
X020388Y001971D01*
X020483Y001876D01*
X020615Y001821D01*
X020759Y001821D01*
X020891Y001876D01*
X020992Y001977D01*
X021047Y002110D01*
X021047Y002253D01*
X020992Y002385D01*
X020906Y002471D01*
X020977Y002401D02*
X022935Y002401D01*
X022977Y002242D02*
X021047Y002242D01*
X021036Y002084D02*
X022977Y002084D01*
X022977Y001925D02*
X022317Y001925D01*
X022057Y001925D02*
X020940Y001925D01*
X020552Y001767D02*
X021822Y001767D01*
X021742Y001608D02*
X020632Y001608D01*
X020647Y001450D02*
X021727Y001450D01*
X021727Y001291D02*
X020647Y001291D01*
X020647Y001133D02*
X021727Y001133D01*
X021727Y000974D02*
X020647Y000974D01*
X020647Y000816D02*
X021727Y000816D01*
X021782Y000657D02*
X020592Y000657D01*
X019782Y000657D02*
X019611Y000657D01*
X019663Y000816D02*
X019727Y000816D01*
X019727Y000974D02*
X019667Y000974D01*
X019667Y001133D02*
X019727Y001133D01*
X019727Y001291D02*
X019667Y001291D01*
X019667Y001450D02*
X019727Y001450D01*
X019742Y001608D02*
X019651Y001608D01*
X019573Y001767D02*
X019822Y001767D01*
X020057Y001925D02*
X019373Y001925D01*
X019207Y001925D02*
X019167Y001925D01*
X019167Y001767D02*
X019207Y001767D01*
X019207Y001608D02*
X019167Y001608D01*
X019167Y001450D02*
X019207Y001450D01*
X019207Y001291D02*
X019167Y001291D01*
X018707Y001291D02*
X018667Y001291D01*
X018667Y001133D02*
X018707Y001133D01*
X018707Y000974D02*
X018667Y000974D01*
X018663Y000816D02*
X018711Y000816D01*
X018763Y000657D02*
X018611Y000657D01*
X018207Y001291D02*
X018167Y001291D01*
X018167Y001450D02*
X018207Y001450D01*
X018207Y001608D02*
X018167Y001608D01*
X018167Y001767D02*
X018207Y001767D01*
X018207Y001925D02*
X018167Y001925D01*
X018001Y001925D02*
X017464Y001925D01*
X017552Y001767D02*
X017801Y001767D01*
X017724Y001608D02*
X017632Y001608D01*
X017647Y001450D02*
X017707Y001450D01*
X017707Y001291D02*
X017647Y001291D01*
X017647Y001133D02*
X017707Y001133D01*
X017707Y000974D02*
X017647Y000974D01*
X017647Y000816D02*
X017711Y000816D01*
X017763Y000657D02*
X017592Y000657D01*
X016782Y000657D02*
X016592Y000657D01*
X016647Y000816D02*
X016727Y000816D01*
X016727Y000974D02*
X016647Y000974D01*
X016647Y001133D02*
X016727Y001133D01*
X016727Y001291D02*
X016647Y001291D01*
X016647Y001450D02*
X016727Y001450D01*
X016742Y001608D02*
X016632Y001608D01*
X016552Y001767D02*
X016822Y001767D01*
X015822Y001767D02*
X015552Y001767D01*
X015632Y001608D02*
X015742Y001608D01*
X015727Y001450D02*
X015647Y001450D01*
X015647Y001291D02*
X015727Y001291D01*
X015727Y001133D02*
X015647Y001133D01*
X015647Y000974D02*
X015727Y000974D01*
X015727Y000816D02*
X015647Y000816D01*
X015592Y000657D02*
X015782Y000657D01*
X018373Y001925D02*
X019001Y001925D01*
X018801Y001767D02*
X018573Y001767D01*
X018651Y001608D02*
X018724Y001608D01*
X018707Y001450D02*
X018667Y001450D01*
X020317Y001925D02*
X020434Y001925D01*
X021516Y003035D02*
X021755Y003035D01*
X021732Y003194D02*
X021547Y003194D01*
X021506Y003352D02*
X021765Y003352D01*
X021873Y003511D02*
X021642Y003511D01*
X020868Y003352D02*
X020027Y003352D01*
X020182Y003511D02*
X020732Y003511D01*
X020732Y003669D02*
X020182Y003669D01*
X019735Y003669D02*
X019639Y003669D01*
X019639Y003511D02*
X019735Y003511D01*
X019735Y003352D02*
X019639Y003352D01*
X022316Y004621D02*
X023058Y004621D01*
X023096Y004637D02*
X022929Y004567D01*
X022801Y004439D01*
X022732Y004272D01*
X022732Y004091D01*
X022801Y003924D01*
X022929Y003795D01*
X023096Y003726D01*
X023278Y003726D01*
X023445Y003795D01*
X023573Y003924D01*
X023642Y004091D01*
X023642Y004272D01*
X023573Y004439D01*
X023445Y004567D01*
X023278Y004637D01*
X023096Y004637D01*
X023096Y004726D02*
X022929Y004795D01*
X022801Y004924D01*
X022732Y005091D01*
X022732Y005272D01*
X022801Y005439D01*
X022929Y005567D01*
X023096Y005637D01*
X023278Y005637D01*
X023445Y005567D01*
X023573Y005439D01*
X023642Y005272D01*
X023642Y005091D01*
X023573Y004924D01*
X023445Y004795D01*
X023278Y004726D01*
X023096Y004726D01*
X022968Y004779D02*
X022406Y004779D01*
X022579Y004938D02*
X022795Y004938D01*
X022732Y005096D02*
X022642Y005096D01*
X022642Y005255D02*
X022732Y005255D01*
X022790Y005413D02*
X022584Y005413D01*
X022434Y005572D02*
X022940Y005572D01*
X023086Y005730D02*
X022288Y005730D01*
X022539Y005889D02*
X022836Y005889D01*
X022801Y005924D02*
X022929Y005795D01*
X023096Y005726D01*
X023278Y005726D01*
X023445Y005795D01*
X023573Y005924D01*
X023642Y006091D01*
X023642Y006272D01*
X023573Y006439D01*
X023445Y006567D01*
X023278Y006637D01*
X023096Y006637D01*
X022929Y006567D01*
X022801Y006439D01*
X022732Y006272D01*
X022732Y006091D01*
X022801Y005924D01*
X022750Y006048D02*
X022624Y006048D01*
X022642Y006206D02*
X022732Y006206D01*
X022770Y006365D02*
X022604Y006365D01*
X022489Y006523D02*
X022885Y006523D01*
X022884Y006840D02*
X022490Y006840D01*
X022604Y006999D02*
X022770Y006999D01*
X022732Y007157D02*
X022642Y007157D01*
X022624Y007316D02*
X022750Y007316D01*
X022836Y007474D02*
X022538Y007474D01*
X021836Y007474D02*
X021273Y007474D01*
X021273Y007316D02*
X021750Y007316D01*
X021732Y007157D02*
X021273Y007157D01*
X021058Y008743D02*
X023317Y008743D01*
X023231Y008901D02*
X021445Y008901D01*
X021577Y009033D02*
X021577Y009033D01*
X021577Y009033D01*
X021588Y009060D02*
X023230Y009060D01*
X023315Y009218D02*
X021654Y009218D01*
X021669Y009255D02*
X021669Y009255D01*
X021669Y009377D02*
X023378Y009377D01*
X023379Y009535D02*
X021669Y009535D01*
X021669Y009694D02*
X023379Y009694D01*
X023538Y007474D02*
X023836Y007474D01*
X023750Y007316D02*
X023624Y007316D01*
X023642Y007157D02*
X023732Y007157D01*
X023770Y006999D02*
X023604Y006999D01*
X023490Y006840D02*
X023884Y006840D01*
X023929Y006567D02*
X023801Y006439D01*
X023732Y006272D01*
X023732Y006091D01*
X023801Y005924D01*
X023929Y005795D01*
X024096Y005726D01*
X024278Y005726D01*
X024445Y005795D01*
X024573Y005924D01*
X024642Y006091D01*
X024642Y006272D01*
X024573Y006439D01*
X024445Y006567D01*
X024278Y006637D01*
X024096Y006637D01*
X023929Y006567D01*
X023885Y006523D02*
X023489Y006523D01*
X023604Y006365D02*
X023770Y006365D01*
X023732Y006206D02*
X023642Y006206D01*
X023624Y006048D02*
X023750Y006048D01*
X023836Y005889D02*
X023539Y005889D01*
X023288Y005730D02*
X024086Y005730D01*
X024096Y005637D02*
X023929Y005567D01*
X023801Y005439D01*
X023732Y005272D01*
X023732Y005091D01*
X023801Y004924D01*
X023929Y004795D01*
X024096Y004726D01*
X024278Y004726D01*
X024445Y004795D01*
X024573Y004924D01*
X024642Y005091D01*
X024642Y005272D01*
X024573Y005439D01*
X024445Y005567D01*
X024278Y005637D01*
X024096Y005637D01*
X023940Y005572D02*
X023434Y005572D01*
X023584Y005413D02*
X023790Y005413D01*
X023732Y005255D02*
X023642Y005255D01*
X023642Y005096D02*
X023732Y005096D01*
X023795Y004938D02*
X023579Y004938D01*
X023406Y004779D02*
X023968Y004779D01*
X024058Y004621D02*
X023316Y004621D01*
X023550Y004462D02*
X023824Y004462D01*
X023801Y004439D02*
X023732Y004272D01*
X023732Y004091D01*
X023801Y003924D01*
X023929Y003795D01*
X024096Y003726D01*
X024278Y003726D01*
X024445Y003795D01*
X024573Y003924D01*
X024642Y004091D01*
X024642Y004272D01*
X024573Y004439D01*
X024445Y004567D01*
X024278Y004637D01*
X024096Y004637D01*
X023929Y004567D01*
X023801Y004439D01*
X023745Y004304D02*
X023629Y004304D01*
X023642Y004145D02*
X023732Y004145D01*
X023775Y003986D02*
X023599Y003986D01*
X023477Y003828D02*
X023897Y003828D01*
X023929Y003567D02*
X024096Y003637D01*
X024278Y003637D01*
X024445Y003567D01*
X024573Y003439D01*
X024642Y003272D01*
X024642Y003091D01*
X024573Y002924D01*
X024445Y002795D01*
X024278Y002726D01*
X024096Y002726D01*
X023929Y002795D01*
X023801Y002924D01*
X023732Y003091D01*
X023732Y003272D01*
X023801Y003439D01*
X023929Y003567D01*
X023873Y003511D02*
X023501Y003511D01*
X023609Y003352D02*
X023765Y003352D01*
X023732Y003194D02*
X023642Y003194D01*
X023619Y003035D02*
X023755Y003035D01*
X023848Y002877D02*
X023526Y002877D01*
X023305Y002630D02*
X023305Y002630D01*
X023334Y002560D02*
X028807Y002560D01*
X028807Y002718D02*
X023217Y002718D01*
X023397Y002408D02*
X023397Y002408D01*
X023397Y002401D02*
X028807Y002401D01*
X028711Y002242D02*
X023397Y002242D01*
X023397Y002084D02*
X028552Y002084D01*
X028394Y001925D02*
X027317Y001925D01*
X027057Y001925D02*
X026317Y001925D01*
X026057Y001925D02*
X025317Y001925D01*
X025057Y001925D02*
X024317Y001925D01*
X024057Y001925D02*
X023397Y001925D01*
X023552Y001767D02*
X023822Y001767D01*
X023742Y001608D02*
X023632Y001608D01*
X023647Y001450D02*
X023727Y001450D01*
X023727Y001291D02*
X023647Y001291D01*
X023647Y001133D02*
X023727Y001133D01*
X023727Y000974D02*
X023647Y000974D01*
X023647Y000816D02*
X023727Y000816D01*
X023782Y000657D02*
X023592Y000657D01*
X022782Y000657D02*
X022592Y000657D01*
X022647Y000816D02*
X022727Y000816D01*
X022727Y000974D02*
X022647Y000974D01*
X022647Y001133D02*
X022727Y001133D01*
X022727Y001291D02*
X022647Y001291D01*
X022647Y001450D02*
X022727Y001450D01*
X022742Y001608D02*
X022632Y001608D01*
X022552Y001767D02*
X022822Y001767D01*
X024552Y001767D02*
X024822Y001767D01*
X024742Y001608D02*
X024632Y001608D01*
X024647Y001450D02*
X024727Y001450D01*
X024727Y001291D02*
X024647Y001291D01*
X024647Y001133D02*
X024727Y001133D01*
X024727Y000974D02*
X024647Y000974D01*
X024647Y000816D02*
X024727Y000816D01*
X024782Y000657D02*
X024592Y000657D01*
X025592Y000657D02*
X025782Y000657D01*
X025727Y000816D02*
X025647Y000816D01*
X025647Y000974D02*
X025727Y000974D01*
X025727Y001133D02*
X025647Y001133D01*
X025647Y001291D02*
X025727Y001291D01*
X025727Y001450D02*
X025647Y001450D01*
X025632Y001608D02*
X025742Y001608D01*
X025822Y001767D02*
X025552Y001767D01*
X026552Y001767D02*
X026822Y001767D01*
X026742Y001608D02*
X026632Y001608D01*
X026647Y001450D02*
X026727Y001450D01*
X026727Y001291D02*
X026647Y001291D01*
X026647Y001133D02*
X026727Y001133D01*
X026727Y000974D02*
X026647Y000974D01*
X026647Y000816D02*
X026727Y000816D01*
X026782Y000657D02*
X026592Y000657D01*
X027592Y000657D02*
X027807Y000657D01*
X027807Y000816D02*
X027647Y000816D01*
X027647Y000974D02*
X027807Y000974D01*
X027807Y001133D02*
X027647Y001133D01*
X027647Y001291D02*
X027821Y001291D01*
X027918Y001450D02*
X027647Y001450D01*
X027632Y001608D02*
X028077Y001608D01*
X028235Y001767D02*
X027552Y001767D01*
X027278Y002726D02*
X027445Y002795D01*
X027573Y002924D01*
X027642Y003091D01*
X027642Y003272D01*
X027573Y003439D01*
X027445Y003567D01*
X027278Y003637D01*
X027096Y003637D01*
X026929Y003567D01*
X026801Y003439D01*
X026732Y003272D01*
X026732Y003091D01*
X026801Y002924D01*
X026929Y002795D01*
X027096Y002726D01*
X027278Y002726D01*
X027526Y002877D02*
X027848Y002877D01*
X027755Y003035D02*
X027619Y003035D01*
X027642Y003194D02*
X027732Y003194D01*
X027765Y003352D02*
X027609Y003352D01*
X027501Y003511D02*
X027873Y003511D01*
X027573Y003924D02*
X027445Y003795D01*
X027278Y003726D01*
X027096Y003726D01*
X026929Y003795D01*
X026801Y003924D01*
X026732Y004091D01*
X026732Y004272D01*
X026801Y004439D01*
X026929Y004567D01*
X027096Y004637D01*
X027278Y004637D01*
X027445Y004567D01*
X027573Y004439D01*
X027642Y004272D01*
X027642Y004091D01*
X027573Y003924D01*
X027599Y003986D02*
X027775Y003986D01*
X027732Y004145D02*
X027642Y004145D01*
X027629Y004304D02*
X027745Y004304D01*
X027824Y004462D02*
X027550Y004462D01*
X027316Y004621D02*
X028058Y004621D01*
X027968Y004779D02*
X027406Y004779D01*
X027445Y004795D02*
X027573Y004924D01*
X027642Y005091D01*
X027642Y005272D01*
X027573Y005439D01*
X027445Y005567D01*
X027278Y005637D01*
X027096Y005637D01*
X026929Y005567D01*
X026801Y005439D01*
X026732Y005272D01*
X026732Y005091D01*
X026801Y004924D01*
X026929Y004795D01*
X027096Y004726D01*
X027278Y004726D01*
X027445Y004795D01*
X027579Y004938D02*
X027795Y004938D01*
X027732Y005096D02*
X027642Y005096D01*
X027642Y005255D02*
X027732Y005255D01*
X027790Y005413D02*
X027584Y005413D01*
X027434Y005572D02*
X027940Y005572D01*
X028086Y005730D02*
X027288Y005730D01*
X027278Y005726D02*
X027445Y005795D01*
X027573Y005924D01*
X027642Y006091D01*
X027642Y006272D01*
X027573Y006439D01*
X027445Y006567D01*
X027278Y006637D01*
X027096Y006637D01*
X026929Y006567D01*
X026801Y006439D01*
X026732Y006272D01*
X026732Y006091D01*
X026801Y005924D01*
X026929Y005795D01*
X027096Y005726D01*
X027278Y005726D01*
X027086Y005730D02*
X026288Y005730D01*
X026278Y005726D02*
X026445Y005795D01*
X026573Y005924D01*
X026642Y006091D01*
X026642Y006272D01*
X026573Y006439D01*
X026445Y006567D01*
X026278Y006637D01*
X026096Y006637D01*
X025929Y006567D01*
X025801Y006439D01*
X025732Y006272D01*
X025732Y006091D01*
X025801Y005924D01*
X025929Y005795D01*
X026096Y005726D01*
X026278Y005726D01*
X026278Y005637D02*
X026096Y005637D01*
X025929Y005567D01*
X025801Y005439D01*
X025732Y005272D01*
X025732Y005091D01*
X025801Y004924D01*
X025929Y004795D01*
X026096Y004726D01*
X026278Y004726D01*
X026445Y004795D01*
X026573Y004924D01*
X026642Y005091D01*
X026642Y005272D01*
X026573Y005439D01*
X026445Y005567D01*
X026278Y005637D01*
X026434Y005572D02*
X026940Y005572D01*
X026790Y005413D02*
X026584Y005413D01*
X026642Y005255D02*
X026732Y005255D01*
X026732Y005096D02*
X026642Y005096D01*
X026579Y004938D02*
X026795Y004938D01*
X026968Y004779D02*
X026406Y004779D01*
X026316Y004621D02*
X027058Y004621D01*
X026824Y004462D02*
X026550Y004462D01*
X026573Y004439D02*
X026445Y004567D01*
X026278Y004637D01*
X026096Y004637D01*
X025929Y004567D01*
X025801Y004439D01*
X025732Y004272D01*
X025732Y004091D01*
X025801Y003924D01*
X025929Y003795D01*
X026096Y003726D01*
X026278Y003726D01*
X026445Y003795D01*
X026573Y003924D01*
X026642Y004091D01*
X026642Y004272D01*
X026573Y004439D01*
X026629Y004304D02*
X026745Y004304D01*
X026732Y004145D02*
X026642Y004145D01*
X026599Y003986D02*
X026775Y003986D01*
X026897Y003828D02*
X026477Y003828D01*
X026445Y003567D02*
X026278Y003637D01*
X026096Y003637D01*
X025929Y003567D01*
X025801Y003439D01*
X025732Y003272D01*
X025732Y003091D01*
X025801Y002924D01*
X025929Y002795D01*
X026096Y002726D01*
X026278Y002726D01*
X026445Y002795D01*
X026573Y002924D01*
X026642Y003091D01*
X026642Y003272D01*
X026573Y003439D01*
X026445Y003567D01*
X026501Y003511D02*
X026873Y003511D01*
X026765Y003352D02*
X026609Y003352D01*
X026642Y003194D02*
X026732Y003194D01*
X026755Y003035D02*
X026619Y003035D01*
X026526Y002877D02*
X026848Y002877D01*
X025848Y002877D02*
X025526Y002877D01*
X025573Y002924D02*
X025642Y003091D01*
X025642Y003272D01*
X025573Y003439D01*
X025445Y003567D01*
X025278Y003637D01*
X025096Y003637D01*
X024929Y003567D01*
X024801Y003439D01*
X024732Y003272D01*
X024732Y003091D01*
X024801Y002924D01*
X024929Y002795D01*
X025096Y002726D01*
X025278Y002726D01*
X025445Y002795D01*
X025573Y002924D01*
X025619Y003035D02*
X025755Y003035D01*
X025732Y003194D02*
X025642Y003194D01*
X025609Y003352D02*
X025765Y003352D01*
X025873Y003511D02*
X025501Y003511D01*
X025445Y003795D02*
X025573Y003924D01*
X025642Y004091D01*
X025642Y004272D01*
X025573Y004439D01*
X025445Y004567D01*
X025278Y004637D01*
X025096Y004637D01*
X024929Y004567D01*
X024801Y004439D01*
X024732Y004272D01*
X024732Y004091D01*
X024801Y003924D01*
X024929Y003795D01*
X025096Y003726D01*
X025278Y003726D01*
X025445Y003795D01*
X025477Y003828D02*
X025897Y003828D01*
X025775Y003986D02*
X025599Y003986D01*
X025642Y004145D02*
X025732Y004145D01*
X025745Y004304D02*
X025629Y004304D01*
X025550Y004462D02*
X025824Y004462D01*
X026058Y004621D02*
X025316Y004621D01*
X025278Y004726D02*
X025096Y004726D01*
X024929Y004795D01*
X024801Y004924D01*
X024732Y005091D01*
X024732Y005272D01*
X024801Y005439D01*
X024929Y005567D01*
X025096Y005637D01*
X025278Y005637D01*
X025445Y005567D01*
X025573Y005439D01*
X025642Y005272D01*
X025642Y005091D01*
X025573Y004924D01*
X025445Y004795D01*
X025278Y004726D01*
X025406Y004779D02*
X025968Y004779D01*
X025795Y004938D02*
X025579Y004938D01*
X025642Y005096D02*
X025732Y005096D01*
X025732Y005255D02*
X025642Y005255D01*
X025584Y005413D02*
X025790Y005413D01*
X025940Y005572D02*
X025434Y005572D01*
X025288Y005730D02*
X026086Y005730D01*
X025836Y005889D02*
X025539Y005889D01*
X025573Y005924D02*
X025642Y006091D01*
X025642Y006272D01*
X025573Y006439D01*
X025445Y006567D01*
X025278Y006637D01*
X025096Y006637D01*
X024929Y006567D01*
X024801Y006439D01*
X024732Y006272D01*
X024732Y006091D01*
X024801Y005924D01*
X024929Y005795D01*
X025096Y005726D01*
X025278Y005726D01*
X025445Y005795D01*
X025573Y005924D01*
X025624Y006048D02*
X025750Y006048D01*
X025732Y006206D02*
X025642Y006206D01*
X025604Y006365D02*
X025770Y006365D01*
X025885Y006523D02*
X025489Y006523D01*
X025490Y006840D02*
X025884Y006840D01*
X025770Y006999D02*
X025604Y006999D01*
X025642Y007157D02*
X025732Y007157D01*
X025750Y007316D02*
X025624Y007316D01*
X025538Y007474D02*
X025836Y007474D01*
X026538Y007474D02*
X026836Y007474D01*
X026750Y007316D02*
X026624Y007316D01*
X026642Y007157D02*
X026732Y007157D01*
X026770Y006999D02*
X026604Y006999D01*
X026490Y006840D02*
X026884Y006840D01*
X026885Y006523D02*
X026489Y006523D01*
X026604Y006365D02*
X026770Y006365D01*
X026732Y006206D02*
X026642Y006206D01*
X026624Y006048D02*
X026750Y006048D01*
X026836Y005889D02*
X026539Y005889D01*
X027539Y005889D02*
X027836Y005889D01*
X027750Y006048D02*
X027624Y006048D01*
X027642Y006206D02*
X027732Y006206D01*
X027770Y006365D02*
X027604Y006365D01*
X027489Y006523D02*
X027885Y006523D01*
X027884Y006840D02*
X027490Y006840D01*
X027604Y006999D02*
X027770Y006999D01*
X027732Y007157D02*
X027642Y007157D01*
X027624Y007316D02*
X027750Y007316D01*
X027836Y007474D02*
X027538Y007474D01*
X027850Y008109D02*
X026423Y008109D01*
X027316Y008267D02*
X027964Y008267D01*
X027977Y008426D02*
X027435Y008426D01*
X027358Y008291D02*
X027358Y008291D01*
X027358Y008291D01*
X027477Y008584D02*
X027977Y008584D01*
X027977Y008743D02*
X027476Y008743D01*
X027410Y008901D02*
X027977Y008901D01*
X027977Y009060D02*
X027578Y009060D01*
X027598Y009218D02*
X027650Y009218D01*
X027736Y009218D02*
X027977Y009218D01*
X027950Y009377D02*
X027864Y009377D01*
X027491Y009377D02*
X027439Y009377D01*
X027333Y009535D02*
X027281Y009535D01*
X027174Y009694D02*
X027122Y009694D01*
X027016Y009853D02*
X026964Y009853D01*
X027029Y010804D02*
X028807Y010804D01*
X028807Y010962D02*
X027158Y010962D01*
X027383Y011121D02*
X028807Y011121D01*
X028807Y011279D02*
X027542Y011279D01*
X027700Y011438D02*
X028807Y011438D01*
X028807Y011597D02*
X027859Y011597D01*
X028005Y011755D02*
X028807Y011755D01*
X028807Y011914D02*
X027967Y011914D01*
X027808Y012072D02*
X028807Y012072D01*
X028807Y012231D02*
X027649Y012231D01*
X027491Y012389D02*
X028807Y012389D01*
X027629Y014609D02*
X027533Y014609D01*
X027533Y014767D02*
X027629Y014767D01*
X025977Y014926D02*
X021749Y014926D01*
X021749Y015084D02*
X025977Y015084D01*
X025977Y015243D02*
X021727Y015243D01*
X021669Y015402D02*
X025977Y015402D01*
X025977Y015560D02*
X021669Y015560D01*
X021669Y015719D02*
X021941Y015719D01*
X021841Y015877D02*
X021660Y015877D01*
X021827Y016036D02*
X021397Y016036D01*
X021397Y016194D02*
X021891Y016194D01*
X020732Y016987D02*
X020682Y016987D01*
X020651Y017146D02*
X020768Y017146D01*
X020732Y017304D02*
X020662Y017304D01*
X020621Y017938D02*
X020773Y017938D01*
X019723Y017146D02*
X019669Y017146D01*
X019669Y016987D02*
X019692Y016987D01*
X020139Y016670D02*
X020235Y016670D01*
X020235Y016511D02*
X020139Y016511D01*
X020139Y016353D02*
X020235Y016353D01*
X018749Y015877D02*
X018169Y015877D01*
X018169Y015719D02*
X018749Y015719D01*
X018749Y015560D02*
X018169Y015560D01*
X018169Y015402D02*
X018749Y015402D01*
X018459Y015243D02*
X018459Y015243D01*
X018459Y015084D02*
X018459Y015084D01*
X018459Y014926D02*
X018459Y014926D01*
X018459Y014767D02*
X018459Y014767D01*
X018459Y014609D02*
X018459Y014609D01*
X018459Y014450D02*
X018459Y014450D01*
X018459Y014292D02*
X018459Y014292D01*
X016249Y012072D02*
X013269Y012072D01*
X013496Y011914D02*
X016249Y011914D01*
X016249Y011755D02*
X013596Y011755D01*
X013647Y011597D02*
X016249Y011597D01*
X016249Y011438D02*
X013647Y011438D01*
X013647Y011279D02*
X014687Y011279D01*
X014669Y011121D02*
X013647Y011121D01*
X013647Y010962D02*
X014669Y010962D01*
X014669Y010804D02*
X013647Y010804D01*
X013647Y010645D02*
X014669Y010645D01*
X014669Y010487D02*
X013647Y010487D01*
X013647Y010328D02*
X014669Y010328D01*
X014749Y010170D02*
X013647Y010170D01*
X013647Y010011D02*
X014734Y010011D01*
X015038Y009694D02*
X015105Y009694D01*
X015077Y009733D02*
X015077Y009733D01*
X015196Y009535D02*
X014840Y009535D01*
X014907Y009563D02*
X014907Y009563D01*
X014685Y009471D02*
X014685Y009471D01*
X014959Y009218D02*
X015749Y009218D01*
X015749Y009060D02*
X015044Y009060D01*
X015044Y008901D02*
X015319Y008901D01*
X015164Y008743D02*
X014958Y008743D01*
X014897Y008584D02*
X015127Y008584D01*
X015162Y008426D02*
X014897Y008426D01*
X014897Y008267D02*
X015305Y008267D01*
X015137Y008109D02*
X014897Y008109D01*
X014897Y007950D02*
X015053Y007950D01*
X015053Y007791D02*
X014897Y007791D01*
X014897Y007633D02*
X015053Y007633D01*
X015053Y007474D02*
X014897Y007474D01*
X014897Y007316D02*
X015053Y007316D01*
X015053Y007157D02*
X014897Y007157D01*
X014897Y006999D02*
X016621Y006999D01*
X016621Y006840D02*
X014897Y006840D01*
X014897Y006682D02*
X016621Y006682D01*
X016621Y006523D02*
X014897Y006523D01*
X014897Y006365D02*
X015651Y006365D01*
X015607Y006206D02*
X014897Y006206D01*
X014897Y006048D02*
X015607Y006048D01*
X015607Y005883D02*
X015607Y005593D01*
X015620Y005547D01*
X015643Y005506D01*
X015677Y005472D01*
X015718Y005449D01*
X015764Y005436D01*
X015995Y005436D01*
X015995Y005883D01*
X015607Y005883D01*
X015607Y005730D02*
X014897Y005730D01*
X014897Y005572D02*
X015613Y005572D01*
X015995Y005572D02*
X016091Y005572D01*
X016091Y005730D02*
X015995Y005730D01*
X015995Y005889D02*
X014897Y005889D01*
X015995Y006048D02*
X016091Y006048D01*
X016091Y006206D02*
X015995Y006206D01*
X015995Y006365D02*
X016091Y006365D01*
X016436Y006365D02*
X016467Y006365D01*
X017195Y006365D02*
X017449Y006365D01*
X017377Y006206D02*
X017247Y006206D01*
X017247Y005572D02*
X017377Y005572D01*
X016686Y005391D02*
X016686Y005391D01*
X018138Y006365D02*
X018237Y006365D01*
X018852Y007371D02*
X018853Y007371D01*
X015907Y008463D02*
X015907Y008463D01*
X015729Y008901D02*
X015655Y008901D01*
X013867Y009853D02*
X013647Y009853D01*
X013222Y009535D02*
X013068Y009535D01*
X012962Y010011D02*
X010897Y010011D01*
X010897Y009853D02*
X011367Y009853D01*
X011133Y009694D02*
X010897Y009694D01*
X010897Y009535D02*
X011030Y009535D01*
X010977Y009377D02*
X010897Y009377D01*
X010897Y009218D02*
X010977Y009218D01*
X010977Y009060D02*
X010897Y009060D01*
X011397Y009060D02*
X011540Y009060D01*
X011477Y008901D02*
X011397Y008901D01*
X011397Y008743D02*
X011477Y008743D01*
X011477Y008584D02*
X011397Y008584D01*
X011397Y008426D02*
X011477Y008426D01*
X011477Y008267D02*
X011397Y008267D01*
X011397Y008109D02*
X011477Y008109D01*
X011477Y007950D02*
X011397Y007950D01*
X011397Y007791D02*
X011477Y007791D01*
X011477Y007633D02*
X011397Y007633D01*
X011397Y007474D02*
X011477Y007474D01*
X011477Y007316D02*
X011397Y007316D01*
X011397Y007157D02*
X011477Y007157D01*
X011477Y006999D02*
X011397Y006999D01*
X011397Y006840D02*
X011477Y006840D01*
X011477Y006682D02*
X011397Y006682D01*
X011897Y006682D02*
X013477Y006682D01*
X013477Y006840D02*
X011897Y006840D01*
X011897Y006999D02*
X013477Y006999D01*
X013477Y007157D02*
X011897Y007157D01*
X011897Y007316D02*
X013477Y007316D01*
X013477Y007474D02*
X011897Y007474D01*
X011897Y007633D02*
X013477Y007633D01*
X013477Y007791D02*
X011897Y007791D01*
X011897Y007950D02*
X013477Y007950D01*
X013477Y008109D02*
X011897Y008109D01*
X011897Y008267D02*
X013477Y008267D01*
X013477Y008426D02*
X011897Y008426D01*
X011897Y008584D02*
X013477Y008584D01*
X013477Y008743D02*
X011897Y008743D01*
X011940Y008901D02*
X013477Y008901D01*
X013477Y009060D02*
X013377Y009060D01*
X012977Y010170D02*
X010897Y010170D01*
X010897Y010328D02*
X012977Y010328D01*
X012977Y010487D02*
X010897Y010487D01*
X010943Y010645D02*
X011176Y010645D01*
X012730Y010645D02*
X012977Y010645D01*
X012977Y010804D02*
X012802Y010804D01*
X012802Y010962D02*
X012977Y010962D01*
X012977Y011121D02*
X012802Y011121D01*
X012773Y011279D02*
X012926Y011279D01*
X011926Y009377D02*
X011423Y009377D01*
X011397Y009218D02*
X011658Y009218D01*
X008389Y010476D02*
X008389Y010476D01*
X011983Y013658D02*
X012079Y013658D01*
X012079Y013816D02*
X011983Y013816D01*
X011728Y014450D02*
X011453Y014450D01*
X014397Y016353D02*
X015512Y016353D01*
X015512Y016511D02*
X014397Y016511D01*
X014397Y016670D02*
X015512Y016670D01*
X015512Y016623D02*
X015939Y016623D01*
X015939Y017011D01*
X015668Y017011D01*
X015622Y016999D01*
X015581Y016975D01*
X015548Y016942D01*
X015524Y016900D01*
X015512Y016855D01*
X015512Y016623D01*
X015512Y016828D02*
X014397Y016828D01*
X014397Y016987D02*
X015602Y016987D01*
X015939Y016987D02*
X016035Y016987D01*
X016035Y016828D02*
X015939Y016828D01*
X015939Y016670D02*
X016035Y016670D01*
X013705Y017146D02*
X010045Y017146D01*
X009787Y017304D02*
X013727Y017304D01*
X013727Y017463D02*
X009397Y017463D01*
X009397Y017621D02*
X013727Y017621D01*
X013727Y017780D02*
X013679Y017780D01*
X013495Y017780D02*
X009397Y017780D01*
X009397Y017938D02*
X013277Y017938D01*
X013227Y018097D02*
X009397Y018097D01*
X009397Y018255D02*
X013249Y018255D01*
X013360Y018414D02*
X009397Y018414D01*
X009397Y018572D02*
X013377Y018572D01*
X013377Y018731D02*
X009397Y018731D01*
X009397Y018890D02*
X013377Y018890D01*
X013377Y019048D02*
X009397Y019048D01*
X009397Y019207D02*
X009471Y019207D01*
X009903Y019207D02*
X013377Y019207D01*
X013377Y019365D02*
X010091Y019365D01*
X010157Y019524D02*
X011294Y019524D01*
X011172Y019682D02*
X010162Y019682D01*
X010114Y019841D02*
X011127Y019841D01*
X011127Y019999D02*
X009991Y019999D01*
X009383Y019999D02*
X008991Y019999D01*
X009149Y019841D02*
X009260Y019841D01*
X009172Y019682D02*
X009162Y019682D01*
X008977Y019207D02*
X008934Y019207D01*
X008977Y019048D02*
X002567Y019048D01*
X002567Y018890D02*
X008977Y018890D01*
X008977Y018731D02*
X002567Y018731D01*
X002567Y018572D02*
X008977Y018572D01*
X008977Y018414D02*
X002567Y018414D01*
X002567Y018255D02*
X002815Y018255D01*
X003009Y018255D02*
X003169Y018255D01*
X003169Y018097D02*
X003009Y018097D01*
X003009Y017938D02*
X003169Y017938D01*
X003169Y017780D02*
X003009Y017780D01*
X003009Y017621D02*
X003169Y017621D01*
X003169Y017463D02*
X005071Y017463D01*
X005086Y017621D02*
X003874Y017621D01*
X003836Y017780D02*
X005152Y017780D01*
X005258Y017938D02*
X003758Y017938D01*
X003624Y018097D02*
X005430Y018097D01*
X006259Y018097D02*
X008977Y018097D01*
X008977Y018255D02*
X003363Y018255D01*
X003169Y017304D02*
X003009Y017304D01*
X003009Y017146D02*
X003169Y017146D01*
X003169Y016987D02*
X003009Y016987D01*
X003009Y016828D02*
X003169Y016828D01*
X003495Y016828D02*
X005354Y016828D01*
X005195Y016987D02*
X003687Y016987D01*
X003794Y017146D02*
X005126Y017146D01*
X005071Y017304D02*
X003855Y017304D01*
X002567Y019207D02*
X008440Y019207D01*
X008282Y019365D02*
X002567Y019365D01*
X002567Y019524D02*
X008212Y019524D01*
X008212Y019682D02*
X006625Y019682D01*
X006580Y019637D02*
X006358Y019545D01*
X006118Y019545D01*
X005897Y019637D01*
X005727Y019806D01*
X005635Y020028D01*
X005635Y020268D01*
X005727Y020489D01*
X005897Y020659D01*
X006118Y020751D01*
X006358Y020751D01*
X006580Y020659D01*
X006749Y020489D01*
X006841Y020268D01*
X006841Y020028D01*
X006749Y019806D01*
X006580Y019637D01*
X006764Y019841D02*
X008225Y019841D01*
X008383Y019999D02*
X006829Y019999D01*
X006841Y020158D02*
X011127Y020158D01*
X011127Y020316D02*
X006821Y020316D01*
X006755Y020475D02*
X011127Y020475D01*
X011152Y020634D02*
X006605Y020634D01*
X005871Y020634D02*
X002567Y020634D01*
X002567Y020792D02*
X011247Y020792D01*
X011927Y020792D02*
X012247Y020792D01*
X012152Y020634D02*
X012022Y020634D01*
X012047Y020475D02*
X012127Y020475D01*
X012127Y020316D02*
X012047Y020316D01*
X012047Y020158D02*
X012127Y020158D01*
X012127Y019999D02*
X012047Y019999D01*
X012047Y019841D02*
X012127Y019841D01*
X012172Y019682D02*
X012002Y019682D01*
X011880Y019524D02*
X012294Y019524D01*
X012880Y019524D02*
X013294Y019524D01*
X013172Y019682D02*
X013002Y019682D01*
X013047Y019841D02*
X013127Y019841D01*
X013127Y019999D02*
X013047Y019999D01*
X013047Y020158D02*
X013127Y020158D01*
X013127Y020316D02*
X013047Y020316D01*
X013047Y020475D02*
X013127Y020475D01*
X013152Y020634D02*
X013022Y020634D01*
X012927Y020792D02*
X013247Y020792D01*
X008977Y017938D02*
X006431Y017938D01*
X006537Y017780D02*
X008977Y017780D01*
X008977Y017621D02*
X006603Y017621D01*
X006618Y017463D02*
X008977Y017463D01*
X008977Y017304D02*
X008886Y017304D01*
X009397Y017304D02*
X009587Y017304D01*
X008488Y017304D02*
X006618Y017304D01*
X006980Y017146D02*
X008329Y017146D01*
X008212Y016987D02*
X007181Y016987D01*
X007271Y016828D02*
X008212Y016828D01*
X008212Y016670D02*
X007314Y016670D01*
X007314Y016511D02*
X008335Y016511D01*
X005851Y019682D02*
X002567Y019682D01*
X002567Y019841D02*
X005713Y019841D01*
X005647Y019999D02*
X002567Y019999D01*
X002567Y020158D02*
X005635Y020158D01*
X005655Y020316D02*
X002567Y020316D01*
X002567Y020475D02*
X005721Y020475D01*
X011897Y006523D02*
X013477Y006523D01*
X013477Y006365D02*
X011897Y006365D01*
X009377Y005889D02*
X005011Y005889D01*
X004954Y005889D02*
X003197Y005889D01*
X003197Y006048D02*
X004056Y006048D01*
X004056Y006142D02*
X004056Y005930D01*
X004954Y005930D01*
X004954Y006298D01*
X004213Y006298D01*
X004167Y006286D01*
X004126Y006262D01*
X004092Y006229D01*
X004069Y006188D01*
X004056Y006142D01*
X004079Y006206D02*
X003197Y006206D01*
X003197Y005730D02*
X004056Y005730D01*
X004095Y005572D02*
X003197Y005572D01*
X004954Y005572D02*
X005011Y005572D01*
X005011Y005730D02*
X004954Y005730D01*
X004954Y006048D02*
X005011Y006048D01*
X005011Y006206D02*
X004954Y006206D01*
X022550Y004462D02*
X022824Y004462D01*
X022745Y004304D02*
X022629Y004304D01*
X022642Y004145D02*
X022732Y004145D01*
X022775Y003986D02*
X022599Y003986D01*
X022477Y003828D02*
X022897Y003828D01*
X022873Y003511D02*
X022501Y003511D01*
X022609Y003352D02*
X022765Y003352D01*
X022732Y003194D02*
X022642Y003194D01*
X022619Y003035D02*
X022755Y003035D01*
X024526Y002877D02*
X024848Y002877D01*
X024755Y003035D02*
X024619Y003035D01*
X024642Y003194D02*
X024732Y003194D01*
X024765Y003352D02*
X024609Y003352D01*
X024501Y003511D02*
X024873Y003511D01*
X024897Y003828D02*
X024477Y003828D01*
X024599Y003986D02*
X024775Y003986D01*
X024732Y004145D02*
X024642Y004145D01*
X024629Y004304D02*
X024745Y004304D01*
X024824Y004462D02*
X024550Y004462D01*
X024316Y004621D02*
X025058Y004621D01*
X024968Y004779D02*
X024406Y004779D01*
X024579Y004938D02*
X024795Y004938D01*
X024732Y005096D02*
X024642Y005096D01*
X024642Y005255D02*
X024732Y005255D01*
X024790Y005413D02*
X024584Y005413D01*
X024434Y005572D02*
X024940Y005572D01*
X025086Y005730D02*
X024288Y005730D01*
X024539Y005889D02*
X024836Y005889D01*
X024750Y006048D02*
X024624Y006048D01*
X024642Y006206D02*
X024732Y006206D01*
X024770Y006365D02*
X024604Y006365D01*
X024489Y006523D02*
X024885Y006523D01*
X024884Y006840D02*
X024490Y006840D01*
X024604Y006999D02*
X024770Y006999D01*
X024732Y007157D02*
X024642Y007157D01*
X024624Y007316D02*
X024750Y007316D01*
X024836Y007474D02*
X024538Y007474D01*
X028538Y007474D02*
X028807Y007474D01*
X028807Y007316D02*
X028624Y007316D01*
X028642Y007157D02*
X028807Y007157D01*
X028807Y006999D02*
X028604Y006999D01*
X027897Y003828D02*
X027477Y003828D01*
X028609Y003352D02*
X028807Y003352D01*
X028807Y003194D02*
X028642Y003194D01*
X028619Y003035D02*
X028807Y003035D01*
X028807Y002877D02*
X028526Y002877D01*
X024582Y015877D02*
X024534Y015877D01*
X026480Y019524D02*
X026894Y019524D01*
X026772Y019682D02*
X026602Y019682D01*
X026647Y019841D02*
X026727Y019841D01*
X026727Y019999D02*
X026647Y019999D01*
X026647Y020158D02*
X026727Y020158D01*
X026727Y020316D02*
X026647Y020316D01*
X026647Y020475D02*
X026727Y020475D01*
X026752Y020634D02*
X026622Y020634D01*
X026527Y020792D02*
X026847Y020792D01*
X027647Y020475D02*
X027756Y020475D01*
X027807Y020316D02*
X027647Y020316D01*
X027647Y020158D02*
X027807Y020158D01*
X027807Y019999D02*
X027647Y019999D01*
X027647Y019841D02*
X027807Y019841D01*
X027807Y019682D02*
X027602Y019682D01*
X027480Y019524D02*
X027807Y019524D01*
D32*
X028187Y007181D03*
X027187Y007181D03*
X026187Y007181D03*
X025187Y007181D03*
X024187Y007181D03*
X023187Y007181D03*
X022187Y007181D03*
X022187Y006181D03*
X023187Y006181D03*
X024187Y006181D03*
X025187Y006181D03*
X025187Y005181D03*
X024187Y005181D03*
X023187Y005181D03*
X022187Y005181D03*
X022187Y004181D03*
X023187Y004181D03*
X024187Y004181D03*
X025187Y004181D03*
X025187Y003181D03*
X024187Y003181D03*
X023187Y003181D03*
X022187Y003181D03*
X026187Y003181D03*
X027187Y003181D03*
X028187Y003181D03*
X028187Y004181D03*
X027187Y004181D03*
X026187Y004181D03*
X026187Y005181D03*
X027187Y005181D03*
X028187Y005181D03*
X028187Y006181D03*
X027187Y006181D03*
X026187Y006181D03*
M02*
